<?xml version="1.0" standalone="no"?>
<!DOCTYPE svg PUBLIC "-//W3C//DTD SVG 20010904//EN"
 "http://www.w3.org/TR/2001/REC-SVG-20010904/DTD/svg10.dtd">
<svg version="1.0" xmlns="http://www.w3.org/2000/svg"
 width="700.000000pt" height="700.000000pt" viewBox="0 0 700.000000 700.000000"
 preserveAspectRatio="xMidYMid meet">
<metadata>
Created by potrace 1.11, written by Peter Selinger 2001-2013
</metadata>
<g transform="translate(0.000000,700.000000) scale(0.100000,-0.100000)"
fill="#000000" stroke="none">
<path d="M3255 6905 c-88 -51 -171 -100 -185 -108 -14 -7 -189 -109 -390 -227
-201 -117 -381 -222 -401 -233 l-35 -21 -1 -293 c0 -161 4 -293 7 -293 4 0 24
11 44 25 20 14 39 25 41 25 2 0 36 19 77 43 40 24 93 55 118 69 25 14 86 49
135 78 50 29 137 80 195 113 58 33 119 68 135 78 17 10 48 28 70 40 22 12 52
30 67 40 14 11 28 19 30 19 1 0 3 -1241 2 -2758 0 -1774 -4 -2756 -10 -2755
-9 1 -191 106 -349 200 l-50 29 -3 1927 -2 1927 -253 -2 -252 -3 -2 -1770 c0
-973 -2 -1773 -2 -1777 -1 -3 -92 47 -203 112 l-203 118 -3 1332 -2 1331 -254
-1 -254 -1 -1 -1107 c0 -609 -1 -1142 -1 -1185 l0 -78 -28 20 c-29 20 -308
185 -355 208 l-27 14 2 1457 3 1457 350 203 c193 111 360 208 372 215 12 6 61
34 108 61 l85 49 0 293 c0 162 -4 294 -9 294 -9 0 -529 -300 -573 -331 -15
-10 -29 -19 -31 -19 -3 0 -83 -46 -178 -101 -96 -56 -190 -111 -209 -121 -19
-11 -124 -72 -233 -135 l-197 -115 0 -1752 1 -1751 226 -130 c124 -71 245
-141 269 -155 24 -14 94 -54 156 -90 158 -91 165 -95 540 -313 186 -108 357
-207 380 -220 54 -31 198 -115 218 -127 14 -9 92 -54 155 -90 17 -9 112 -65
213 -123 101 -59 188 -107 193 -107 5 0 9 -4 9 -10 0 -5 4 -10 9 -10 5 0 76
-39 158 -86 81 -48 164 -96 183 -106 38 -22 196 -114 220 -129 8 -5 31 -17 50
-28 l36 -19 74 42 c87 50 374 216 1070 621 272 158 511 296 530 307 19 11 49
27 65 37 37 22 387 226 435 253 19 11 73 43 120 71 47 27 99 58 115 67 17 9
102 59 190 110 88 51 174 100 190 110 17 10 73 42 125 73 l95 55 0 1748 0
1749 -52 32 c-29 17 -71 43 -95 56 -24 14 -207 120 -408 238 -774 451 -855
498 -859 494 -2 -3 -4 -134 -4 -292 l-1 -288 130 -77 c71 -42 140 -83 154 -90
14 -7 27 -15 30 -18 3 -3 14 -10 25 -16 44 -24 560 -327 565 -331 11 -10 6
-2904 -4 -2912 -10 -8 -336 -200 -376 -221 -14 -7 -15 100 -15 1168 l0 1177
-254 0 -254 0 0 -1326 0 -1326 -21 -13 c-12 -8 -46 -27 -76 -43 -30 -16 -62
-36 -71 -43 -8 -8 -19 -14 -23 -14 -4 0 -54 -27 -111 -60 -57 -33 -106 -60
-108 -60 -2 0 -3 799 -3 1775 l1 1775 -255 0 -255 0 0 -1927 0 -1926 -30 -17
c-16 -10 -108 -63 -204 -119 -96 -55 -175 -101 -177 -101 -2 0 -3 1240 -3
2755 0 1515 4 2755 8 2755 5 0 71 -37 147 -81 161 -95 365 -214 409 -239 16
-10 103 -60 192 -113 92 -54 163 -90 165 -83 2 6 3 139 3 296 l-1 285 -280
163 c-153 90 -287 166 -296 169 -10 3 -18 9 -18 14 0 5 -4 9 -9 9 -6 0 -61 30
-123 66 -62 37 -126 74 -143 84 -16 9 -75 43 -130 75 -55 32 -118 69 -140 81
l-40 23 -160 -94z"/>
</g>
</svg>
