<svg width="104" height="80" viewBox="0 0 104 80" fill="none" xmlns="http://www.w3.org/2000/svg"><g opacity=".1" clip-path="url(#clip0)" fill="#fff"><path d="M45.143 0c-.002 16.18.15 32.358-.055 48.535-.17 13.426-6.8 23.001-19.15 28.687-4.572 2.106-9.495 2.751-14.617 2.471V64.228c.457-.02.934-.08 1.407-.054 3.775.204 6.533-1.553 8.65-4.417 2.128-2.876 3.173-6.152 3.32-9.688.078-1.863.015-3.733.015-5.784H-.002C.001 29.54.001 14.8.001 0h45.142zM15.931 74.744c.722-.064 1.307-.079 1.877-.175 13.578-2.272 22.768-12.947 22.785-26.5.017-14.025.005-28.05.005-42.074V4.69H4.638v35.224h24.77c-.175 5.163.485 10.26-.895 15.261-.972 3.52-2.56 6.7-5.278 9.257-2.057 1.934-4.58 3.01-7.382 3.688 0 1.934-.002 3.804.002 5.674 0 .28.043.557.075.95zM103.749 0c-.002 16.137.005 32.274-.007 48.412-.013 14.653-9.663 26.824-24.125 30.434-3.153.785-6.36 1.033-9.683.842v-15.46c.458-.022.935-.084 1.41-.06 3.775.202 6.535-1.548 8.653-4.414 2.125-2.876 3.175-6.152 3.317-9.688.075-1.863.013-3.733.013-5.728h-24.72V-.002C73.654 0 88.702 0 103.749 0zM74.557 74.748c.697-.066 1.315-.083 1.917-.189 13.663-2.38 22.73-12.95 22.743-26.535.012-14.025.002-28.047.002-42.071V4.66H63.23v35.249h24.775c0 2.986.125 5.84-.04 8.677-.135 2.341-.362 4.731-.99 6.982-1.482 5.327-4.362 9.661-9.902 11.76-.838.316-1.703.556-2.518.819.003 2.228.003 4.373.003 6.601z"/></g><defs><clipPath id="clip0"><path fill="#fff" d="M0 0h104v80H0z"/></clipPath></defs></svg>