<svg width="16" height="16" viewBox="0 0 16 16" fill="none" xmlns="http://www.w3.org/2000/svg"><path d="M15.675 12.019L10.017 1.602A2.327 2.327 0 008 .454c-.837 0-1.591.429-2.018 1.148l-.01.016L.334 12.002a2.32 2.32 0 00-.022 2.358 2.32 2.32 0 002.04 1.186h11.266a2.37 2.37 0 002.071-1.186 2.313 2.313 0 00-.013-2.341zM7.061 5.223a.938.938 0 111.877 0v3.754a.938.938 0 01-1.877 0V5.223zM8 13.67a1.41 1.41 0 01-1.408-1.407A1.41 1.41 0 018 10.854a1.41 1.41 0 011.407 1.408A1.41 1.41 0 018 13.669z" fill="#E26E61"/></svg>