<svg width="24" height="24" viewBox="0 0 24 24" fill="none" xmlns="http://www.w3.org/2000/svg"><g clip-path="url(#clip0)"><path d="M9.469 9.375v2.859a.937.937 0 001.875 0V9.376a.937.937 0 00-1.875 0z" fill="#35B972"/><path d="M23.764 18.608a.938.938 0 00-.106-.183l-2.074-2.8a.938.938 0 00-.866-.578H4.219V5.204c0-1.034.841-1.875 1.875-1.875h11.812c1.033 0 1.875.841 1.875 1.875v6.093a.937.937 0 101.874 0V5.204a3.754 3.754 0 00-3.75-3.75H6.096a3.754 3.754 0 00-3.75 3.75v10.518L.342 18.424a.934.934 0 00-.106.183 2.804 2.804 0 00.224 2.665 2.804 2.804 0 002.353 1.273h18.374c.952 0 1.831-.476 2.353-1.273a2.804 2.804 0 00.224-2.665zm-1.793 1.639a.923.923 0 01-.784.424H15.28a.937.937 0 00-.938-.937H9.657a.937.937 0 00-.937.937H2.813a.923.923 0 01-.784-.424.92.92 0 01-.107-.806l1.832-2.473h16.492l1.832 2.473a.92.92 0 01-.107.806z" fill="#7E859D"/><path d="M6.188 8.438v3.796a.937.937 0 101.875 0V8.438a.937.937 0 10-1.875 0zm6.562-2.344v6.14a.937.937 0 101.875 0v-6.14a.937.937 0 10-1.875 0zm3.28 4.734v1.406a.937.937 0 001.876 0v-1.406a.937.937 0 10-1.875 0z" fill="#35B972"/></g><defs><clipPath id="clip0"><path fill="#fff" d="M0 0h24v24H0z"/></clipPath></defs></svg>