<svg width="16" height="16" viewBox="0 0 16 16" fill="none" xmlns="http://www.w3.org/2000/svg"><g clip-path="url(#clip0)" fill="#fff"><path d="M11.466 3.375H7.03a.625.625 0 100 1.25h4.435a.625.625 0 100-1.25zm0 2.501H7.03a.625.625 0 100 1.25h4.435a.625.625 0 100-1.25zm-2.529 2.5H7.031a.625.625 0 100 1.25h1.906a.625.625 0 100-1.25z"/><path d="M14 8.501c.346 0 .626-.28.626-.625V2.5c0-1.378-1.122-2.5-2.5-2.5H6.375c-1.378 0-2.5 1.12-2.5 2.498a2.503 2.503 0 00-2.501 2.5V13.5c0 1.378 1.122 2.5 2.5 2.5h6.064c1.378 0 2.5-1.122 2.5-2.5v-.02A2.504 2.504 0 0014.626 11a.625.625 0 10-1.25 0c0 .689-.56 1.25-1.25 1.25l-5.75.001h-.001c-.334 0-.648-.13-.884-.366a1.242 1.242 0 01-.366-.884v-8.5c0-.69.56-1.25 1.25-1.25h5.75c.69 0 1.25.56 1.25 1.25v5.375c0 .345.28.625.626.625zm-7.625 5h4.813c0 .688-.561 1.249-1.25 1.249H3.874c-.689 0-1.25-.561-1.25-1.25V4.998c0-.689.561-1.25 1.25-1.25v7.253c0 .668.26 1.296.733 1.768a2.48 2.48 0 001.768.732z"/></g><defs><clipPath id="clip0"><path fill="#fff" d="M0 0h16v16H0z"/></clipPath></defs></svg>