<svg width="24" height="24" viewBox="0 0 24 24" fill="none" xmlns="http://www.w3.org/2000/svg"><path d="M23.748 2.174a.937.937 0 00-.687-.299h-3.803c.006-.306.009-.618.009-.938A.937.937 0 0018.329 0H5.673a.937.937 0 00-.938.937c0 .32.003.632.01.938H.938a.937.937 0 00-.936 1.004c.006.075.145 1.862 1.347 4.16a15.422 15.422 0 002.718 3.695c1.348 1.362 2.987 2.543 4.87 3.51.866 1.025 1.679 2.002 2.125 3.278v1.524c-.484.134-1.145.344-1.81.64-2.417 1.077-2.924 2.43-2.924 3.377 0 .517.42.937.938.937h9.375c.517 0 .937-.42.937-.938 0-.921-.497-2.25-2.864-3.344a13.237 13.237 0 00-1.777-.659v-1.608c.44-1.251 1.244-2.198 2.097-3.192 2.51-1.286 4.566-2.934 6.112-4.9A.938.938 0 0019.673 8.2a14.605 14.605 0 01-1.922 2.009c.787-1.784 1.244-3.86 1.425-6.459h2.757a10.3 10.3 0 01-.203.687.937.937 0 101.778.595c.414-1.24.482-2.063.489-2.153a.937.937 0 00-.25-.705zM3.057 6.257a11.522 11.522 0 01-.99-2.507h2.76c.18 2.604.64 4.685 1.43 6.471-1.34-1.158-2.41-2.483-3.2-3.964zm12.05 15.868h-6.32c.4-.328.909-.582 1.203-.714a11.715 11.715 0 012.007-.669c.95.234 2.33.752 3.11 1.383zm.048-11.049c-.448.687-.96 1.282-1.5 1.913-.58.675-1.171 1.363-1.671 2.163-.5-.798-1.085-1.492-1.66-2.172-.532-.63-1.035-1.226-1.477-1.904C7.386 8.836 6.706 6.05 6.62 1.875h10.762c-.086 4.175-.766 6.961-2.227 9.201z" fill="#7E859D"/><path d="M11.063 6.53v2.61a.937.937 0 101.875 0V4.735a.938.938 0 00-1.475-.768l-1.406.985a.938.938 0 001.006 1.58z" fill="#35B972"/></svg>