<svg width="143" height="58" viewBox="0 0 143 58" fill="none" xmlns="http://www.w3.org/2000/svg"><g opacity=".2"><path d="M39.395 25.773c0 1.147-.098 2.271-.287 3.364H24.936a7.95 7.95 0 00-7.95 7.95v8.112C7.47 43.846.15 35.664.15 25.773.15 14.935 8.935 6.15 19.773 6.15c10.837 0 19.622 8.785 19.622 19.623z" fill="#656A83" stroke="#B0BCE2" stroke-width=".3"/><path d="M17.134 34.35H2.428c2.661 5.64 7.957 9.732 14.249 10.591v-7.976c0-.92.161-1.801.457-2.616zM19.772 6C11.933 6 5.16 10.562 1.962 17.176h35.621C34.385 10.562 27.612 6 19.773 6zm5.911 23.287a6.878 6.878 0 10-7.092 3.262 7.79 7.79 0 016.344-3.262h.748z" fill="#B0BCE2"/><circle cx="19.771" cy="25.773" fill="#B0BCE2" r="4.298"/><path d="M19.772 20.468l1.326 3.008 3.268-.355-1.942 2.652 1.942 2.652-3.268-.356-1.326 3.008-1.326-3.008-3.267.356 1.941-2.652-1.941-2.652 3.267.355 1.326-3.008z" fill="#1C1F2D"/><path d="M24.936 33.242h29.22A3.845 3.845 0 0158 37.086v16.917a3.845 3.845 0 01-3.845 3.844h-29.22a3.845 3.845 0 01-3.844-3.844V37.086a3.845 3.845 0 013.845-3.844z" fill="#fff"/><path d="M24.936 33.242h29.22A3.845 3.845 0 0158 37.086v16.917a3.845 3.845 0 01-3.845 3.844h-29.22a3.845 3.845 0 01-3.844-3.844V37.086a3.845 3.845 0 013.845-3.844z" fill="#B0BCE2"/><path d="M58 37.855H21.09v6.152H58v-6.152zM32.625 50.159h-6.152a.769.769 0 110-1.538h6.152a.769.769 0 010 1.538zm4.613 3.076H26.473a.769.769 0 010-1.538h10.765a.769.769 0 110 1.538z" fill="#1C1F2D"/><path d="M75.08 26V13.914h4.233c1.466 0 2.578.282 3.336.847.759.559 1.138 1.38 1.138 2.465 0 .592-.153 1.115-.457 1.569a2.646 2.646 0 01-1.27.988c.62.155 1.107.467 1.461.938.36.47.54 1.046.54 1.726 0 1.162-.371 2.042-1.113 2.64-.741.598-1.798.902-3.17.913h-4.699zm2.49-5.263V24h2.133c.586 0 1.043-.139 1.37-.416.331-.282.497-.67.497-1.162 0-1.106-.572-1.668-1.718-1.685H77.57zm0-1.76h1.842c1.256-.022 1.884-.522 1.884-1.502 0-.548-.16-.94-.481-1.179-.316-.243-.816-.365-1.502-.365h-1.744v3.046zM90.982 26a2.663 2.663 0 01-.24-.805c-.581.647-1.337.971-2.266.971-.88 0-1.61-.255-2.192-.764-.575-.509-.863-1.15-.863-1.925 0-.952.351-1.683 1.054-2.192.708-.509 1.73-.766 3.063-.772h1.104v-.515c0-.415-.108-.747-.324-.996-.21-.249-.545-.373-1.004-.373-.404 0-.722.097-.955.29-.227.194-.34.46-.34.797H85.62c0-.52.16-1.001.482-1.444.32-.443.774-.789 1.36-1.038.588-.254 1.246-.382 1.977-.382 1.106 0 1.983.28 2.63.839.654.553.98 1.334.98 2.34v3.894c.006.852.125 1.497.357 1.934V26h-2.424zM89 24.331c.355 0 .681-.077.98-.232.299-.16.52-.373.664-.639v-1.544h-.896c-1.201 0-1.84.415-1.918 1.245l-.008.141a.96.96 0 00.315.739c.21.194.498.29.864.29zm8.102-7.312l.075 1.037c.642-.802 1.502-1.204 2.581-1.204.952 0 1.66.28 2.125.839.465.559.703 1.394.714 2.507V26h-2.399v-5.744c0-.51-.11-.877-.332-1.104-.221-.233-.59-.349-1.104-.349-.675 0-1.181.288-1.519.863V26h-2.399v-8.981h2.258zm10.584 5.379l-.864.863V26h-2.399V13.25h2.399v7.064l.465-.598 2.299-2.697h2.881l-3.246 3.743L112.748 26h-2.756l-2.307-3.602zm10.683 1.12c0-.293-.147-.523-.44-.689-.288-.171-.753-.324-1.395-.456-2.136-.449-3.204-1.356-3.204-2.723 0-.797.329-1.461.988-1.992.664-.537 1.53-.806 2.598-.806 1.14 0 2.05.269 2.731.806.686.537 1.029 1.234 1.029 2.091h-2.399c0-.343-.11-.625-.332-.846-.221-.227-.567-.34-1.037-.34-.404 0-.717.09-.938.273a.863.863 0 00-.332.698c0 .265.124.481.373.647.255.16.681.302 1.279.424.597.116 1.101.248 1.51.398 1.268.465 1.901 1.27 1.901 2.416 0 .819-.351 1.482-1.054 1.992-.703.503-1.61.755-2.723.755-.752 0-1.422-.133-2.008-.398-.582-.272-1.038-.64-1.37-1.104a2.584 2.584 0 01-.498-1.52h2.274c.022.427.18.753.473.98.294.227.687.34 1.179.34.459 0 .805-.085 1.038-.257a.821.821 0 00.357-.689zm7.744-2.092c0-.89.172-1.685.515-2.382a3.78 3.78 0 011.477-1.619c.648-.381 1.398-.573 2.25-.573 1.212 0 2.2.371 2.963 1.113.77.741 1.198 1.748 1.287 3.021l.017.615c0 1.378-.385 2.484-1.154 3.32-.769.83-1.801 1.245-3.096 1.245-1.295 0-2.33-.415-3.105-1.245-.769-.83-1.154-1.96-1.154-3.387v-.108zm2.399.175c0 .852.161 1.505.482 1.959.321.448.78.672 1.378.672.581 0 1.034-.221 1.361-.664.326-.448.49-1.162.49-2.142 0-.835-.164-1.483-.49-1.942-.327-.46-.786-.69-1.378-.69-.587 0-1.04.23-1.361.69-.321.454-.482 1.16-.482 2.117zM136.754 26v-7.222h-1.337v-1.76h1.337v-.763c0-1.007.288-1.788.863-2.34.581-.56 1.392-.84 2.432-.84.332 0 .739.056 1.221.167l-.025 1.86a3.05 3.05 0 00-.731-.076c-.902 0-1.353.424-1.353 1.27v.723h1.785v1.76h-1.785V26h-2.407zM77.727 46h-2.49V33.914h2.49V46zm4.366-8.981l.075 1.037c.642-.802 1.502-1.203 2.581-1.203.952 0 1.66.279 2.126.838.464.559.702 1.394.713 2.507V46H85.19v-5.744c0-.51-.111-.877-.333-1.104-.22-.233-.589-.349-1.104-.349-.675 0-1.181.288-1.519.864V46h-2.399v-8.981h2.258zm6.948 4.424c0-1.4.313-2.515.938-3.345.63-.83 1.491-1.245 2.582-1.245.874 0 1.596.326 2.166.979V33.25h2.407V46h-2.166l-.116-.955c-.598.747-1.367 1.121-2.308 1.121-1.057 0-1.906-.415-2.548-1.245-.637-.836-.955-1.995-.955-3.478zm2.399.174c0 .841.147 1.486.44 1.934.293.448.72.673 1.278.673.742 0 1.265-.313 1.57-.938V39.74c-.3-.625-.817-.938-1.553-.938-1.157 0-1.735.938-1.735 2.814zM101.525 46h-2.407v-8.981h2.407V46zm-2.548-11.306c0-.36.119-.655.357-.888.243-.232.573-.348.988-.348.409 0 .736.116.979.348.244.233.366.529.366.888 0 .366-.125.664-.374.897-.244.232-.567.349-.971.349s-.73-.117-.98-.35c-.243-.232-.365-.53-.365-.896zM108.714 46a2.66 2.66 0 01-.241-.805c-.581.647-1.336.971-2.266.971-.88 0-1.61-.255-2.191-.764-.576-.509-.864-1.15-.864-1.925 0-.952.352-1.683 1.055-2.192.708-.509 1.729-.766 3.063-.772h1.104V40c0-.416-.108-.748-.324-.997-.21-.249-.545-.373-1.005-.373-.404 0-.722.097-.954.29-.227.194-.341.46-.341.797h-2.398c0-.52.16-1.001.481-1.444.321-.443.775-.789 1.361-1.038.587-.254 1.245-.382 1.976-.382 1.107 0 1.984.28 2.631.839.653.553.98 1.334.98 2.34v3.894c.005.852.124 1.497.357 1.934V46h-2.424zm-1.984-1.669c.354 0 .681-.077.979-.232a1.58 1.58 0 00.665-.639v-1.544h-.897c-1.201 0-1.84.415-1.917 1.245l-.009.141c0 .3.105.545.316.739.21.194.498.29.863.29z" fill="#B0BCE2"/></g></svg>