<svg width="149" height="58" viewBox="0 0 149 58" fill="none" xmlns="http://www.w3.org/2000/svg"><g opacity=".2" clip-path="url(#clip0)"><path d="M77.08 24V11.914h4.233c1.466 0 2.578.282 3.336.847.759.559 1.138 1.38 1.138 2.465 0 .592-.153 1.115-.457 1.569a2.646 2.646 0 01-1.27.988c.62.155 1.107.467 1.461.938.36.47.54 1.046.54 1.726 0 1.162-.371 2.042-1.113 2.64-.741.598-1.798.902-3.17.913h-4.699zm2.49-5.263V22h2.133c.586 0 1.043-.139 1.37-.416.331-.282.497-.67.497-1.162 0-1.106-.572-1.668-1.718-1.685H79.57zm0-1.76h1.842c1.256-.022 1.884-.522 1.884-1.502 0-.548-.16-.94-.481-1.179-.316-.243-.816-.365-1.502-.365h-1.744v3.046zM92.982 24a2.663 2.663 0 01-.24-.805c-.581.647-1.337.971-2.266.971-.88 0-1.61-.255-2.192-.764-.575-.509-.863-1.15-.863-1.925 0-.952.351-1.683 1.054-2.192.708-.509 1.73-.766 3.063-.772h1.104v-.515c0-.415-.108-.747-.324-.996-.21-.249-.545-.373-1.004-.373-.404 0-.722.097-.955.29-.227.194-.34.46-.34.797H87.62c0-.52.16-1.001.482-1.444.32-.443.774-.789 1.36-1.038.588-.254 1.246-.382 1.977-.382 1.106 0 1.983.28 2.63.839.654.553.98 1.334.98 2.34v3.894c.006.852.125 1.497.357 1.934V24h-2.424zM91 22.331c.355 0 .681-.077.98-.232.299-.16.52-.373.664-.639v-1.544h-.896c-1.201 0-1.84.415-1.918 1.245l-.008.141a.96.96 0 00.315.739c.21.194.498.29.864.29zm8.102-7.312l.075 1.037c.642-.802 1.502-1.204 2.581-1.204.952 0 1.66.28 2.125.839.465.559.703 1.394.714 2.507V24h-2.399v-5.744c0-.51-.11-.877-.332-1.104-.221-.233-.589-.349-1.104-.349-.675 0-1.181.288-1.519.863V24h-2.399v-8.981h2.258zm10.584 5.379l-.864.863V24h-2.399V11.25h2.399v7.064l.465-.598 2.299-2.697h2.881l-3.246 3.743L114.748 24h-2.756l-2.307-3.602zm10.683 1.12c0-.293-.147-.523-.44-.689-.288-.171-.753-.324-1.395-.456-2.136-.449-3.204-1.356-3.204-2.723 0-.797.329-1.461.988-1.992.664-.537 1.53-.806 2.598-.806 1.14 0 2.05.269 2.731.806.686.537 1.029 1.234 1.029 2.092h-2.399c0-.344-.11-.626-.332-.847-.221-.227-.567-.34-1.037-.34-.404 0-.717.09-.938.273a.863.863 0 00-.332.698c0 .265.124.481.373.647.255.16.681.302 1.279.424.597.116 1.101.248 1.51.398 1.268.465 1.901 1.27 1.901 2.416 0 .819-.351 1.482-1.054 1.992-.703.503-1.61.755-2.723.755-.752 0-1.422-.133-2.008-.398-.582-.272-1.038-.64-1.37-1.104a2.584 2.584 0 01-.498-1.52h2.274c.022.427.18.753.473.98.294.227.687.34 1.179.34.459 0 .805-.085 1.038-.257a.821.821 0 00.357-.689zm7.744-2.092c0-.89.172-1.685.515-2.382a3.78 3.78 0 011.477-1.619c.648-.382 1.398-.573 2.25-.573 1.212 0 2.2.371 2.963 1.113.77.741 1.198 1.748 1.287 3.021l.017.615c0 1.378-.385 2.484-1.154 3.32-.769.83-1.801 1.245-3.096 1.245-1.295 0-2.33-.415-3.105-1.245-.769-.83-1.154-1.96-1.154-3.387v-.108zm2.399.175c0 .852.161 1.505.482 1.959.321.448.78.672 1.378.672.581 0 1.034-.221 1.361-.664.326-.448.49-1.162.49-2.142 0-.835-.164-1.483-.49-1.942-.327-.46-.786-.69-1.378-.69-.587 0-1.04.23-1.361.69-.321.454-.482 1.16-.482 2.117zM138.754 24v-7.222h-1.337v-1.76h1.337v-.763c0-1.007.288-1.788.863-2.34.581-.56 1.392-.84 2.432-.84.332 0 .739.056 1.221.167l-.025 1.86a3.05 3.05 0 00-.731-.076c-.902 0-1.353.424-1.353 1.27v.723h1.785v1.76h-1.785V24h-2.407zm-58.421 7.914l3.105 8.766 3.087-8.766h3.27V44h-2.498v-3.304l.25-5.702L84.283 44h-1.71l-3.254-8.998.25 5.694V44h-2.49V31.914h3.253zM97.018 44a2.663 2.663 0 01-.241-.805c-.581.647-1.337.971-2.266.971-.88 0-1.61-.255-2.192-.764-.575-.509-.863-1.15-.863-1.925 0-.952.352-1.683 1.054-2.192.709-.509 1.73-.766 3.063-.772h1.104V38c0-.416-.108-.748-.324-.997-.21-.249-.545-.373-1.004-.373-.404 0-.722.097-.955.29-.226.194-.34.46-.34.797h-2.399c0-.52.16-1.001.482-1.444.32-.443.775-.789 1.361-1.038.587-.254 1.245-.382 1.976-.382 1.106 0 1.983.28 2.631.839.653.553.98 1.334.98 2.34v3.894c.005.852.124 1.497.356 1.934V44h-2.423zm-1.984-1.669a2.1 2.1 0 00.98-.232c.298-.16.52-.373.663-.639v-1.544h-.896c-1.201 0-1.84.415-1.918 1.245l-.008.141a.96.96 0 00.315.739c.21.194.498.29.864.29zM103.459 44h-2.407V31.25h2.407V44zm7.188 0a2.69 2.69 0 01-.24-.805c-.581.647-1.337.971-2.266.971-.88 0-1.611-.255-2.192-.764-.575-.509-.863-1.15-.863-1.925 0-.952.351-1.683 1.054-2.192.708-.509 1.729-.766 3.063-.772h1.104V38c0-.416-.108-.748-.324-.997-.21-.249-.545-.373-1.004-.373-.404 0-.722.097-.955.29-.226.194-.34.46-.34.797h-2.399c0-.52.161-1.001.482-1.444.321-.443.774-.789 1.361-1.038.587-.254 1.245-.382 1.976-.382 1.106 0 1.983.28 2.631.839.653.553.979 1.334.979 2.34v3.894c.006.852.125 1.497.357 1.934V44h-2.424zm-1.983-1.669c.354 0 .68-.077.979-.232.299-.16.52-.373.664-.639v-1.544h-.896c-1.201 0-1.84.415-1.918 1.245l-.008.141c0 .3.105.545.315.739.211.194.498.29.864.29zm9.114-1.726l1.66-5.586h2.573L118.4 45.395l-.199.473c-.537 1.173-1.422 1.76-2.656 1.76-.349 0-.703-.053-1.063-.158v-1.818l.366.008c.453 0 .791-.069 1.012-.207.227-.139.404-.368.532-.69l.282-.738-3.146-9.006h2.581l1.669 5.586zm10.044.913c0-.293-.147-.523-.44-.689-.288-.171-.753-.324-1.395-.456-2.136-.449-3.204-1.356-3.204-2.723 0-.797.329-1.461.988-1.992.664-.537 1.53-.806 2.598-.806 1.14 0 2.05.269 2.731.806.686.536 1.029 1.234 1.029 2.091h-2.399c0-.343-.11-.625-.332-.846-.221-.227-.567-.34-1.037-.34-.404 0-.717.09-.938.273a.863.863 0 00-.332.698c0 .265.124.481.373.647.255.16.681.302 1.279.424.597.116 1.101.248 1.51.398 1.268.465 1.901 1.27 1.901 2.416 0 .819-.351 1.483-1.054 1.992-.703.503-1.61.755-2.723.755-.752 0-1.422-.133-2.008-.398-.581-.272-1.038-.64-1.37-1.104a2.584 2.584 0 01-.498-1.52h2.274c.023.427.18.753.474.98.293.227.686.34 1.178.34.46 0 .805-.085 1.038-.257a.821.821 0 00.357-.689zM134.238 44h-2.407v-8.981h2.407V44zm-2.548-11.306c0-.36.119-.655.357-.888.243-.232.573-.349.988-.349.409 0 .736.117.979.35.244.232.365.528.365.887 0 .366-.124.664-.373.897-.244.232-.567.349-.971.349s-.731-.117-.98-.35c-.243-.232-.365-.53-.365-.896zM141.427 44a2.66 2.66 0 01-.241-.805c-.581.647-1.336.971-2.266.971-.88 0-1.61-.255-2.191-.764-.576-.509-.864-1.15-.864-1.925 0-.952.352-1.683 1.054-2.192.709-.509 1.73-.766 3.063-.772h1.104V38c0-.416-.107-.748-.323-.997-.211-.249-.545-.373-1.005-.373-.404 0-.722.097-.954.29-.227.194-.341.46-.341.797h-2.399c0-.52.161-1.001.482-1.444.321-.443.775-.789 1.361-1.038.587-.254 1.245-.382 1.976-.382 1.107 0 1.984.28 2.631.839.653.553.98 1.334.98 2.34v3.894c.005.852.124 1.497.357 1.934V44h-2.424zm-1.984-1.669c.354 0 .681-.077.979-.232.299-.16.521-.373.664-.639v-1.544h-.896c-1.201 0-1.84.415-1.918 1.245l-.008.141c0 .3.105.545.316.739.21.194.498.29.863.29z" fill="#B0BCE2"/><mask id="a" maskUnits="userSpaceOnUse" x=".79" y="-.541" width="41" height="41" fill="#000"><path fill="#fff" d="M.79-.541h41v41h-41z"/><path fill-rule="evenodd" clip-rule="evenodd" d="M18.926 39.83v-8.284a7.8 7.8 0 017.8-7.8h14.298a19.89 19.89 0 00.311-3.514C41.335 9.312 32.483.46 21.562.46 10.642.46 1.79 9.312 1.79 20.232c0 10.027 7.462 18.31 17.136 19.599z"/></mask><path fill-rule="evenodd" clip-rule="evenodd" d="M18.926 39.83v-8.284a7.8 7.8 0 017.8-7.8h14.298a19.89 19.89 0 00.311-3.514C41.335 9.312 32.483.46 21.562.46 10.642.46 1.79 9.312 1.79 20.232c0 10.027 7.462 18.31 17.136 19.599z" fill="#D80027"/><path d="M18.926 39.83l-.04.298.34.045v-.342h-.3zm22.098-16.083v.3h.25l.045-.248-.295-.052zM19.226 39.83v-8.285h-.6v8.285h.6zm0-8.285a7.5 7.5 0 017.5-7.5v-.6a8.1 8.1 0 00-8.1 8.1h.6zm7.5-7.5h14.298v-.6H26.725v.6zm14.593-.247c.208-1.157.316-2.35.316-3.567h-.6c0 1.182-.105 2.338-.307 3.462l.59.105zm.316-3.567C41.635 9.146 32.648.16 21.562.16v.6c10.755 0 19.473 8.719 19.473 19.473h.6zM21.562.16C10.476.16 1.49 9.146 1.49 20.232h.6C2.09 9.478 10.808.76 21.562.76v-.6zM1.49 20.232c0 10.179 7.575 18.588 17.396 19.896l.08-.595C9.438 38.264 2.09 30.106 2.09 20.233h-.6z" fill="#000" fill-opacity=".4" mask="url(#a)"/><path d="M26.724 27.701h29.22a3.845 3.845 0 013.845 3.845v16.916a3.845 3.845 0 01-3.845 3.845h-29.22a3.845 3.845 0 01-3.844-3.845V31.546a3.845 3.845 0 013.844-3.845z" fill="#B0BCE2"/><path d="M59.789 32.315h-36.91v6.151h36.91v-6.151zM34.414 44.618h-6.152a.769.769 0 010-1.537h6.152a.769.769 0 110 1.537zm4.613 3.076H28.262a.769.769 0 010-1.538h10.765a.769.769 0 010 1.538z" fill="#1C1F2D"/><mask id="b" fill="#fff"><path fill-rule="evenodd" clip-rule="evenodd" d="M18.924 39.744v-8.372a7.8 7.8 0 017.8-7.8h14.24a19.89 19.89 0 00.297-3.436C41.261 9.216 32.41.363 21.488.363c-10.92 0-19.772 8.853-19.772 19.773 0 10.051 7.5 18.35 17.208 19.608z"/></mask><path fill-rule="evenodd" clip-rule="evenodd" d="M18.924 39.744v-8.372a7.8 7.8 0 017.8-7.8h14.24a19.89 19.89 0 00.297-3.436C41.261 9.216 32.41.363 21.488.363c-10.92 0-19.772 8.853-19.772 19.773 0 10.051 7.5 18.35 17.208 19.608z" fill="#1C1F2D"/><path d="M18.924 39.744l-.038.297.338.044v-.341h-.3zm22.04-16.171v.3h.252l.043-.248-.295-.052zm-21.74 16.17v-8.37h-.6v8.37h.6zm0-8.37a7.5 7.5 0 017.5-7.5v-.6a8.1 8.1 0 00-8.1 8.1h.6zm7.5-7.5h14.24v-.6h-14.24v.6zm14.535-.248a20.2 20.2 0 00.302-3.49h-.6c0 1.156-.1 2.287-.293 3.386l.591.104zm.302-3.49C41.561 9.05 32.574.064 21.488.064v.6c10.755 0 19.473 8.718 19.473 19.473h.6zM21.488.064C10.403.063 1.416 9.05 1.416 20.136h.6C2.016 9.38 10.734.663 21.488.663v-.6zM1.416 20.136c0 10.204 7.613 18.629 17.47 19.905l.077-.595c-9.561-1.238-16.947-9.412-16.947-19.31h-.6z" fill="#B0BCE2" mask="url(#b)"/><path fill-rule="evenodd" clip-rule="evenodd" d="M40.845 23.757c.226-1.198.345-2.434.345-3.698v-.086H20.933v-.002H1.83C1.83 9.101 10.6.287 21.42.286h-.003c-10.92 0-19.772 8.852-19.772 19.773 0 1.805.241 3.553.694 5.214h19.805a7.765 7.765 0 014.622-1.516h14.079zM18.966 35.549v-3.993c0-.389.029-.77.084-1.145H4.568a19.875 19.875 0 004.56 5.138h9.838zm2.456-20.636V9.86H38.36a19.657 19.657 0 012.154 5.053H21.422zM33.898 4.722H21.422V.286a19.69 19.69 0 0112.476 4.436z" fill="#B0BCE2"/><path d="M21.418 20.053V.918c-10.61 0-19.21 8.567-19.21 19.135h19.21z" fill="#1C1F2D"/><path d="M14.94 17.135c-2.7 0-4.89-2.18-4.89-4.87s2.19-4.87 4.89-4.87c.842 0 1.634.211 2.326.585a6.01 6.01 0 00-4.207-1.71c-3.323 0-6.017 2.684-6.017 5.995 0 3.31 2.694 5.994 6.017 5.994a6.01 6.01 0 004.207-1.71 4.885 4.885 0 01-2.326.586z" fill="#B0BCE2"/><path d="M16.315 8.838l.868 1.809 1.96-.452L18.267 12l1.577 1.245-1.963.44.005 2.005-1.57-1.254-1.57 1.254.006-2.004-1.963-.44L14.366 12l-.878-1.804 1.96.451.868-1.808z" fill="#B0BCE2"/></g><defs><clipPath id="clip0"><path fill="#fff" transform="translate(.142)" d="M0 0h148v58H0z"/></clipPath></defs></svg>