<svg width="152" height="58" viewBox="0 0 152 58" fill="none" xmlns="http://www.w3.org/2000/svg"><g opacity=".2" clip-path="url(#clip0)"><path d="M75.224 25V12.914h4.233c1.467 0 2.58.282 3.337.847.758.559 1.137 1.38 1.137 2.465 0 .592-.152 1.115-.456 1.569a2.646 2.646 0 01-1.27.988c.62.155 1.107.467 1.46.938.36.47.54 1.046.54 1.726 0 1.162-.37 2.042-1.112 2.64-.742.598-1.799.902-3.17.913h-4.7zm2.49-5.263V23h2.133c.587 0 1.044-.139 1.37-.416.332-.282.498-.67.498-1.162 0-1.106-.573-1.668-1.718-1.685h-2.283zm0-1.76h1.843c1.256-.022 1.884-.522 1.884-1.502 0-.548-.16-.94-.481-1.179-.316-.243-.816-.365-1.503-.365h-1.743v3.046zM91.128 25a2.663 2.663 0 01-.24-.805c-.582.647-1.337.971-2.267.971-.88 0-1.61-.255-2.191-.764-.576-.509-.863-1.15-.863-1.925 0-.952.351-1.683 1.054-2.192.708-.509 1.73-.766 3.063-.772h1.104v-.515c0-.415-.108-.747-.324-.996-.21-.249-.545-.373-1.004-.373-.404 0-.722.097-.955.29-.227.194-.34.46-.34.797h-2.4c0-.52.161-1.001.482-1.444.321-.443.775-.789 1.362-1.038.586-.254 1.245-.382 1.975-.382 1.107 0 1.984.28 2.632.839.653.553.98 1.334.98 2.34v3.894c.005.852.124 1.497.356 1.934V25h-2.424zm-1.984-1.669c.355 0 .681-.077.98-.232.299-.16.52-.373.664-.639v-1.544h-.897c-1.2 0-1.84.415-1.917 1.245l-.008.141a.96.96 0 00.315.739c.21.194.498.29.863.29zm8.102-7.312l.075 1.037c.642-.802 1.502-1.204 2.581-1.204.952 0 1.66.28 2.125.839.465.559.703 1.394.714 2.507V25h-2.399v-5.744c0-.51-.111-.877-.332-1.104-.221-.233-.59-.349-1.104-.349-.675 0-1.181.288-1.519.863V25h-2.399v-8.981h2.258zm10.583 5.379l-.863.863V25h-2.399V12.25h2.399v7.064l.465-.598 2.299-2.697h2.881l-3.246 3.743L112.893 25h-2.756l-2.308-3.602zm10.683 1.12c0-.293-.146-.523-.439-.689-.288-.171-.753-.324-1.395-.456-2.136-.449-3.204-1.356-3.204-2.723 0-.797.329-1.461.988-1.992.664-.537 1.53-.806 2.598-.806 1.14 0 2.05.269 2.731.806.686.537 1.029 1.234 1.029 2.091h-2.399c0-.343-.111-.625-.332-.846-.221-.227-.567-.34-1.037-.34-.404 0-.717.09-.938.273a.864.864 0 00-.333.698c0 .265.125.481.374.647.255.16.681.302 1.278.424a9.99 9.99 0 011.511.398c1.267.465 1.901 1.27 1.901 2.416 0 .819-.351 1.482-1.054 1.992-.703.503-1.611.755-2.723.755-.752 0-1.422-.133-2.009-.398-.581-.272-1.037-.64-1.369-1.104a2.584 2.584 0 01-.498-1.52h2.274c.022.427.18.753.473.98.294.227.686.34 1.179.34.459 0 .805-.085 1.038-.257a.823.823 0 00.356-.689zm7.745-2.092c0-.89.172-1.685.515-2.382a3.773 3.773 0 011.477-1.619c.648-.381 1.398-.573 2.25-.573 1.212 0 2.199.371 2.963 1.113.769.741 1.198 1.748 1.287 3.021l.016.615c0 1.378-.384 2.484-1.153 3.32-.77.83-1.802 1.245-3.097 1.245s-2.329-.415-3.104-1.245c-.769-.83-1.154-1.96-1.154-3.387v-.108zm2.399.175c0 .852.16 1.505.481 1.959.321.448.781.672 1.378.672.581 0 1.035-.221 1.362-.664.326-.448.489-1.162.489-2.142 0-.835-.163-1.483-.489-1.942-.327-.46-.786-.69-1.378-.69-.587 0-1.041.23-1.362.69-.321.454-.481 1.16-.481 2.117zM136.899 25v-7.222h-1.337v-1.76h1.337v-.763c0-1.007.287-1.788.863-2.34.581-.56 1.392-.84 2.432-.84.332 0 .739.056 1.22.167l-.025 1.86a3.052 3.052 0 00-.73-.076c-.902 0-1.353.424-1.353 1.27v.723h1.785v1.76h-1.785V25h-2.407zm-57.21 17.003l2.74-9.089h2.772L80.993 45h-2.598l-4.192-12.086h2.764l2.723 9.09zM88.722 45h-2.407v-8.981h2.407V45zm-2.548-11.306c0-.36.119-.655.356-.888.244-.232.573-.348.988-.348.41 0 .736.116.98.348.243.233.365.529.365.888 0 .366-.124.664-.373.897-.244.232-.568.349-.972.349s-.73-.117-.98-.35c-.243-.232-.364-.53-.364-.896zm8.666 11.472c-1.317 0-2.391-.404-3.221-1.212-.825-.808-1.237-1.884-1.237-3.229v-.232c0-.902.174-1.708.523-2.416.349-.714.841-1.262 1.478-1.643.641-.388 1.372-.581 2.191-.581 1.229 0 2.194.387 2.897 1.162.708.774 1.063 1.873 1.063 3.295v.98h-5.72c.078.586.31 1.056.697 1.41.393.355.889.532 1.486.532.925 0 1.647-.335 2.167-1.005l1.179 1.32c-.36.51-.847.908-1.461 1.196a4.833 4.833 0 01-2.042.423zm-.274-7.371c-.476 0-.864.16-1.162.481-.294.321-.482.78-.565 1.378h3.337v-.19c-.011-.532-.155-.941-.432-1.23-.276-.292-.67-.44-1.178-.44zm8.209-3.985v2.209h1.536v1.76h-1.536v4.482c0 .332.064.57.191.714.127.143.371.215.731.215.265 0 .5-.019.705-.058v1.818a4.93 4.93 0 01-1.453.216c-1.682 0-2.54-.85-2.573-2.548v-4.84h-1.311v-1.76h1.311V33.81h2.399zm5.08 2.209l.075 1.037c.642-.802 1.502-1.203 2.581-1.203.952 0 1.661.279 2.125.838.465.559.703 1.394.714 2.507V45h-2.399v-5.744c0-.51-.11-.877-.332-1.104-.221-.233-.589-.349-1.104-.349-.675 0-1.181.288-1.519.864V45h-2.399v-8.981h2.258zM120.38 45a2.66 2.66 0 01-.241-.805c-.581.647-1.336.971-2.266.971-.88 0-1.61-.255-2.191-.764-.576-.509-.863-1.15-.863-1.925 0-.952.351-1.683 1.054-2.192.708-.509 1.729-.766 3.063-.772h1.104V39c0-.416-.108-.748-.324-.997-.21-.249-.545-.373-1.004-.373-.404 0-.722.097-.955.29-.227.194-.34.46-.34.797h-2.399c0-.52.16-1.001.481-1.444.321-.443.775-.789 1.362-1.038.586-.254 1.245-.382 1.975-.382 1.107 0 1.984.28 2.632.839.653.553.979 1.334.979 2.34v3.894c.006.852.125 1.497.357 1.934V45h-2.424zm-1.984-1.669c.354 0 .681-.077.98-.232.299-.16.52-.373.664-.639v-1.544h-.897c-1.201 0-1.84.415-1.917 1.245l-.008.141c0 .3.105.545.315.739.21.194.498.29.863.29zm8.143-7.312l.075 1.004c.636-.78 1.497-1.17 2.582-1.17 1.156 0 1.95.456 2.382 1.37.631-.914 1.53-1.37 2.698-1.37.974 0 1.699.285 2.174.855.476.564.714 1.416.714 2.556V45h-2.407v-5.727c0-.51-.1-.88-.299-1.113-.199-.238-.55-.357-1.054-.357-.719 0-1.217.343-1.494 1.03l.008 6.167h-2.399v-5.72c0-.52-.102-.896-.307-1.128-.205-.233-.553-.349-1.046-.349-.68 0-1.173.282-1.477.847V45h-2.399v-8.981h2.249zM25.225 26.144h29.22c2.123 0 3.844 1.752 3.844 3.913v17.219c0 2.161-1.721 3.913-3.845 3.913h-29.22c-2.123 0-3.844-1.752-3.844-3.913V30.057c0-2.161 1.721-3.913 3.845-3.913z" fill="#B0BCE2"/><path d="M58.29 30.537H21.38v6.151h36.91v-6.151zM32.914 42.84h-6.151a.769.769 0 010-1.538h6.151a.769.769 0 010 1.538zm4.614 3.076H26.763a.769.769 0 010-1.538h10.765a.769.769 0 010 1.538z" fill="#1C1F2D"/><mask id="a" fill="#fff"><path fill-rule="evenodd" clip-rule="evenodd" d="M39.66 22.41c.115-.863.175-1.743.175-2.637C39.835 8.853 30.982 0 20.062 0S.289 8.853.289 19.773c0 10.026 7.463 18.31 17.137 19.598v-9.163a7.8 7.8 0 017.799-7.799H39.66z"/></mask><path fill-rule="evenodd" clip-rule="evenodd" d="M39.66 22.41c.115-.863.175-1.743.175-2.637C39.835 8.853 30.982 0 20.062 0S.289 8.853.289 19.773c0 10.026 7.463 18.31 17.137 19.598v-9.163a7.8 7.8 0 017.799-7.799H39.66z" fill="#B0BCE2"/><path d="M39.66 22.41v.3h.263l.035-.261-.297-.04zM17.426 39.37l-.04.298.34.045v-.343h-.3zm22.109-19.598c0 .88-.059 1.747-.172 2.596l.595.08c.117-.876.177-1.77.177-2.676h-.6zM20.062.3c10.755 0 19.473 8.718 19.473 19.473h.6C40.135 8.687 31.148-.3 20.062-.3v.6zM.589 19.773C.59 9.018 9.308.3 20.062.3v-.6C8.976-.3-.011 8.687-.011 19.773h.6zm16.876 19.3C7.94 37.806.59 29.648.59 19.774h-.6c0 10.178 7.576 18.587 17.397 19.896l.08-.595zm.26.298v-9.163h-.6v9.163h.6zm0-9.163a7.5 7.5 0 017.5-7.499v-.6a8.1 8.1 0 00-8.1 8.1h.6zm7.5-7.499H39.66v-.6H25.225v.6z" fill="#000" fill-opacity=".4" mask="url(#a)"/><path fill-rule="evenodd" clip-rule="evenodd" d="M22.198 17.055l-2.133-6.567-2.134 6.567h-6.906l5.587 4.059-2.134 6.567 5.587-4.059.478.348a7.76 7.76 0 013.428-1.46l-.454-1.396 5.587-4.06h-6.905z" fill="#1C1F2D"/></g><defs><clipPath id="clip0"><path fill="#fff" transform="translate(.145)" d="M0 0h151v58H0z"/></clipPath></defs></svg>