<svg width="152" height="58" viewBox="0 0 152 58" fill="none" xmlns="http://www.w3.org/2000/svg"><g opacity=".2" clip-path="url(#clip0)"><path d="M77.368 24V11.914h4.234c1.466 0 2.579.282 3.337.847.758.559 1.137 1.38 1.137 2.465 0 .592-.152 1.115-.457 1.569a2.646 2.646 0 01-1.27.988c.62.155 1.107.467 1.461.938.36.47.54 1.046.54 1.726 0 1.162-.37 2.042-1.112 2.64-.742.598-1.799.902-3.171.913h-4.699zm2.49-5.263V22h2.134c.587 0 1.043-.139 1.37-.416.332-.282.498-.67.498-1.162 0-1.106-.573-1.668-1.719-1.685H79.86zm0-1.76h1.843c1.257-.022 1.885-.522 1.885-1.502 0-.548-.16-.94-.482-1.179-.315-.243-.816-.365-1.502-.365h-1.743v3.046zM93.274 24a2.663 2.663 0 01-.241-.805c-.581.647-1.336.971-2.266.971-.88 0-1.61-.255-2.192-.764-.575-.509-.863-1.15-.863-1.925 0-.952.352-1.683 1.054-2.192.709-.509 1.73-.766 3.063-.772h1.104v-.515c0-.415-.108-.747-.323-.996-.21-.249-.545-.373-1.005-.373-.404 0-.722.097-.954.29-.227.194-.34.46-.34.797h-2.4c0-.52.16-1.001.482-1.444.32-.443.775-.789 1.361-1.038.587-.254 1.245-.382 1.976-.382 1.106 0 1.984.28 2.631.839.653.553.98 1.334.98 2.34v3.894c.005.852.124 1.497.356 1.934V24h-2.423zm-1.984-1.669a2.1 2.1 0 00.98-.232c.298-.16.52-.373.663-.639v-1.544h-.896c-1.201 0-1.84.415-1.918 1.245l-.008.141a.96.96 0 00.316.739c.21.194.498.29.863.29zm8.101-7.312l.075 1.037c.642-.802 1.503-1.204 2.582-1.204.951 0 1.66.28 2.125.839.464.559.702 1.394.713 2.507V24h-2.398v-5.744c0-.51-.111-.877-.332-1.104-.222-.233-.59-.349-1.104-.349-.676 0-1.182.288-1.52.863V24h-2.398v-8.981h2.257zm10.584 5.379l-.863.863V24h-2.399V11.25h2.399v7.064l.464-.598 2.3-2.697h2.88l-3.245 3.743L115.037 24h-2.756l-2.307-3.602zm10.683 1.12c0-.293-.147-.523-.44-.689-.288-.171-.753-.324-1.394-.456-2.137-.449-3.205-1.356-3.205-2.723 0-.797.33-1.461.988-1.992.664-.537 1.53-.806 2.598-.806 1.14 0 2.051.269 2.731.806.687.537 1.03 1.234 1.03 2.092h-2.399c0-.344-.111-.626-.332-.847-.222-.227-.568-.34-1.038-.34-.404 0-.717.09-.938.273a.866.866 0 00-.332.698c0 .265.125.481.374.647.254.16.68.302 1.278.424.598.116 1.101.248 1.511.398 1.267.465 1.901 1.27 1.901 2.416 0 .819-.352 1.482-1.055 1.992-.702.503-1.61.755-2.722.755-.753 0-1.423-.133-2.009-.398-.581-.272-1.038-.64-1.37-1.104a2.584 2.584 0 01-.498-1.52h2.275c.022.427.179.753.473.98.293.227.686.34 1.178.34.46 0 .806-.085 1.038-.257a.821.821 0 00.357-.689zm7.745-2.092c0-.89.171-1.685.514-2.382a3.775 3.775 0 011.478-1.619c.647-.382 1.397-.573 2.249-.573 1.212 0 2.2.371 2.964 1.113.769.741 1.198 1.748 1.286 3.021l.017.615c0 1.378-.385 2.484-1.154 3.32-.769.83-1.801 1.245-3.096 1.245-1.295 0-2.33-.415-3.105-1.245-.769-.83-1.153-1.96-1.153-3.387v-.108zm2.399.175c0 .852.16 1.505.481 1.959.321.448.78.672 1.378.672.581 0 1.035-.221 1.361-.664.327-.448.49-1.162.49-2.142 0-.835-.163-1.483-.49-1.942-.326-.46-.786-.69-1.378-.69-.586 0-1.04.23-1.361.69-.321.454-.481 1.16-.481 2.117zM139.043 24v-7.222h-1.336v-1.76h1.336v-.763c0-1.007.288-1.788.863-2.34.582-.56 1.392-.84 2.433-.84.332 0 .738.056 1.22.167l-.025 1.86a3.06 3.06 0 00-.731-.076c-.902 0-1.353.424-1.353 1.27v.723h1.785v1.76h-1.785V24h-2.407zm-52.577 9.931h-3.702V44h-2.49V33.931H76.62v-2.017h9.845v2.017zm3.61 2.067c.637-.764 1.437-1.145 2.4-1.145 1.948 0 2.936 1.131 2.963 3.395V44H93.04v-5.686c0-.515-.11-.894-.332-1.137-.221-.25-.59-.374-1.104-.374-.703 0-1.212.271-1.527.814V44h-2.399V31.25h2.399v4.748zM102.454 44a2.66 2.66 0 01-.24-.805c-.581.647-1.337.971-2.266.971-.88 0-1.61-.255-2.192-.764-.575-.509-.863-1.15-.863-1.925 0-.952.351-1.683 1.054-2.192.708-.509 1.73-.766 3.063-.772h1.104V38c0-.416-.108-.748-.324-.997-.21-.249-.545-.373-1.004-.373-.404 0-.722.097-.955.29-.227.194-.34.46-.34.797h-2.399c0-.52.16-1.001.482-1.444.32-.443.774-.789 1.36-1.038.587-.254 1.246-.382 1.976-.382 1.107 0 1.984.28 2.632.839.653.553.979 1.334.979 2.34v3.894c.006.852.125 1.497.357 1.934V44h-2.424zm-1.984-1.669c.355 0 .681-.077.98-.232.299-.16.52-.373.664-.639v-1.544h-.896c-1.201 0-1.84.415-1.918 1.245l-.008.141a.96.96 0 00.315.739c.21.194.498.29.863.29zM108.895 44h-2.407v-8.981h2.407V44zm-2.549-11.306c0-.36.119-.655.357-.888.244-.232.573-.349.988-.349.41 0 .736.117.98.35.243.232.365.528.365.887 0 .366-.125.664-.374.897-.243.232-.567.349-.971.349s-.73-.117-.979-.35c-.244-.232-.366-.53-.366-.896zM113.41 44h-2.407V31.25h2.407V44zm7.189 0a2.66 2.66 0 01-.241-.805c-.581.647-1.336.971-2.266.971-.88 0-1.61-.255-2.191-.764-.576-.509-.864-1.15-.864-1.925 0-.952.352-1.683 1.055-2.192.708-.509 1.729-.766 3.063-.772h1.104V38c0-.416-.108-.748-.324-.997-.21-.249-.545-.373-1.005-.373-.404 0-.722.097-.954.29-.227.194-.341.46-.341.797h-2.398c0-.52.16-1.001.481-1.444.321-.443.775-.789 1.361-1.038.587-.254 1.245-.382 1.976-.382 1.107 0 1.984.28 2.631.839.653.553.98 1.334.98 2.34v3.894c.005.852.124 1.497.357 1.934V44h-2.424zm-1.984-1.669c.354 0 .681-.077.979-.232a1.58 1.58 0 00.665-.639v-1.544h-.897c-1.201 0-1.84.415-1.917 1.245l-.009.141c0 .3.105.545.316.739.21.194.498.29.863.29zm8.102-7.312l.074 1.037c.642-.802 1.503-1.203 2.582-1.203.952 0 1.66.279 2.125.838.465.559.703 1.394.714 2.507V44h-2.399v-5.744c0-.51-.111-.877-.332-1.104-.222-.233-.59-.349-1.104-.349-.675 0-1.182.288-1.519.864V44h-2.399v-8.981h2.258zm6.947 4.424c0-1.4.313-2.515.938-3.345.631-.83 1.492-1.245 2.582-1.245.874 0 1.596.326 2.166.979V31.25h2.408V44h-2.167l-.116-.955c-.598.747-1.367 1.121-2.308 1.121-1.057 0-1.906-.415-2.548-1.245-.636-.836-.955-1.995-.955-3.478zm2.399.174c0 .841.147 1.486.44 1.934.293.448.72.673 1.278.673.742 0 1.265-.313 1.569-.938V37.74c-.298-.625-.816-.938-1.552-.938-1.156 0-1.735.938-1.735 2.814zM27.05 27.144h29.22c2.122 0 3.844 1.752 3.844 3.913v17.219c0 2.161-1.721 3.913-3.845 3.913H27.05c-2.123 0-3.844-1.752-3.844-3.913V31.057c0-2.161 1.721-3.913 3.845-3.913z" fill="#B0BCE2"/><path d="M60.114 31.757h-36.91v6.152h36.91v-6.152zM34.739 44.06h-6.152a.769.769 0 010-1.537h6.152a.769.769 0 010 1.538zm4.613 3.076H28.587a.769.769 0 010-1.538h10.765a.769.769 0 010 1.538z" fill="#1C1F2D"/><mask id="a" maskUnits="userSpaceOnUse" x="1.114" y="0" width="42" height="41" fill="#000"><path fill="#fff" d="M1.114 0h42v41h-42z"/><path fill-rule="evenodd" clip-rule="evenodd" d="M41.485 23.41c.115-.863.174-1.743.174-2.637C41.66 9.853 32.807 1 21.887 1 10.967 1 2.114 9.853 2.114 20.773c0 10.026 7.462 18.31 17.136 19.598v-9.163a7.8 7.8 0 017.8-7.799h14.435z"/></mask><path fill-rule="evenodd" clip-rule="evenodd" d="M41.485 23.41c.115-.863.174-1.743.174-2.637C41.66 9.853 32.807 1 21.887 1 10.967 1 2.114 9.853 2.114 20.773c0 10.026 7.462 18.31 17.136 19.598v-9.163a7.8 7.8 0 017.8-7.799h14.435z" fill="#B0BCE2"/><path d="M41.485 23.41v.5h.438l.058-.435-.496-.066zM19.25 40.37l-.066.496.566.075v-.57h-.5zm21.91-19.598c0 .872-.059 1.73-.17 2.57l.99.132c.118-.884.18-1.786.18-2.702h-1zM21.886 1.5c10.644 0 19.272 8.629 19.272 19.273h1C42.16 9.576 33.083.5 21.887.5v1zM2.614 20.773C2.614 10.129 11.242 1.5 21.887 1.5v-1C10.69.5 1.614 9.576 1.614 20.773h1zm16.702 19.103c-9.428-1.257-16.702-9.33-16.702-19.103h-1c0 10.28 7.651 18.772 17.57 20.094l.132-.991zm.434.495v-9.163h-1v9.163h1zm0-9.163a7.3 7.3 0 017.3-7.299v-1a8.3 8.3 0 00-8.3 8.3h1zm7.3-7.299h14.435v-1H27.049v1z" fill="#B0BCE2" mask="url(#a)"/><path fill-rule="evenodd" clip-rule="evenodd" d="M3.344 13.895h37.085a19.73 19.73 0 011.23 6.877c0 .894-.06 1.775-.174 2.637H27.049a7.799 7.799 0 00-6.941 4.24H3.344a19.728 19.728 0 01-1.23-6.877c0-2.418.435-4.735 1.23-6.877z" fill="#1C1F2D"/><path d="M21.886 1C15.893 1 10.524 3.667 6.897 7.877h29.978C33.249 3.667 27.879 1 21.886 1z" fill="#1C1F2D"/><path fill-rule="evenodd" clip-rule="evenodd" d="M19.25 33.667H6.897a19.74 19.74 0 0012.353 6.704v-6.704z" fill="#1C1F2D"/></g><defs><clipPath id="clip0"><path fill="#fff" transform="translate(.145)" d="M0 0h151v58H0z"/></clipPath></defs></svg>