<svg width="170" height="222" viewBox="0 0 170 222" fill="none" xmlns="http://www.w3.org/2000/svg"><path opacity=".1" fill="#363945" d="M84 0h1v222h-1z"/><circle cx="85" cy="111" r="30" fill="#fff"/><g clip-path="url(#clip0)"><path d="M94.962 113.371a.938.938 0 00-1.738.702l1.104 2.732-3.28-1.446a.935.935 0 00-.745-.004 9.043 9.043 0 01-3.569.72c-5.019 0-8.39-3.929-8.39-7.6 0-4.191 3.764-7.6 8.39-7.6 4.627 0 8.391 3.409 8.391 7.6 0 .327-.03.718-.083 1.074a.938.938 0 001.854.277c.067-.45.104-.93.104-1.351 0-2.547-1.078-4.936-3.037-6.728C92.028 99.975 89.461 99 86.735 99c-2.727 0-5.294.975-7.23 2.747-1.75 1.601-2.796 3.68-2.999 5.921-2.201 1.458-3.506 3.794-3.506 6.31 0 1.571.495 3.063 1.438 4.346l-1.37 3.387a.938.938 0 001.248 1.209l3.948-1.74c.993.37 2.043.557 3.127.557a.796.796 0 00.07-.004 8.879 8.879 0 004.41-1.195 8.071 8.071 0 002.836-2.762c.666-.12 1.316-.3 1.948-.542l5.03 2.218a.945.945 0 001.03-.185.938.938 0 00.217-1.025l-1.97-4.871zm-13.571 6.488l-.038.002a7.037 7.037 0 01-2.74-.56.939.939 0 00-.745.004l-2.196.968.708-1.752a.937.937 0 00-.155-.959c-.883-1.036-1.35-2.275-1.35-3.584 0-1.499.63-2.918 1.733-3.994.343 1.871 1.312 3.661 2.773 5.068 1.819 1.75 4.224 2.764 6.82 2.886-1.218 1.2-2.963 1.921-4.81 1.921z" fill="#7E859D"/><path d="M89.031 110.297a.938.938 0 00-.937-.938h-5.625a.938.938 0 000 1.875h5.625a.937.937 0 00.937-.937zm-6.562-2.813h8.437a.937.937 0 100-1.875H82.47a.938.938 0 000 1.875z" fill="#35B972"/></g><defs><clipPath id="clip0"><path fill="#fff" transform="translate(73 99)" d="M0 0h24v24H0z"/></clipPath></defs></svg>