<svg width="126" height="58" viewBox="0 0 126 58" fill="none" xmlns="http://www.w3.org/2000/svg"><g opacity=".2" fill-rule="evenodd" clip-rule="evenodd" fill="#B0BCE2"><path d="M2 25.61l10.46 13.195L2 47.474V25.609zm4.21 21.864l7.872-6.585 5.44 6.585H6.21zM2 18.548l2.73 3.453 11.224 14.026 3.637-2.896s-3.02-3.555-5.047-7.522c-3.963-7.756-1.157-12.584-1.157-12.584H2v5.523zm15.555 19.644l3.704-3.06s3.538 4.657 7.64 5.757c5.376 1.44 7.756-2.084 7.756-2.084v8.668H24.848l2.662-2.301s-1.389.925-4.786-1.428c-2.005-1.388-5.169-5.552-5.169-5.552zM17.896 13s-1.182 1.61-.34 5.548c.898 4.21 4.474 8.666 4.465 8.566 0 0 .23-4.424 2.827-7.02 5.534-5.535 11.806-2.24 11.806-2.24v-4.829L17.896 13z"/><path d="M36.654 23.688s-3.5-2.998-6.542-2.998c-3.893 0-6.017 3.36-6.017 5.798 0 3.55 1.704 5.523 3.415 7.234 2.458 2.458 5.448 5.11 9.144 2.975v-13.01zM76.51 13.36h8.26s7.315 11.078 10.91 15.655a526.732 526.732 0 017.466 9.79V15.84c0-.991-2.604-2.48-2.604-2.48h9.524s-3.125 1.283-3.125 2.48v33.407s-2.998-1.663-6.399-5.614c-3.82-4.44-17.41-22.361-17.41-22.361v23.213c0 1.189 2.605 2.987 2.605 2.987H76.51s2.53-1.813 2.53-2.987V15.841c0-1.054-2.53-2.48-2.53-2.48zm38.891 0H126s-2.846 1.349-2.846 2.481v28.645c0 1.238 2.846 2.987 2.846 2.987h-10.599s2.65-1.79 2.65-2.987V15.841c0-1.089-2.65-2.48-2.65-2.48zm-70.073 0s2.748 1.37 2.748 2.481v28.645c0 1.218-2.748 2.987-2.748 2.987H61.03c.982 0 11.974-1.797 11.974-10.272 0-8.474-8.539-9.267-8.539-9.267s5.202-1.446 5.202-7.244c0-6.25-7.655-7.33-8.637-7.33H45.328zm8.342 14.012V16.707h6.379c.981 0 4.416 1.146 4.416 5.398 0 3.504-3.435 5.267-4.416 5.267h-6.38zm0 2.797h7.36c.982 0 6.772 1.504 6.772 6.528 0 5.122-5.79 6.937-6.772 6.937h-7.36V30.169z"/></g></svg>