<svg width="24" height="25" viewBox="0 0 24 25" fill="none" xmlns="http://www.w3.org/2000/svg"><g clip-path="url(#clip0)"><path d="M21.962 14.374a.937.937 0 10-1.738.703l1.104 2.731-3.28-1.445a.937.937 0 00-.745-.005 9.042 9.042 0 01-3.569.72c-5.019 0-8.39-3.93-8.39-7.6 0-4.19 3.764-7.6 8.39-7.6 4.627 0 8.39 3.41 8.39 7.6 0 .327-.03.719-.083 1.075a.938.938 0 101.855.276c.067-.45.104-.93.104-1.35 0-2.547-1.079-4.937-3.037-6.729C19.028.979 16.461.003 13.734.003 11.008.003 8.44.98 6.505 2.75c-1.75 1.602-2.796 3.68-3 5.922C1.306 10.129 0 12.465 0 14.982a7.27 7.27 0 001.438 4.345l-1.37 3.387a.938.938 0 001.247 1.21l3.949-1.74a8.936 8.936 0 003.126.556c.024 0 .047-.002.07-.003a8.874 8.874 0 004.41-1.196 8.069 8.069 0 002.837-2.762c.665-.12 1.316-.3 1.947-.541l5.03 2.217a.934.934 0 001.03-.185.937.937 0 00.217-1.024l-1.969-4.872zM8.39 20.863l-.038.002a7.03 7.03 0 01-2.739-.56.937.937 0 00-.746.004l-2.195.968.708-1.752a.938.938 0 00-.156-.96c-.883-1.036-1.35-2.275-1.35-3.584 0-1.498.631-2.918 1.734-3.994.343 1.871 1.312 3.662 2.773 5.068 1.818 1.75 4.223 2.764 6.82 2.886-1.219 1.2-2.964 1.922-4.81 1.922z" fill="#7E859D"/><path d="M16.031 11.3a.937.937 0 00-.937-.937H9.469a.937.937 0 100 1.875h5.625c.517 0 .937-.42.937-.938zM9.469 8.488h8.437a.937.937 0 100-1.875H9.469a.937.937 0 100 1.875z" fill="#35B972"/></g><defs><clipPath id="clip0"><path fill="#fff" d="M0 .003h24v24H0z"/></clipPath></defs></svg>