<svg width="24" height="24" viewBox="0 0 24 24" fill="none" xmlns="http://www.w3.org/2000/svg"><g clip-path="url(#clip0)"><path d="M23.986 20.528a.938.938 0 00-1.836.382.957.957 0 01-.195.812.955.955 0 01-.753.356h-2.728l1.509-1.727a.938.938 0 00-.027-1.263l-2.022-2.126 1.171-1.466a10.317 10.317 0 011.491 1.76.937.937 0 101.558-1.044 12.18 12.18 0 00-2.509-2.73 1.02 1.02 0 00-.167-.132 12.134 12.134 0 00-3.616-1.918 6.37 6.37 0 002.56-5.104 6.382 6.382 0 00-6.375-6.375 6.382 6.382 0 00-6.375 6.375 6.37 6.37 0 002.561 5.106 12.178 12.178 0 00-3.929 2.159 12.231 12.231 0 00-4.196 6.925 2.847 2.847 0 002.784 3.435h4.795c.03 0 .06-.002.09-.004l.03-.004a1.08 1.08 0 00.057-.009l.036-.008a.955.955 0 00.213-.078l.035-.018a.977.977 0 00.075-.048c.013-.008.025-.018.037-.027l.034-.027.01-.009c.008-.006.014-.013.02-.019l.038-.036.03-.033a.724.724 0 00.03-.035l.028-.039a1.063 1.063 0 00.05-.076l.02-.038a.708.708 0 00.054-.125.964.964 0 00.014-.047.821.821 0 00.035-.23l.002-.027v-.013c0-.018-.002-.035-.003-.053l-.003-.04-.008-.05-.007-.042-.012-.046c-.004-.014-.007-.029-.012-.043l-.015-.042c-.006-.015-.01-.03-.017-.043l-.02-.04-.02-.043-.022-.036c-.01-.014-.018-.029-.028-.042l-.023-.032a.89.89 0 00-.034-.042l-.007-.01-2.305-2.638 1.997-2.1a.937.937 0 00.053-1.23L6.47 14.342a10.308 10.308 0 014.526-1.593l-1.785 7.854a.937.937 0 00.207.823l1.875 2.157a.938.938 0 001.415 0l1.874-2.157a.937.937 0 00.207-.823l-1.787-7.865c1.666.155 3.25.71 4.628 1.6l-1.67 2.092a.938.938 0 00.053 1.232l1.997 2.099-2.305 2.638a.937.937 0 00.706 1.554h4.792c.862 0 1.666-.382 2.208-1.048a2.837 2.837 0 00.576-2.377zm-16.44-14.2c0-2.481 2.02-4.5 4.5-4.5 2.482 0 4.5 2.019 4.5 4.5a4.506 4.506 0 01-4.276 4.494 12.766 12.766 0 00-.442 0 4.506 4.506 0 01-4.281-4.494zM6.164 16.962l-2.022 2.126a.937.937 0 00-.027 1.263l1.51 1.727H2.891a.953.953 0 01-.75-.356.98.98 0 01-.199-.822 10.26 10.26 0 013.048-5.404l1.172 1.466zM12 21.54l-.855-.984.855-3.764.855 3.764-.855.984z" fill="#7E859D"/></g><defs><clipPath id="clip0"><path fill="#fff" d="M0 0h24v24H0z"/></clipPath></defs></svg>