<svg width="139" height="58" viewBox="0 0 139 58" fill="none" xmlns="http://www.w3.org/2000/svg"><g clip-path="url(#clip0)"><g opacity=".2"><path d="M39.575 10.732H0v36.536h39.575V10.732z" fill="#B0BCE2"/><path fill-rule="evenodd" clip-rule="evenodd" d="M4.986 17.1h21.2l10.61 11.837-10.61 12.94h-21.2l9.497-12.94L4.986 17.1z" fill="#1C1F2D" stroke="#B0BCE2" stroke-width="1.97"/><path fill-rule="evenodd" clip-rule="evenodd" d="M36.795 28.937L26.186 17.1h-21.2l9.363 11.837h22.446z" fill="#1C1F2D" stroke="#B0BCE2" stroke-width="1.97"/></g><path d="M67.197 23.09c-1.094-1.282-2.672-2.018-4.708-2.018-4.152 0-7.21 3.337-7.21 7.928 0 4.592 3.058 7.928 7.03 7.928 2.216 0 4.01-.978 5.13-2.646l4.574 3.372c-2.072 2.924-5.587 4.278-9.004 4.278-7.766 0-13.434-5.04-13.434-12.932s5.659-12.932 13.434-12.932c2.78 0 6.296.942 8.403 3.614l-4.215 3.408zm7.73-6.394h5.489v24.617h-5.489V16.696zm10.475 0h8.295l5.73 16.061h.072l5.767-16.061h8.259v24.617h-5.488V22.435h-.072l-6.537 18.887H97.24l-6.296-18.887h-.072v18.887h-5.488V16.696h.018zm33.19 0h9.282c4.358 0 9.102.906 9.102 6.26 0 2.744-1.722 4.627-4.286 5.425v.072c3.273.421 5.452 2.816 5.452 6.017 0 5.148-4.923 6.852-9.353 6.852h-10.197V16.696zm5.488 9.838h3.973c1.686 0 3.444-.7 3.444-2.682 0-2.053-1.973-2.573-3.695-2.573h-3.731v5.255h.009zm0 10.187h4.924c1.722 0 3.659-.726 3.659-2.887 0-2.332-2.637-2.709-4.43-2.709h-4.153v5.596z" opacity=".2" fill="#B0BCE2"/></g><defs><clipPath id="clip0"><path fill="#fff" d="M0 0h138.142v58H0z"/></clipPath></defs></svg>