<svg width="191" height="58" viewBox="0 0 191 58" fill="none" xmlns="http://www.w3.org/2000/svg"><g opacity=".2"><path d="M25.964 7.001c13.009 0 23.58 10.292 23.536 22.978-.059 13.503-11.52 23.106-23.668 23.02-12.702-.086-23.42-10.564-23.331-23.192C2.588 17.666 12.88 6.858 25.964 7zm20.718 23.007c0-11.253-9.257-20.383-20.718-20.326C13.977 9.739 5.23 19.4 5.304 30.079c.087 11.11 9.271 20.14 20.674 20.154 11.476.014 20.69-8.987 20.704-20.225z" fill="#B0BCE2"/><path d="M46.5 29.544C46.5 40.91 37.374 50 25.979 50 14.684 50 5.587 40.852 5.5 29.616 5.428 18.816 14.09 9.058 25.964 9 37.317 8.942 46.5 18.163 46.5 29.544zm-19.321 13.12c3.731-.116 7.332-2 10.05-5.625.276-.363.305-.58-.1-.87-.709-.493-1.374-1.058-2.068-1.566-.897-.666-.897-.652-1.548.247-2.343 3.262-6.406 4.538-10.007 3.146-3.66-1.406-5.858-5.045-5.655-9.337.246-5.262 5.09-9.046 10.253-8.046 2.199.435 3.847 1.696 5.207 3.378.347.42.535.536.969.102.68-.682 1.388-1.349 2.154-1.929.593-.45.507-.754.058-1.232-3.08-3.378-6.87-4.944-11.425-4.48-6.536.667-11.352 5.712-11.757 12.25-.477 7.525 5.495 13.904 13.869 13.962z" fill="#1C1F2D"/><path d="M27.326 43c-8.323-.043-14.274-6.366-13.8-13.806.417-6.466 5.204-11.456 11.687-12.115 4.528-.459 8.294 1.09 11.356 4.43.431.473.517.774-.058 1.219-.762.573-1.466 1.233-2.142 1.906-.43.43-.618.316-.963-.1-1.365-1.663-2.99-2.91-5.174-3.34-5.132-.99-9.948 2.752-10.192 7.957-.201 4.243 1.984 7.842 5.62 9.232 3.594 1.377 7.633.115 9.948-3.11.647-.89.647-.904 1.538-.244.69.516 1.35 1.06 2.055 1.548.403.287.36.502.1.86-2.673 3.585-6.266 5.448-9.975 5.563zM66.88 24.285a8.798 8.798 0 012.631-1.392c.933-.302 2.065-.453 3.397-.453 1.332 0 2.498.291 3.496.874 1.022.582 1.532 1.208 1.532 1.877 0 .82-.477 1.284-1.432 1.392-.222-.475-.721-.907-1.498-1.295-.777-.41-1.698-.615-2.764-.615-1.487 0-2.72.518-3.696 1.554-.977 1.014-1.466 2.502-1.466 4.466 0 1.963.5 3.462 1.499 4.498.999 1.035 2.198 1.553 3.596 1.553 2.22 0 3.719-.7 4.496-2.103.422 0 .777.13 1.066.388.288.237.432.55.432.939 0 .755-.532 1.445-1.598 2.07-1.066.605-2.287.907-3.663.907-1.354 0-2.509-.151-3.463-.453a8.955 8.955 0 01-2.598-1.424c-.799-.647-1.431-1.51-1.898-2.589-.466-1.079-.699-2.33-.699-3.754 0-1.446.233-2.719.7-3.819.488-1.122 1.132-1.995 1.93-2.621zm16.222.323c1.576-1.445 3.507-2.168 5.794-2.168 2.287 0 4.218.723 5.794 2.168 1.576 1.446 2.364 3.485 2.364 6.117s-.788 4.66-2.364 6.084c-1.576 1.424-3.507 2.136-5.794 2.136-2.287 0-4.218-.712-5.794-2.136-1.577-1.424-2.365-3.452-2.365-6.084 0-2.632.788-4.671 2.365-6.117zm9.623 1.65c-.976-1.056-2.253-1.585-3.83-1.585-1.575 0-2.863.529-3.862 1.586-.977 1.035-1.465 2.524-1.465 4.466 0 1.92.488 3.409 1.465 4.466 1 1.035 2.287 1.553 3.863 1.553s2.853-.517 3.83-1.553c.998-1.057 1.498-2.546 1.498-4.466 0-1.942-.5-3.43-1.499-4.466zm9.998-3.527h.199c.844 0 1.266.4 1.266 1.198v13.527c0 .82-.422 1.23-1.266 1.23h-.199c-.844 0-1.266-.41-1.266-1.23V23.93c0-.798.422-1.198 1.266-1.198zm-1.732-4.563c0-.496.178-.917.533-1.262.355-.367.777-.55 1.265-.55.511 0 .944.183 1.299.55.377.345.566.766.566 1.262 0 .475-.178.896-.533 1.262a1.793 1.793 0 01-1.298.518 1.79 1.79 0 01-1.299-.518 1.694 1.694 0 01-.533-1.262zm9.881 4.563h.233c.843 0 1.265.41 1.265 1.23v1.586c.422-.82 1.088-1.543 1.998-2.168.91-.626 1.954-.939 3.13-.939 1.799 0 3.264.529 4.396 1.586 1.154 1.035 1.732 2.686 1.732 4.951v8.48c0 .43-.1.744-.3.938-.2.194-.522.291-.966.291h-.266c-.822 0-1.232-.41-1.232-1.23v-8.382c0-1.575-.344-2.696-1.033-3.365-.688-.67-1.687-1.003-2.997-1.003-1.309 0-2.375.517-3.196 1.553-.822 1.035-1.232 2.405-1.232 4.11v7.087c0 .82-.433 1.23-1.299 1.23h-.233c-.444 0-.766-.097-.966-.291-.2-.194-.3-.507-.3-.939V23.961c0-.82.422-1.23 1.266-1.23zm16.604 4.434c0-1.467.644-2.621 1.932-3.463 1.31-.863 2.764-1.294 4.362-1.294 1.599 0 2.831.226 3.696.68.888.43 1.332.949 1.332 1.553s-.432 1.046-1.298 1.327c-.156-.346-.589-.67-1.299-.971-.688-.302-1.543-.453-2.564-.453-1.021 0-1.865.194-2.531.582-.644.367-.966.896-.966 1.586 0 .669.245 1.187.733 1.553.488.367 1.632.755 3.43 1.165 1.82.389 3.208.96 4.162 1.716.955.755 1.432 1.812 1.432 3.171 0 1.36-.643 2.47-1.931 3.334-1.288.84-2.875 1.262-4.762 1.262-1.865 0-3.363-.227-4.495-.68-1.11-.475-1.665-1.09-1.665-1.845 0-.755.366-1.305 1.098-1.65.311.582.911 1.079 1.799 1.489.888.41 1.998.614 3.33.614s2.342-.237 3.03-.712c.71-.474 1.066-1.057 1.066-1.747 0-.712-.322-1.262-.966-1.65-.622-.41-1.854-.81-3.696-1.198-1.821-.388-3.153-.938-3.996-1.65-.822-.734-1.233-1.64-1.233-2.719zm15.814 9.676c0-.625.211-1.132.633-1.52.422-.389.932-.583 1.532-.583.621 0 1.143.194 1.565.582.422.389.633.896.633 1.521 0 .626-.211 1.133-.633 1.521-.422.389-.944.583-1.565.583-.6 0-1.11-.194-1.532-.583-.422-.388-.633-.895-.633-1.52zm10.181-14.11h.234c.843 0 1.265.378 1.265 1.133v1.262c.466-.755 1.165-1.391 2.098-1.91a6.137 6.137 0 013.03-.776c2.065 0 3.73.68 4.995 2.039 1.288 1.338 1.932 3.387 1.932 6.149 0 2.74-.755 4.811-2.265 6.213-1.487 1.403-3.319 2.104-5.494 2.104-1.488 0-2.92-.367-4.296-1.1v6.958c0 .798-.422 1.197-1.265 1.197h-.234c-.843 0-1.265-.4-1.265-1.197V23.929c0-.798.422-1.198 1.265-1.198zm10.79 7.864c0-2.05-.444-3.538-1.332-4.466-.888-.949-2.087-1.424-3.597-1.424-1.509 0-2.619.648-3.33 1.942-.688 1.295-1.032 2.978-1.032 5.049v4.045c.222.151.766.356 1.632.615a10.28 10.28 0 002.664.356c1.487 0 2.686-.507 3.596-1.521.932-1.014 1.399-2.546 1.399-4.596zM172.496 16h.233c.844 0 1.266.41 1.266 1.23v8.738c.377-.95 1.021-1.759 1.931-2.427.91-.67 1.976-1.004 3.197-1.004 1.865 0 3.352.518 4.462 1.554 1.11 1.014 1.665 2.664 1.665 4.951v8.414c0 .432-.1.745-.3.939-.2.194-.521.291-.965.291h-.267c-.821 0-1.232-.41-1.232-1.23v-8.252c0-2.999-1.332-4.498-3.996-4.498-1.398 0-2.497.56-3.297 1.682-.777 1.122-1.165 2.535-1.165 4.24v6.828c0 .82-.433 1.23-1.299 1.23h-.233c-.444 0-.766-.097-.966-.291-.199-.194-.299-.507-.299-.939V17.23c0-.82.422-1.23 1.265-1.23z" fill="#B0BCE2"/></g></svg>