<svg width="154" height="58" viewBox="0 0 154 58" fill="none" xmlns="http://www.w3.org/2000/svg"><path d="M5.386 36.37c.158-.027.282-.053.405-.053 2.099.008 4.206-.027 6.305.053 3.28.123 4.823 1.421 5.414 4.662.467 2.579.476 5.184-.07 7.762-.547 2.534-1.79 3.868-4.339 4.133-2.53.256-5.097.176-7.698.247-.017-5.696-.017-11.241-.017-16.804zm3.756 14.128c.714 0 1.35.035 1.993-.009 1.64-.097 2.442-.838 2.725-2.463.361-2.11.326-4.23.079-6.35-.159-1.315-.608-2.49-2.099-2.746-.864-.15-1.763-.097-2.69-.14-.008 3.946-.008 7.779-.008 11.708zm49.203 2.551v-11.62h3.413c.061.3.132.617.22 1.077.864-1.042 1.922-1.466 3.175-1.387 1.252.08 2.31.495 2.98 1.696.141-.142.256-.256.353-.38 1.19-1.386 3.28-1.757 4.867-.848.856.486 1.297 1.245 1.305 2.199.036 2.65.027 5.29.036 7.938v1.299h-3.51c-.009-.195-.026-.416-.026-.636-.027-2.623-.027-5.254-.088-7.877-.027-1.086-.415-1.475-1.217-1.457-.838.027-1.517.689-1.535 1.58-.035 1.643-.017 3.294-.026 4.937v3.461h-3.589v-.706c-.009-2.56-.018-5.13-.035-7.691-.01-1.13-.37-1.572-1.235-1.58-.882 0-1.517.635-1.525 1.624-.018 2.543-.01 5.086-.01 7.63v.715c-1.198.026-2.345.026-3.553.026zm-15.285.018h-3.554v-2.11c-.017-2.146-.009-4.292-.053-6.438-.017-1.033-.423-1.457-1.234-1.448-.847.009-1.482.6-1.49 1.51-.036 2.42-.027 4.83-.045 7.25 0 .415-.035.82-.052 1.253h-3.484V41.438h3.395c.062.318.124.636.194 1.016 1.288-1.325 2.77-1.599 4.445-1.095 1.155.353 1.834 1.183 1.86 2.322.07 3.1.018 6.208.018 9.387zm57.074-.026h-3.571v-.662c0-2.358 0-4.707-.01-7.064a6.13 6.13 0 00-.078-1.06c-.133-.83-.45-1.157-1.111-1.183-.75-.036-1.411.441-1.561 1.165-.062.3-.08.618-.08.927 0 2.438 0 4.875.027 7.312.009.45-.088.636-.582.618-.97-.035-1.949-.009-3.007-.009V41.42h3.448c.035.31.07.627.106 1.016.158-.115.273-.185.37-.274 1.155-1.13 2.548-1.236 4.003-.848 1.305.345 1.975 1.184 2.02 2.738.07 2.958.026 5.916.026 8.99zm-12.372-5.739c-.106.83-.176 1.846-.37 2.844-.335 1.766-1.297 2.64-3.069 2.984-1.517.3-3.007.283-4.497-.168-1.129-.335-1.896-1.06-2.222-2.172-.662-2.243-.75-4.512-.124-6.773.423-1.536 1.49-2.472 3.051-2.667 1.164-.14 2.372-.211 3.527-.07 2.028.238 3.184 1.519 3.483 3.585.097.75.133 1.501.221 2.437zm-7.151-.247c.114.883.211 2.128.467 3.338.176.83.952 1.139 1.772.892.697-.203.962-.724 1.076-1.387.291-1.757.282-3.514.027-5.28-.133-.919-.618-1.422-1.464-1.501-.794-.071-1.376.353-1.579 1.28-.158.75-.176 1.519-.3 2.658zm-24.906 6.04c-.89 0-1.825.018-2.76-.018-.132-.008-.308-.212-.37-.362-.097-.247-.123-.52-.194-.848-.141.089-.256.16-.362.239-1.172.883-2.504 1.21-3.941.998-1.684-.248-2.787-1.82-2.68-3.727.114-2.04 1.313-3.232 3.703-3.602 1.023-.16 2.054-.212 3.157-.318-.027-.539-.018-1.078-.098-1.607-.096-.645-.546-1.016-1.19-1.095-.714-.098-1.42.23-1.702.785-.114.239-.185.504-.29.813h-3.246c.124-1.625.856-2.526 2.522-2.932a10.24 10.24 0 014.824-.035c1.648.388 2.442 1.369 2.46 3.064.026 1.607-.018 3.205.009 4.813.026 1.254.105 2.516.158 3.832zm-3.28-4.866c-.115-1.024-.115-1.024-1.111-.927-.203.018-.414.036-.617.062-1.394.186-2.046 1.033-1.87 2.42.106.865.468 1.342 1.12 1.465.767.15 1.552-.159 1.878-.9.283-.671.406-1.413.6-2.12zM30.43 53.105c-.838 0-1.746.018-2.663-.018-.15-.008-.344-.22-.415-.388-.106-.239-.132-.512-.203-.83-.167.115-.3.203-.432.291-1.322.9-2.76 1.254-4.32.813-.388-.106-.768-.327-1.085-.583-1.552-1.254-1.834-5.237 1.05-6.155 1.234-.389 2.556-.486 3.844-.698.238-.044.494-.008.732-.008.379-1.272-.053-2.473-.944-2.729-1.058-.3-1.825.23-2.213 1.545h-3.254c.026-1.086.397-1.942 1.376-2.463 1.472-.795 3.068-.848 4.682-.69.697.072 1.402.213 2.046.46.952.37 1.56 1.095 1.605 2.181.044 1.06.079 2.12.105 3.18.027 1.995.053 3.99.089 6.092zm-3.316-4.936c-.035-.954-.044-.963-1.005-.857-.45.053-.9.124-1.34.248-.644.176-.997.653-1.156 1.271-.273 1.06.203 2.19 1.006 2.41.978.266 1.904-.317 2.24-1.483.15-.512.176-1.06.255-1.59zm-2.869-36.753v6.307H0V6l24.245 5.416zm29.245 6.307H25.25v-6.307l28.239 6.307zm0-1l-28.24-6.307V5l28.24 11.723zm100.032.999v22.013L115 31.128V17.722h38.522zm-40.04 0v13.406L53.494 17.722h59.988zm0 14.684v8.607L53.494 19l59.988 13.406z" opacity=".2" fill="#B0BCE2"/></svg>