<svg width="24" height="24" viewBox="0 0 24 24" fill="none" xmlns="http://www.w3.org/2000/svg"><path d="M23.063 12.938a.937.937 0 100-1.876h-10.08V7.267a2.346 2.346 0 00-2.343-2.344h-.844a2.346 2.346 0 00-2.344 2.344v3.796H5.625V2.345A2.346 2.346 0 003.281 0h-.937A2.346 2.346 0 000 2.344V12c0 .518.42.938.938.938h10.171v4.03a2.346 2.346 0 002.344 2.345h.844a2.346 2.346 0 002.344-2.344v-4.032h1.828v8.72A2.346 2.346 0 0020.812 24h.844A2.346 2.346 0 0024 21.656v-4.968a.937.937 0 10-1.875 0v4.968a.47.47 0 01-.469.469h-.843a.47.47 0 01-.47-.469v-8.718h2.72zM9.328 7.266a.47.47 0 01.469-.47h.844a.47.47 0 01.468.47v3.796H9.33V7.267zM2.344 1.875h.937a.47.47 0 01.469.469v8.719H1.875v-8.72a.47.47 0 01.469-.468zm12.422 15.094a.47.47 0 01-.47.468h-.843a.47.47 0 01-.469-.468v-4.032h1.782v4.032z" fill="#7E859D"/><path d="M16.969 3.047a.937.937 0 100 1.875h2.11v2.11a.937.937 0 101.874 0v-2.11h2.11a.937.937 0 100-1.875h-2.11V.937a.937.937 0 10-1.875 0v2.11h-2.11zM7.031 22.594a.937.937 0 100-1.875H.938a.937.937 0 100 1.875H7.03z" fill="#35B972"/></svg>