<svg width="58" height="58" viewBox="0 0 58 58" fill="none" xmlns="http://www.w3.org/2000/svg"><g clip-path="url(#clip0)"><path opacity=".2" fill-rule="evenodd" clip-rule="evenodd" d="M269.436-334.159h-272.6v.132h-257.968c-8.041 0-16.082 0-24.123.263-11.995.396-23.463 5.141-32.163 13.578-11.864 10.941-16.477 24.65-16.477 40.6.175 122.063.117 244.01.058 365.956-.029 60.973-.058 121.947-.058 182.935-2.241 27.945 18.454 52.331 46.4 54.704 6.063.396 12.259.791 18.322.791l536.368.132c4.614 0 9.228-.264 13.841-.923 17.269-2.241 32.032-13.314 39.282-29.264 4.218-8.436 4.482-17.663 4.482-27.022l-.132-460.441c-.053-12.239-.063-24.498-.074-36.779-.015-18.407-.031-36.861-.189-55.362-.264-16.082-8.437-31.109-21.882-40.073-9.887-7.25-21.091-9.227-33.087-9.227zM8.951 7.937h4.811l1.052-.012a80.994 80.994 0 013.14 0c4.5.168 7.91 2.14 9.634 6.218 1.65 3.548 1.042 7.697-1.55 10.656-1.65 2.008-4.08 3.27-6.708 3.524a19.19 19.19 0 01-2.195.132c-1.818.008-3.631.005-5.446.003-.908-.002-1.816-.003-2.726-.003-.794 0-1.03-.217-1.042-.986v-2.526c0-.83.186-1.022 1.042-1.022l1.8.008c2.401.011 4.802.023 7.203.004a6.398 6.398 0 004.712-1.973c2.22-2.297 1.996-6.182-.633-8.154-1.153-.854-2.43-1.323-3.869-1.347-.545-.012-1.094-.012-1.644-.012-.55 0-1.102 0-1.654-.012l-6.039-.084c-.732-.012-.93-.193-.93-.926V8.899c.012-.782.21-.962 1.042-.962zm42.458 10.259c0-5.677-4.886-10.271-10.9-10.271-6.039 0-10.912 4.618-10.912 10.283 0 5.665 4.873 10.259 10.9 10.259 6.026 0 10.912-4.594 10.912-10.271zm-4.786 0c0 3.403-2.74 6.17-6.114 6.17-3.385 0-6.138-2.755-6.138-6.17 0-3.392 2.753-6.158 6.126-6.158 3.385 0 6.126 2.754 6.126 6.158zm-33.77 19.317c-.01.21-.02.429.14.623.272-.029.413-.201.55-.368a3.54 3.54 0 01.095-.113l.906-.892a577.597 577.597 0 006.348-6.312c.558-.565 1.203-.866 1.984-.866 1.34 0 2.656.024 3.996.047l.071.002c.112.011.211.06.31.084.1.296-.07.44-.23.578-.04.035-.081.07-.117.107l-3.211 3.091-4.204 4.041c-.062.06-.124.12-.186.193-.447.457-.459.733-.075 1.226l2.344 2.959 5.779 7.204c.125.16.229.341.315.494l.069.12c-.128.34-.356.338-.568.336h-.04L23 50.08c-.57 0-1.004-.264-1.34-.685l-4.835-6.146c-.323-.409-.633-.818-.967-1.215-.36-.42-.645-.445-1.042-.084-.52.47-1.017.962-1.513 1.455-.36.337-.459.746-.459 1.215v4.15c0 1.178-.16 1.31-1.326 1.31h-2.68c-.732-.012-.93-.216-.93-.926V30.548c0-.722.236-.95.992-.963h2.815c.161 0 .322.024.484.06.434.097.607.277.657.734v6.988a2.4 2.4 0 01-.005.146zm16.769-.146V30.63c0-.817.174-.997.992-1.01h2.74c.856.013 1.054.193 1.054 1.023-.006.747-.014 1.494-.021 2.24-.024 2.232-.047 4.46-.028 6.696-.05 2.032.917 3.969 2.604 5.195 2.641 1.9 6.361 1.372 8.333-1.178a6.018 6.018 0 001.29-3.584c.03-1.806.046-3.607.062-5.409a869.5 869.5 0 01.037-3.6v-.673c.024-.445.21-.662.67-.686a75.247 75.247 0 013.298 0c.459.012.645.241.694.686v.397c0 .995.004 1.988.008 2.98.009 1.985.017 3.968-.008 5.956.037 5.617-4.563 10.247-10.354 10.403-5.506.361-10.392-3.427-11.235-8.72-.152-.903-.143-1.806-.133-2.713.004-.421.009-.844-.003-1.267z" fill="#B0BCE2"/></g><defs><clipPath id="clip0"><rect width="58" height="58" rx="3.955" fill="#fff"/></clipPath></defs></svg>