<svg width="48" height="48" viewBox="0 0 48 48" fill="none" xmlns="http://www.w3.org/2000/svg"><g clip-path="url(#clip0)" fill="#E26E61"><path d="M47.454 34.273a1.875 1.875 0 10-3.483 1.39 4.008 4.008 0 01-.428 3.735 3.955 3.955 0 01-3.323 1.757H7.788a3.974 3.974 0 01-3.513-2.064 3.982 3.982 0 01.091-4.081L20.582 8.755a3.996 3.996 0 013.422-1.91c1.404 0 2.683.714 3.421 1.91L39.42 28.173a1.875 1.875 0 103.19-1.97L30.615 6.783a7.722 7.722 0 00-6.611-3.688 7.722 7.722 0 00-6.612 3.688L1.176 33.04C-.328 35.474-.393 38.42 1 40.917c1.392 2.497 3.93 3.987 6.787 3.987H40.22c2.62 0 4.962-1.24 6.428-3.403a7.754 7.754 0 00.806-7.228z"/><path d="M24.005 37.499a1.875 1.875 0 100-3.75h-.001a1.874 1.874 0 100 3.75zm1.873-8.437v-13.78a1.875 1.875 0 10-3.75 0v13.78a1.875 1.875 0 103.75 0z"/></g><defs><clipPath id="clip0"><path fill="#fff" d="M0 0h48v48H0z"/></clipPath></defs></svg>