<svg width="59" height="58" viewBox="0 0 59 58" fill="none" xmlns="http://www.w3.org/2000/svg"><g opacity=".2" fill-rule="evenodd" clip-rule="evenodd" fill="#B0BCE2"><path d="M9 49V33.675l5.435-7.532h9.836v4.935h-9.318V49H9zm20.447 0V32.377L45.753 9.26h6.73L38.764 28.48 53 49h-6.47L34.882 31.857V49h-5.435zM9 27.701V15.753C9 12.377 11.07 9 14.177 9h26.917l-3.623 5.195H17.54c-2.33 0-2.847 1.298-2.847 3.117v2.857L9 27.7z"/><path d="M9 49V33.675l5.435-7.532h9.836v4.935h-9.318V49H9zm20.447 0V32.377L45.753 9.26h6.73L38.764 28.48 53 49h-6.47L34.882 31.857V49h-5.435zM9 27.701V15.753C9 12.377 11.07 9 14.177 9h26.917l-3.623 5.195H17.54c-2.33 0-2.847 1.298-2.847 3.117v2.857L9 27.7z"/></g></svg>