<svg width="198" height="58" viewBox="0 0 198 58" fill="none" xmlns="http://www.w3.org/2000/svg"><g opacity=".2" fill="#B0BCE2"><path d="M25.53 3.955c5.348.106 10.164 1.702 14.474 4.868 1.623 1.198 1.995 2.874.984 4.23-1.037 1.384-2.634 1.517-4.336.32-11.92-8.434-28.149-1.517-29.825 12.824-.931 7.928 2.128 14.314 8.966 18.464 6.784 4.124 13.728 3.725 20.406-.559.346-.212.639-.479.985-.691 1.383-.852 2.953-.56 3.884.718.878 1.224.692 2.794-.532 3.805-2.634 2.101-5.587 3.538-8.86 4.39-14.66 3.804-29.266-6.572-30.57-21.63-1.25-14.315 9.845-25.888 22.722-26.606.559-.027 1.117-.08 1.703-.133z"/><path d="M33.297 25.692h4.39c2.262.026 3.326 1.117 3.3 3.352-.107 7.955-6.679 14.606-14.82 15.005-7.955.4-15.192-5.72-16.016-13.569-.666-6.358 1.57-11.546 6.997-15.005 5.294-3.352 10.855-3.326 16.336-.213 1.463.825 1.942 2.235 1.383 3.592-.532 1.277-1.889 2.049-3.22 1.703-.584-.16-1.117-.506-1.675-.772a9.8 9.8 0 00-12.106 2.607 9.849 9.849 0 00.027 12.372c2.926 3.618 7.981 4.71 12.105 2.554 2.102-1.117 3.619-2.793 4.576-4.975.293-.692.213-.931-.585-.905-1.756.053-3.538.027-5.294 0-1.916-.026-3.14-1.144-3.14-2.846 0-1.703 1.197-2.794 3.14-2.874h.266c1.41-.026 2.873-.026 4.336-.026zM59 28.458c-.08 5.321-1.198 10.296-3.513 14.952-.878 1.756-2.394 2.368-3.91 1.57-1.517-.798-1.943-2.315-1.145-4.07 3.832-8.275 3.832-16.55-.026-24.824-.798-1.729-.32-3.299 1.224-4.044 1.49-.718 2.953-.133 3.804 1.57C57.83 18.348 58.92 23.376 59 28.458z"/><path d="M49.95 28.405c0 3.645-.69 6.917-2.074 10.03-.612 1.41-1.73 2.155-2.954 2.022-1.303-.133-2.075-.878-2.474-2.075-.24-.665-.106-1.303.133-1.942 2.128-5.294 2.182-10.562 0-15.857-.585-1.437.053-3.086 1.384-3.698 1.383-.639 3.06-.027 3.778 1.49 1.516 3.272 2.234 6.678 2.208 10.03z"/><g clip-path="url(#clip0)"><path d="M90.352 26.527c1.455 0 2.91-.006 4.364.001 1.184.006 1.769.577 1.714 1.781-.055 1.192-.07 2.413-.34 3.563-1.352 5.802-6.895 9.655-12.807 8.986-5.492-.623-9.672-4.368-10.754-9.637-1.143-5.568 1.293-11.085 6.051-13.7 4.763-2.617 10.924-1.702 14.601 2.179.356.375.691.779.981 1.21.434.641.296 1.318-.347 1.742-.551.362-1.124.695-1.704 1.005-.623.332-1.12.216-1.584-.354-2.12-2.607-4.869-3.297-7.978-2.629-3.84.827-6.318 4.55-5.874 8.69.369 3.443 2.172 5.787 5.356 6.845 3.322 1.103 6.245.176 8.61-2.41.592-.648.945-1.557 1.302-2.395.294-.69.172-.807-.558-.81-1.782-.006-3.564.002-5.347-.005-1.214-.003-1.557-.363-1.565-1.627-.002-.336-.005-.672.003-1.009.022-1.004.419-1.419 1.39-1.425 1.495-.007 2.99-.001 4.486-.001zm47.759 11.681c-.262.206-.396.292-.508.403-4.061 4.072-10.391 2.67-13.043-2.162-2.295-4.18-1.642-9.9 1.608-13.001 2.327-2.221 5.112-2.833 8.166-2.03 1.613.423 2.862 1.413 3.773 2.953 0-.57-.006-1.141.001-1.711.012-.935.316-1.258 1.216-1.276a42.831 42.831 0 012.09.004c.762.023 1.109.361 1.11 1.122.009 5.697.008 11.394-.001 17.09-.001.71-.337 1.05-1.019 1.07-.778.022-1.558.02-2.336.002-.719-.019-1.029-.353-1.056-1.102-.014-.394-.001-.79-.001-1.362zm.001-7.15l.156-.049c-.269-1.001-.411-2.064-.836-2.99-.868-1.883-2.41-2.867-4.458-2.909-2.058-.043-3.617.893-4.529 2.77-1.151 2.369-1.012 4.74.431 6.936 1.715 2.608 5.303 2.932 7.511.745 1.24-1.23 1.684-2.786 1.725-4.503zm-26.976 9.845c-5.771-.006-10.517-3.769-11.785-9.33-1.337-5.858 1.197-11.652 6.222-14.227 4.999-2.564 11.304-1.293 14.736 2.976.208.258.411.526.584.81.358.588.258 1.083-.319 1.455a37.43 37.43 0 01-2.019 1.204c-.582.326-.997.24-1.386-.328-2.169-3.173-6.188-3.638-9.105-2.411a7.909 7.909 0 00-2.524 1.733c-2.921 2.99-2.844 8.396-.005 11.465 2.845 3.075 9.034 3.216 11.623-.704.411-.62.82-.687 1.485-.319.595.33 1.182.675 1.765 1.028.794.48.913.99.362 1.763-2.186 3.066-5.175 4.62-8.835 4.884-.265.017-.532.001-.799.001zm57.257-17.676c.263-.159.404-.233.534-.324 2.252-1.575 4.717-1.904 7.278-1.107 2.974.926 4.444 3.202 4.912 6.246.089.579.122 1.171.124 1.758.012 3.152.009 6.305.005 9.457-.001 1.143-.273 1.419-1.374 1.425-.594.004-1.188.008-1.782-.002-.907-.014-1.216-.32-1.22-1.263-.009-2.984.014-5.968-.018-8.952-.009-.77-.084-1.562-.28-2.301-.528-1.976-1.969-3.056-3.932-3.059-1.971-.002-3.419 1.065-3.964 3.024a8.854 8.854 0 00-.305 2.235c-.034 2.9-.013 5.8-.015 8.7 0 1.438-.18 1.618-1.606 1.62-.573 0-1.148.01-1.72-.008-.72-.024-1.028-.352-1.07-1.097-.011-.19-.007-.379-.007-.568V16.63c0-.211-.005-.422.012-.631.049-.581.345-.956.928-.975a32.88 32.88 0 012.518.001c.657.028.936.385.941 1.146.011 2.06.003 4.119.007 6.178-.001.245.018.491.034.878zm-20.539 11.109c.163 0 .329.016.492-.003.95-.11 1.613.133 2.015 1.17.199.513.805.955 1.328 1.22 1.138.575 2.348.5 3.521.035.654-.26 1.114-.725 1.147-1.492.032-.736-.417-1.195-1.01-1.439a30.966 30.966 0 00-2.844-.986c-1.555-.465-3.136-.854-4.504-1.796a5.082 5.082 0 01-.736-7.767c.443-.453.966-.868 1.525-1.15 2.667-1.341 5.411-1.432 8.142-.246 1.838.798 2.946 2.29 3.383 4.287.239 1.088-.126 1.554-1.206 1.571-.676.01-1.351.002-2.027-.005-.557-.005-.927-.268-1.093-.827-.315-1.058-1.053-1.697-2.082-1.797-.834-.082-1.707.012-2.537.171-.61.116-1.024.6-1.099 1.29-.075.693.241 1.207.806 1.503.635.331 1.305.602 1.982.833.991.337 2.021.558 2.997.931.857.328 1.727.701 2.483 1.219 2.562 1.755 2.913 5.395.79 7.69-1.378 1.49-3.15 2.08-5.08 2.214-2.663.187-5.091-.43-7.054-2.415a5.725 5.725 0 01-1.516-2.768c-.222-.944.135-1.418 1.07-1.44.369-.008.738 0 1.107 0v-.003z"/></g></g><defs><clipPath id="clip0"><path fill="#fff" transform="translate(72.25 15)" d="M0 0h109v26H0z"/></clipPath></defs></svg>