<svg width="32" height="32" viewBox="0 0 32 32" fill="none" xmlns="http://www.w3.org/2000/svg"><g clip-path="url(#clip0)"><path d="M7.092 19.338l-1.114 4.158-4.071.086A15.928 15.928 0 010 16c0-2.653.645-5.155 1.789-7.358l3.625.664 1.588 3.603a9.51 9.51 0 00-.513 3.09c0 1.175.213 2.3.603 3.339z" fill="#FBBB00"/><path d="M31.72 13.01c.184.969.28 1.968.28 2.99 0 1.145-.12 2.263-.35 3.34a15.996 15.996 0 01-5.633 9.137h-.001l-4.565-.234-.646-4.033a9.537 9.537 0 004.102-4.87h-8.555v-6.33H31.72z" fill="#518EF8"/><path d="M26.016 28.476v.001A15.933 15.933 0 0116 32c-6.093 0-11.39-3.406-14.093-8.418l5.185-4.244A9.513 9.513 0 0016 25.51a9.46 9.46 0 004.804-1.301l5.212 4.266z" fill="#28B446"/><path d="M26.213 3.683l-5.184 4.244a9.516 9.516 0 00-14.027 4.982L1.79 8.642h-.001C4.452 3.508 9.816 0 16 0c3.882 0 7.442 1.383 10.213 3.683z" fill="#F14336"/></g><defs><clipPath id="clip0"><path fill="#fff" d="M0 0h32v32H0z"/></clipPath></defs></svg>