<svg width="24" height="25" viewBox="0 0 24 25" fill="none" xmlns="http://www.w3.org/2000/svg"><g clip-path="url(#clip0)"><path d="M5.319 14.683L4.484 17.8l-3.054.065A11.946 11.946 0 010 12.179c0-1.99.484-3.866 1.342-5.519l2.719.499L5.25 9.86a7.133 7.133 0 00-.384 2.318c0 .881.16 1.725.452 2.504z" fill="#FBBB00"/><path d="M23.79 9.938a12.021 12.021 0 01-.053 4.747 11.998 11.998 0 01-4.224 6.852h-.001l-3.424-.175-.485-3.025a7.152 7.152 0 003.078-3.652h-6.417V9.937H23.79z" fill="#518EF8"/><path d="M19.512 21.537A11.95 11.95 0 0112 24.18c-4.57 0-8.543-2.554-10.57-6.313l3.889-3.183a7.135 7.135 0 0010.284 3.654l3.909 3.2z" fill="#28B446"/><path d="M19.66 2.942l-3.888 3.182a7.137 7.137 0 00-10.52 3.737l-3.91-3.2A11.998 11.998 0 0112 .179a11.95 11.95 0 017.66 2.763z" fill="#F14336"/></g><defs><clipPath id="clip0"><path fill="#fff" transform="translate(0 .18)" d="M0 0h24v24H0z"/></clipPath></defs></svg>