<svg width="59" height="58" viewBox="0 0 59 58" fill="none" xmlns="http://www.w3.org/2000/svg"><g opacity=".2"><rect x=".75" y=".5" width="57" height="57" rx="5.5" fill="#B0BCE2"/><rect x=".75" y=".5" width="57" height="57" rx="5.5" fill="#B0BCE2"/><path fill-rule="evenodd" clip-rule="evenodd" d="M43.752 23.68l-.044.346a3.66 3.66 0 01-1.004 2.102 3.571 3.571 0 01-2.082 1.109c-1.306.216-2.828-.317-3.603-1.527-.115-.187-.201-.403-.287-.604-.029-.058-.014-.101.029-.144.143-.159.272-.331.416-.504a.324.324 0 00.043-.072c.057.144.086.259.13.36.43.979 1.19 1.584 2.239 1.756 1.536.26 2.986-.777 3.344-2.232.058-.23.087-.46.087-.705.014-.302 0-.62-.015-.922a2.68 2.68 0 00-.603-1.555c-.517-.676-1.191-1.08-2.038-1.18-.833-.101-1.58.158-2.225.69a13.095 13.095 0 00-1.809 1.873c-.258.317-.502.633-.76.95-.015.014-.03.043-.058.072v-1.022a.23.23 0 01.043-.13c.445-.576.904-1.152 1.435-1.656.388-.388.804-.72 1.264-1.008.416-.273.875-.417 1.378-.49 1.952-.258 3.646 1.124 4.048 2.823.043.202.057.403.1.605 0 .043.015.086.029.13-.057.302-.057.618-.057.935zM33.89 39.562c.057.043.1.072.129.1a3.97 3.97 0 002.01.879c.502.057 1.004.057 1.478-.144.531-.216.79-.648.847-1.195.029-.288.014-.59.014-.893 0-.029 0-.043-.014-.087-.014.015-.029.015-.043.015-.33.389-.775.576-1.249.677-.79.158-1.55.072-2.254-.303-.76-.403-1.206-1.065-1.407-1.886a3.765 3.765 0 01-.114-.993V31.34c0-.13 0-.13.129-.13h1.507c.1 0 .13.03.13.13 0 1.483-.015 2.98 0 4.464 0 .69.416 1.382 1.277 1.526.502.086.976.014 1.378-.317.316-.245.46-.576.517-.965.014-.144.014-.302.014-.46v-4.262c0-.13 0-.13.13-.13h1.464c.071 0 .1.014.1.1 0 2.621 0 5.256-.014 7.877 0 .72-.216 1.382-.704 1.93-.416.46-.933.733-1.521.892-.345.086-.704.13-1.063.144-.99.043-1.88-.23-2.67-.864a.234.234 0 01-.1-.202V39.62c.029.015.029-.014.029-.057zm-14.871-.534h-1.565c-.1 0-.13-.028-.13-.13v-9.2c0-.13 0-.13.13-.13 1.206 0 2.397-.014 3.603.015.861.014 1.665.288 2.297.921.387.404.631.893.732 1.44.13.691.115 1.397-.115 2.074-.359 1.022-1.09 1.612-2.11 1.886-.345.086-.704.13-1.048.13h-1.665c-.13 0-.13 0-.13.129v2.866zm.961-4.578c.23 0 .474.014.704 0 .2-.015.402-.015.603-.058.53-.115.919-.403 1.105-.936.144-.417.144-.85.015-1.281a1.253 1.253 0 00-.79-.864 2.056 2.056 0 00-.775-.144h-1.723c-.072 0-.1.029-.1.1v3.082c0 .086.028.1.115.1h.846zm10.537 3.771a2.542 2.542 0 01-1.378.735 4.12 4.12 0 01-1.192.028 3.213 3.213 0 01-1.364-.417c-.79-.432-1.277-1.109-1.507-1.973a4.486 4.486 0 01-.158-1.166c0-.374-.014-.763.015-1.137.129-1.47.947-2.679 2.555-3.067.847-.202 1.68-.188 2.512.1 1.105.39 1.78 1.181 2.067 2.304.086.331.115.677.115 1.023v4.132c0 .144 0 .144-.144.144h-1.406c-.087 0-.115-.015-.115-.115v-.59zm.014-3.124c-.014-.274-.014-.562-.057-.835-.115-.663-.489-1.138-1.134-1.383a2.399 2.399 0 00-1.235-.086 1.832 1.832 0 00-1.493 1.526c-.072.432-.057.879-.014 1.31.072.735.445 1.268 1.105 1.584.416.202.847.216 1.306.159.704-.101 1.235-.547 1.436-1.239.086-.345.072-.69.086-1.036zM21.157 22.7h-3.1v-.605c0-.13 0-.13.143-.13h3.603c.086 0 .115.03.115.116v3.873a.302.302 0 01-.057.159c-.373.446-.847.748-1.378.979a5.13 5.13 0 01-1.55.403c-.92.1-1.795.014-2.642-.375-1.479-.705-2.397-1.843-2.728-3.426-.2-.936-.172-1.872.158-2.78.46-1.209 1.278-2.073 2.383-2.677A5.093 5.093 0 0118 17.66c.488-.058.976-.03 1.464 0 .474.043.948.13 1.407.288.086.028.13.072.13.187-.015.23 0 .446 0 .691a3.238 3.238 0 01-.245-.13 3.746 3.746 0 00-1.292-.345c-.33-.029-.66-.043-.976-.043a4.35 4.35 0 00-2.627.921c-.76.59-1.277 1.31-1.536 2.203-.129.46-.158.922-.129 1.382.029.605.144 1.167.416 1.7.589 1.166 1.522 1.886 2.8 2.16.516.114 1.033.1 1.564.042.618-.072 1.192-.23 1.723-.576a2.78 2.78 0 00.402-.316c.043-.03.072-.101.072-.159v-2.894s0-.029-.015-.072zm11.224 3.6v.692c0 .029-.043.072-.072.072-.23.058-.459.144-.689.173a3.521 3.521 0 01-2.598-.749c-.804-.62-1.306-1.44-1.435-2.462-.058-.432-.044-.878-.03-1.31.015-.879.33-1.642.905-2.304.574-.662 1.278-1.08 2.14-1.238 1.162-.202 2.195.086 3.085.864a3.68 3.68 0 011.25 2.26c.028.173.042.346.042.518v4.421h-.732v-.144c0-1.426.015-2.866 0-4.291a2.96 2.96 0 00-2.426-2.909c-1.608-.302-3.158.807-3.474 2.376a2.683 2.683 0 00-.057.475c0 .418-.043.85.043 1.268.215 1.094.861 1.857 1.895 2.289.689.288 1.378.259 2.067.014 0 .015.043 0 .086-.014z" fill="#1C1F2D"/><path fill-rule="evenodd" clip-rule="evenodd" d="M20.596 23.276v2.16c0 .072-.029.115-.086.173-.316.259-.69.388-1.077.475-.445.1-.89.144-1.335.115-1.32-.087-2.297-.734-2.928-1.9-.273-.505-.388-1.066-.402-1.642-.014-.562.057-1.109.301-1.613.445-.936 1.177-1.555 2.14-1.915.573-.216 1.176-.273 1.794-.23a5.018 5.018 0 011.521.302c.144.058.273.115.402.187.029.015.058.058.058.087v.806c-.043-.029-.072-.043-.1-.072a2.801 2.801 0 00-1.379-.533 5.883 5.883 0 00-1.005-.057c-1.191.057-2.11.561-2.713 1.612-.2.36-.301.763-.301 1.181-.015.49.043.965.244 1.411.416.878 1.105 1.44 2.067 1.584.689.115 1.35.014 2.01-.23.071-.03.086-.058.086-.13v-.936c0-.1-.029-.13-.13-.13h-1.607c-.086 0-.115-.014-.115-.115.014-.201 0-.403 0-.619.861.029 1.694.029 2.555.029zm17.658-.158c.043.187.072.36.115.518.13.432.345.82.675 1.152.689.677 1.65.49 2.196-.058a1.59 1.59 0 00.474-1.094c0-.317.029-.648 0-.965-.057-.69-.589-1.267-1.263-1.425-.589-.13-1.106.029-1.55.432-.59.533-1.106 1.152-1.623 1.756-.588.692-1.148 1.397-1.722 2.103 0 .014-.015.014-.03.014v-1.037c0-.057.015-.115.058-.158a28.54 28.54 0 011.694-2.016c.33-.36.646-.705.99-1.05.388-.375.848-.678 1.379-.793.646-.144 1.234.015 1.766.389.545.389.89.907 1.019 1.57.028.115.028.23.028.36 0 .36.015.72-.028 1.065-.1.936-.804 1.728-1.723 1.987-1.005.288-2.024-.115-2.613-1.037a2.553 2.553 0 01-.387-.907c-.015-.043 0-.115.029-.144.157-.202.315-.389.473-.59 0-.015.015-.043.043-.072zm-5.869 1.742v.735c0 .029-.043.072-.072.1-.2.13-.416.202-.646.245a2.415 2.415 0 01-2.483-1.18 2.392 2.392 0 01-.33-1.21v-.633c0-.807.315-1.44.933-1.944 1.378-1.109 3.488-.389 3.832 1.425.03.159.044.332.044.504v4.248c0 .13 0 .13-.13.13h-.488c-.086 0-.1-.03-.1-.116v-4.233c0-.374-.072-.72-.287-1.022-.33-.475-.804-.706-1.379-.72a1.637 1.637 0 00-1.607 1.253c-.029.13-.043.259-.058.403-.014.23 0 .475 0 .705 0 .85.589 1.541 1.421 1.656.46.072.89-.029 1.278-.273 0-.03.029-.044.072-.072zm-4.021-5.225c-.186.201-.344.388-.517.561-.186-.072-.373-.173-.574-.216-1.162-.259-2.21-.043-3.057.864a2.567 2.567 0 00-.66 1.44c-.044.26-.058.518-.058.777v4.075c0 .144 0 .144-.144.144h-.502c-.072 0-.1-.029-.086-.086v-4.291c0-.82.2-1.57.675-2.246.56-.792 1.335-1.253 2.268-1.44a3.789 3.789 0 012.153.187c.172.044.33.144.502.23z" fill="#1C1F2D"/><path fill-rule="evenodd" clip-rule="evenodd" d="M27.532 20.67l-.316.634c-.144-.03-.287-.087-.445-.101-.704-.087-1.378.144-1.752.82-.129.245-.2.519-.2.793v4.435h-.732v-.102c0-1.454-.015-2.922 0-4.377a2.31 2.31 0 011.923-2.29 2.518 2.518 0 011.306.087c.072.03.144.058.216.101zm8.742-4.852h.732v3.902c0 .058-.015.1-.072.159-.201.201-.388.403-.589.619-.028.028-.043.057-.086.086.015-1.598.015-3.182.015-4.766zm1.306 3.657v-3.527c0-.13 0-.13.13-.13h.46c.143 0 .143 0 .143.144v2.894c0 .072-.029.115-.086.159-.187.115-.374.244-.56.374a.248.248 0 01-.086.086z" fill="#1C1F2D"/><rect x=".75" y=".5" width="57" height="57" rx="5.5" stroke="#353A4D"/></g></svg>