<svg width="24" height="24" viewBox="0 0 24 24" fill="none" xmlns="http://www.w3.org/2000/svg"><path d="M2.125 13.266l-1.86 1.918a.936.936 0 001.342 1.304l1.861-1.919a.936.936 0 00-1.343-1.303z" fill="#35B972"/><path d="M6.456 13.871a.936.936 0 00-.936.936v8.234a.936.936 0 001.871 0v-8.234a.936.936 0 00-.935-.936zm3.649-2.058a.936.936 0 00-.935.935v10.293a.936.936 0 001.87 0V12.748a.936.936 0 00-.935-.935z" fill="#7E859D"/><path d="M21.193.023h-2.807a.936.936 0 000 1.872h2.466l-6.87 6.869a.953.953 0 01-.68.289.954.954 0 01-.644-.29l-1.1-1.1c-.538-.538-1.253-.85-1.961-.856h-.02c-.734 0-1.466.32-2.013.881L5.56 9.702a.936.936 0 101.326 1.32l2.01-2.017.007-.009c.196-.2.45-.32.68-.318.217.002.462.117.653.309l1.1 1.1a2.802 2.802 0 001.933.837 2.83 2.83 0 002.037-.837l6.824-6.823V5.59a.936.936 0 101.871 0V2.83A2.81 2.81 0 0021.193.023z" fill="#35B972"/><path d="M2.763 18.082a.936.936 0 00-.939.935v4.024a.936.936 0 101.871 0v-4.024a.936.936 0 00-.932-.935zM21.146 8.023a.936.936 0 00-.936.936V23.04a.936.936 0 101.871 0V8.959a.936.936 0 00-.935-.936zm-7.392 4.959a.936.936 0 00-.935.936v9.123a.936.936 0 101.871 0v-9.123a.936.936 0 00-.936-.936zm3.693-1.777a.936.936 0 00-.932.935v10.9a.936.936 0 101.871 0v-10.9a.936.936 0 00-.94-.935z" fill="#7E859D"/></svg>