<svg width="219" height="58" viewBox="0 0 219 58" fill="none" xmlns="http://www.w3.org/2000/svg"><g opacity=".2"><path fill-rule="evenodd" clip-rule="evenodd" d="M31.665 33.248c2.68-.948 5.538-1.604 8.538-1.995v-.005c-3.732-.265-7.305-1.02-10.685-2.287a35.154 35.154 0 00-4.261 1.923 38.48 38.48 0 006.408 2.364zm-16.35 13.064c2.675-4.353 6.116-7.698 10.15-10.15a44.365 44.365 0 01-4.844-2.314c-3.43 2.579-6.562 5.868-9.342 9.912l4.035 2.552zm24.8-6.596l.028-4.964-.028.005v4.96zM22.036 50.653c5.01-6.837 11.198-9.73 18.08-10.931-3.59-.386-7.031-1.047-10.301-2.028-4.547 2.16-8.533 5.499-11.765 10.441l3.986 2.518zm18.085-27.505l-.022-4.865h-.006l.028 4.865zm-8.418 1.548c2.692-.732 5.505-1.212 8.412-1.454-3.677-.49-7.146-1.422-10.339-2.942a49.96 49.96 0 00-4.272 1.487 33.388 33.388 0 006.2 2.91zm-9.975 4.281a36.458 36.458 0 013.562-1.922 35.83 35.83 0 01-4.641-2.96 41.95 41.95 0 00-3.116 1.896 37.31 37.31 0 004.195 2.986zM8.63 42.052l.011-.022.033.022c2.643-4.077 5.604-7.416 8.863-10.088a43.289 43.289 0 01-3.947-2.997c-3.357 2.864-6.39 6.34-9.06 10.507l4.101 2.578z" fill="#B0BCE2"/><path fill-rule="evenodd" clip-rule="evenodd" d="M8.676 15.903c7.883 12.177 18.668 17.753 31.44 18.81v5.003c-14.776-1.58-27.014-7.923-35.542-21.234l4.102-2.579zm6.65-4.276c5.527 8.998 14.335 13.687 24.894 15.053v4.573c-11.483-.815-21.464-6.226-28.924-17.075l4.03-2.55zm6.683-4.28c5.015 6.837 11.198 9.73 18.08 10.93l.027 4.965c-8.902-1.185-16.587-4.97-22.092-13.372l3.985-2.524zM55.21 26.945h7.201v-8.667h5.84V39.7h-5.84v-8.518h-7.2V39.7h-5.836V18.278h5.835v8.667zm73.076-8.667h6.336V35.55h9.43v4.281l-9.43-.005v.005h-6.336V18.278z" fill="#B0BCE2"/><path d="M87.366 24.498h5.329v2.485c.798-1.014 1.492-1.52 2.34-1.89.654-.286 1.706-.617 2.879-.617 1.58 0 3 .628 3.639 1.355.869.981 1.326 2.221 1.326 4.232v9.703l-5.477-.006v-8.39c0-.959-.248-2.424-.595-2.821-.352-.402-.837-.6-1.464-.6-.689 0-1.255.27-1.685.804-.43.534-.572 1.46-.572 2.848v8.16h-5.72V24.498zm92.74 0h5.169v2.469c.771-1.009 1.448-1.51 2.268-1.885a7.015 7.015 0 012.791-.611c1.536 0 2.912.628 3.535 1.35.842.98 1.288 2.16 1.288 4.16v9.697l-5.313.01v-8.352c0-.953-.242-2.413-.578-2.81-.341-.402-.809-.595-1.42-.595-.672 0-1.217.27-1.635.799a4.48 4.48 0 00-.974 2.837v8.122h-5.131v-15.19zm-25.33 6.342c-.104-1.09-.379-1.868-.825-2.33-.446-.469-1.035-.706-1.762-.706-.842 0-1.508.358-2.015 1.064-.319.44-.523 1.096-.605 1.972h5.207zm5.373 2.694h-10.586c.094.904.325 1.576.688 2.017.507.634 1.178.953 1.999.953a2.88 2.88 0 001.48-.413c.287-.176.595-.48.92-.926l.154-.49 5.334.01c-.027.27-.126.756-.297 1.02-.798 1.477-1.734 2.496-2.862 3.135-1.124.64-2.737.959-4.839.959-1.828 0-3.26-.275-4.311-.82-1.046-.546-1.916-1.417-2.598-2.613-.689-1.19-1.035-2.595-1.035-4.204 0-2.292.693-4.148 2.069-5.559 1.382-1.416 3.287-2.132 5.72-2.132 1.971 0 3.529.32 4.669.958 1.145.634 2.015 1.554 2.609 2.755.6 1.207.892 2.777.892 4.706v.644h-.006z" fill="#B0BCE2"/><path fill-rule="evenodd" clip-rule="evenodd" d="M77.737 27.606c1.657 0 3.116 1.686 3.116 4.512 0 2.827-1.343 4.458-3 4.458s-3-1.631-3-4.458c0-2.826 1.227-4.512 2.884-4.512zm.072-3.13c4.729 0 7.283 3.46 7.283 7.68 0 4.221-2.554 7.61-7.283 7.61-4.73 0-7.548-3.422-7.548-7.642-.005-4.226 2.813-7.648 7.548-7.648z" fill="#B0BCE2"/><path d="M77.737 27.606c1.657 0 3.116 1.686 3.116 4.512 0 2.827-1.343 4.458-3 4.458s-3-1.631-3-4.458c0-2.826 1.227-4.512 2.884-4.512zm.072-3.13c4.729 0 7.283 3.46 7.283 7.68 0 4.221-2.554 7.61-7.283 7.61-4.73 0-7.548-3.422-7.548-7.642-.005-4.226 2.813-7.648 7.548-7.648z" stroke="#B0BCE2" stroke-width=".216" stroke-miterlimit="10"/><path fill-rule="evenodd" clip-rule="evenodd" d="M170.086 27.606c1.657 0 3.116 1.686 3.116 4.512 0 2.827-1.343 4.458-3 4.458s-3-1.631-3-4.458c0-2.826 1.227-4.512 2.884-4.512zm.066-3.13c4.729 0 7.284 3.46 7.284 7.68 0 4.221-2.555 7.61-7.284 7.61-4.729 0-7.547-3.422-7.547-7.642 0-4.226 2.818-7.648 7.547-7.648z" fill="#B0BCE2"/><path d="M170.086 27.606c1.657 0 3.116 1.686 3.116 4.512 0 2.827-1.343 4.458-3 4.458s-3-1.631-3-4.458c0-2.826 1.227-4.512 2.884-4.512zm.066-3.13c4.729 0 7.284 3.46 7.284 7.68 0 4.221-2.555 7.61-7.284 7.61-4.729 0-7.547-3.422-7.547-7.642 0-4.226 2.818-7.648 7.547-7.648z" stroke="#B0BCE2" stroke-width=".216" stroke-miterlimit="10"/><path d="M207.207 33.87c.138-.446.21-.97.21-1.575v-.088c0-2.425-1.25-4.392-2.786-4.392s-2.786 1.967-2.786 4.392c0 2.424 1.25 4.391 2.786 4.391 1.162 0 2.158-1.13 2.576-2.727zm.573-9.057h5.345v14.705l.017.689a6.69 6.69 0 01-.6 2.793c-.396.888-.925 1.604-1.586 2.15-.66.55-1.497.947-2.504 1.184-1.013.248-2.175.369-3.485.369-2.99 0-5.048-.468-6.16-1.41-1.118-.937-1.674-2.193-1.674-3.764 0-.198-.011.077.005-.242h5.511c.143.529.408 1.02.688 1.223.424.298.947.457 1.586.457.82 0 1.437-.231 1.844-.688.407-.463.606-1.262.606-2.408v-2.358c-.562.688-1.118 1.195-1.68 1.51a5.804 5.804 0 01-2.846.732c-1.987 0-3.595-.909-4.822-2.727-.864-1.29-1.299-2.998-1.299-5.119 0-2.43.561-4.275 1.679-5.548 1.123-1.273 2.587-1.907 4.404-1.907 1.161 0 2.114.204 2.868.617.754.414 1.459 1.091 2.108 2.045v-2.303h-.005zm-92.74 9.052c.138-.446.209-.97.209-1.576v-.088c0-2.424-1.249-4.391-2.785-4.391s-2.786 1.967-2.786 4.391c0 2.425 1.25 4.392 2.786 4.392 1.167 0 2.163-1.125 2.576-2.728zm.573-9.053h5.345v14.706l.017.689c0 .975-.199 1.906-.6 2.793-.397.888-.925 1.604-1.586 2.15-.661.55-1.497.947-2.505 1.184-1.013.242-2.174.369-3.485.369-2.989 0-5.048-.468-6.16-1.41-1.112-.937-1.673-2.193-1.673-3.764 0-.198-.011.077.005-.242h5.511c.143.529.407 1.02.693 1.223.424.298.947.457 1.586.457.82 0 1.437-.231 1.844-.688.407-.463.606-1.262.606-2.408v-2.358c-.562.688-1.118 1.195-1.679 1.51a5.81 5.81 0 01-2.847.732c-1.992 0-3.6-.909-4.822-2.727-.864-1.29-1.299-2.998-1.299-5.119 0-2.43.561-4.275 1.679-5.548 1.123-1.273 2.587-1.907 4.404-1.907 1.161 0 2.114.204 2.868.617.754.414 1.459 1.091 2.109 2.045v-2.303h-.011z" fill="#B0BCE2"/></g></svg>