<svg width="59" height="58" viewBox="0 0 59 58" fill="none" xmlns="http://www.w3.org/2000/svg"><g opacity=".2" fill-rule="evenodd" clip-rule="evenodd" fill="#B0BCE2"><path d="M47.72.023L10.866 0C5.039-.023.293 4.746.293 10.55L.25 47.404c0 5.809 4.746 10.554 10.55 10.574L47.677 58c5.809 0 10.574-4.745 10.574-10.55V10.596C58.27 4.789 53.504.023 47.72.023zm-1.842 26.431h4.204l-2.99 3.294h-2.947l1.733-3.294zm2.904 5.353h4.089v15.296h-3.944v-2.145h-.043c-.934 1.647-2.6 2.58-4.745 2.558-3.076 0-5.307-1.733-5.307-5.634l.023-10.075h4.095v9.491c-.02 2.363 1.39 2.838 2.667 2.838 1.346 0 3.165-.779 3.165-3.488v-8.841zm-13.13 4.048c0-3.791-3.988-4.461-6.199-4.461-3.184 0-6.5.673-7 5.352h3.964c.129-.887.499-2.122 2.535-2.122 1.063 0 2.71.086 2.71 1.776 0 .868-.803 1.125-1.453 1.214l-3.683.542c-2.62.37-4.57 1.907-4.57 4.897 0 3.165 2.425 4.462 4.745 4.462 2.815 0 4.139-1.277 5.05-2.211.085.845.151 1.062.389 1.798l3.53-.023c0-1.513-.018-2.66-.022-2.9v-8.324h.003zm-21.557-9.401h4.095v5.326h2.558v2.881H18.19l-.023 8.297c0 .91.043 1.257 1.713 1.257.18 0 .379-.02.578-.04.09-.01.18-.018.267-.026v3.056c-.191.007-.384.016-.578.025-.445.02-.897.041-1.35.041h-.54c-3.555 0-4.182-1.343-4.182-3.313v-9.293h-2.102v-2.881h2.122v-5.33zm-4.009-.023H5.664l-.02 20.65h4.42l.022-20.65z"/><path d="M30.84 41.97V40c-.412.323-1.105.584-2.795.822-1.538.26-2.795.65-2.795 2.316 0 1.387 1.125 1.842 1.907 1.842 1.822 0 3.683-1.148 3.683-3.01z"/></g></svg>