<svg width="124" height="58" viewBox="0 0 124 58" fill="none" xmlns="http://www.w3.org/2000/svg"><g clip-path="url(#clip0)" fill="#B0BCE2" opacity=".2"><path d="M.147 34.739c0-1.788-.032-3.285-.128-4.624H3.41l.161 2.298h.094c.768-1.213 2.176-2.65 4.8-2.65 2.048 0 3.647 1.15 4.32 2.871h.065c.544-.86 1.182-1.5 1.917-1.944.865-.608 1.86-.928 3.137-.928 2.593 0 5.214 1.754 5.214 6.734v9.152h-3.84v-8.581c0-2.582-.895-4.116-2.783-4.116-1.343 0-2.336.96-2.75 2.076-.116.426-.18.864-.193 1.306v9.317h-3.84v-9c0-2.164-.862-3.698-2.687-3.698-1.47 0-2.46 1.15-2.817 2.233-.158.383-.223.832-.223 1.275v9.19H.147V34.739zm37.93 7.18c0 1.401.065 2.772.223 3.73h-3.552l-.255-1.72h-.096c-.96 1.212-2.593 2.07-4.605 2.07-3.137 0-4.896-2.263-4.896-4.625 0-3.927 3.485-5.9 9.247-5.87v-.254c0-1.022-.418-2.712-3.17-2.712-1.537 0-3.135.48-4.19 1.147l-.769-2.552c1.153-.703 3.169-1.372 5.63-1.372 4.993 0 6.435 3.161 6.435 6.539l-.001 5.619zm-3.84-3.86c-2.785-.065-5.44.542-5.44 2.902 0 1.531.995 2.234 2.242 2.234 1.565 0 2.72-1.024 3.071-2.139a2.88 2.88 0 00.128-.86V38.06h-.001zm6.559-3.32c0-1.788-.033-3.285-.126-4.624h3.452l.191 2.332h.097c.67-1.215 2.368-2.685 4.959-2.685 2.72 0 5.534 1.754 5.534 6.67v9.216H50.97v-8.77c0-2.233-.834-3.929-2.976-3.929-1.566 0-2.657 1.118-3.072 2.3-.128.35-.16.83-.16 1.272v9.126h-3.967l.002-10.908zm31.17-10.865v17.405c0 1.595.066 3.321.13 4.37h-3.518l-.161-2.454h-.066C67.425 44.917 65.535 46 63.266 46c-3.713 0-6.655-3.157-6.655-7.939-.034-5.201 3.229-8.297 6.975-8.297 2.143 0 3.678.893 4.382 2.046h.067v-7.935h3.933v-.001h-.001zM68.035 36.59c0-.317-.032-.7-.097-1.022-.352-1.528-1.597-2.773-3.39-2.773-2.528 0-3.938 2.234-3.938 5.135 0 2.837 1.409 4.912 3.906 4.912 1.597 0 3.006-1.087 3.389-2.777.097-.35.131-.734.131-1.148V36.59h-.001zm6.716 9.06V30.115h3.97V45.65h-3.97zm6.752-10.526c0-2.105-.03-3.606-.126-5.008H84.8l.126 2.964h.13c.767-2.2 2.59-2.964 4.258-2.964.383 0 .605-.065.924 0v3.447a5.446 5.446 0 00-1.15-.128c-1.891 0-3.17 1.213-3.521 2.964-.078.401-.12.808-.127 1.216v8.036h-3.937V35.124zm10.56 10.526V30.115h3.965V45.65h-3.965z"/><path d="M120.725 13.684c-1.965-2.234-4.053-1.223-5.713-.4-.698.343-5.736 3.191-5.736 3.191-2.761 1.135-4.911-.104-5.754-1.146a2.396 2.396 0 01-.218-.314l-.197-.34a15.222 15.222 0 00-1.105-1.648 9.33 9.33 0 00-.795-.905c-1.89-1.902-4.908-3.233-9.954-.815a3376.717 3376.717 0 01-10.171 5.813c-2.925 1.2-5.161-.262-5.888-1.334a.771.771 0 01-.085-.129l-.096-.162-.493-.804a13.485 13.485 0 00-.715-1.024 10.328 10.328 0 00-.796-.903c-1.876-1.89-4.88-3.219-9.881-.847a33447.93 33447.93 0 00-10.059 5.731l-.003.003-5.148 2.933 2.664 3.26c1.12 1.066 3.228 2.813 6.487 1.34 0 0 8.996-5.194 9.032-5.21 7.691-4.208 11.486-.187 13.165 2.493.058.084.105.175.158.256l.002.004c.022.033.035.063.053.094l.19.31c.817 1.235 2.107 2.033 3.644 1.996.847-.017 1.423-.292 2.26-.757l8.705-5.033.018-.009c7.788-4.259 11.648.024 13.296 2.705.128.231.273.453.423.659.816 1.103 1.942 1.826 3.372 1.79.944-.018 2.003-.583 2.161-.687l10.435-6.005c.003.003-1.063-1.603-3.258-4.106z"/></g><defs><clipPath id="clip0"><path fill="#fff" transform="translate(0 10)" d="M0 0h124v36H0z"/></clipPath></defs></svg>