<svg width="208" height="58" viewBox="0 0 208 58" fill="none" xmlns="http://www.w3.org/2000/svg"><g opacity=".2" clip-path="url(#clip0)" fill="#B0BCE2"><path d="M63.469 42.36l5.933-16.197 1.94 16.198h6.269l-3.395-23.793h-7.653l-5.065 14.294-5.065-14.294h-7.648l-3.4 23.793h6.27L53.6 26.163l5.933 16.198h3.937zm32.95-17.688l8.061 17.689-3.189 6.94h6.941l11.084-24.63h-7.165l-4.254 12.37-4.313-12.37h-7.165zM203 42.338l-7.331-9.458 6.677-8.208h-7.461l-5.933 7.725V16.61h-6.494v25.727h6.494v-8.956l6.659 8.956H203zm-82.64-.891s3.435 1.285 8.249 1.285 11.083-1.491 11.083-9.776c0-8.284-8.32-8.584-9.292-8.584-1.832 0-3.005.497-3.435.716v-8.517h-6.605v24.876zm6.605-3.193v-9.306c1.317-.443 6.082-1.634 6.082 4.416 0 6.162-4.891 5.217-6.082 4.89zm16.269-9.104c9.48-2.799 9.48.56 9.48 1.008v.6c-7.671.062-12.238 2.257-12.238 6.229 0 4.03 4.254 5.786 9.887 5.786 5.634 0 8.509-1.308 8.509-1.308V30.458c0-3.883-2.499-6.346-8.509-6.346-6.009 0-8.62 1.42-8.62 1.42l1.491 3.618zm3.323 7.76c0-2.543 4.832-2.726 6.157-2.726v4.531c-1.383.162-6.157.556-6.157-1.804zm-65.346-7.76c9.48-2.799 9.48.56 9.48 1.008v.6c-7.67.062-12.238 2.257-12.238 6.229 0 4.03 4.254 5.786 9.888 5.786 5.633 0 8.508-1.308 8.508-1.308V30.458c0-3.883-2.499-6.346-8.508-6.346-6.01 0-8.621 1.42-8.621 1.42l1.491 3.618zm3.323 7.76c0-2.543 4.832-2.726 6.157-2.726v4.531c-1.383.162-6.157.556-6.157-1.804zm88.928 5.41h6.529V31.124c0-5.821-4.178-7.053-9.328-7.053-5.15 0-9.292 1.42-9.292 1.42V42.32h6.529V28.935c5.02-1.47 5.562.949 5.562 2.113V42.32zM19.421 12.298c10.031 0 18.164 8.133 18.164 18.164 0 10.031-8.133 18.163-18.164 18.163-10.031 0-18.163-8.132-18.163-18.163S9.39 12.298 19.42 12.298zm0-1.657c-10.927 0-19.82 8.894-19.82 19.82 0 10.932 8.893 19.821 19.82 19.821 10.931 0 19.82-8.893 19.82-19.82.005-10.927-8.889-19.82-19.82-19.82z"/><path d="M10.886 23.52s.42-1.652 1.092-2.212c.672-.56 3.09-2.154 6.579-3.273.416-.135.896.017.918.026-.023.14-.036.229-.045.265a.81.81 0 01-.242.43c.708.094 1.178-.412 1.308-.99.13-.578.578-2.87 1.308-2.835 2.033.094 3.488 6.66 3.34 6.96-.098.196-.895.035-.895.035 1.267 1.997 2.928 1.98 3.305 1.662.376-.318.17-1.344.17-1.344 3.994 2.369 3.77 5.186 3.77 5.186 1.196-4.666-1.567-6.664-1.567-6.664 1.084-.036 2.257.654 2.257.654-1.68-2.257-5.15-3.506-5.15-3.506s-4.057-4.497-5.365-4.326c-1.084.139-1.701 2.127-2.002 3.484a4.207 4.207 0 00-.801.018c-.287-.354-1.5-1.796-1.97-1.321-.184.183-.242 1.477-.256 2.024-1.961.779-5.298 2.248-5.974 3.323-.618.98-.757 1.706-.757 1.706s-4.003 2.575-4.98 5.374c-.004 0 2.683-3.135 5.957-4.676z"/><path d="M23.76 21.443c-.054-2.07-1.084-3.73-1.603-3.825-.524-.094-.69 1.886-.69 1.886 1.38.913 2.293 1.939 2.293 1.939zm-9.833-.377c-.802.484-.448.896-.448.896s-.13-.412.86-.69c1.764-.497 3.358-1.007 3.322-1.437-.036-.43-1.231-.596-1.231-.596.336.448-1.702 1.343-2.503 1.827z"/><path d="M13.349 25.809s.506-1.174.877-1.326c0 0 .654.17 1.008.036.354-.13 1.025-1.025 1.29-1.043 0 0-.69 3.004-3.489 2.946 0 0 2.015 1.138 3.04.336 1.026-.802.243-1.42 1.568-2.705 1.326-1.285.448-1.343.394-1.325-.053.018-.465-.112-.465-.112s.188-.242.56-.412c.371-.17 2.516-1.138 2.556-1.715.036-.578-1.55-1.232-2.35-1.214 0 0 .725.3.689.708-.036.407-2.127 1.325-2.127 2.498 0 0-.748.054-1.29-.053a2.214 2.214 0 00-1.715.335c-.596.39-.636-.483-.578-.595 0 0-1.155.725.3 1.661 0 0-.595.618-.654.766-.058.148-.304.95.386 1.214zm1.41-1.998a.44.44 0 00.44-.438.444.444 0 00-.153-.327c.29-.018.954.018.954.018-.076-.018-.242.17-.618.636-.377.465-.726.111-.726.111l-.004-.022c.031.009.067.022.107.022zm-3.255 5.84s-.027-1.066-1.008-.842c-1.648.376-2.212 3.305-2.212 3.305 1.845-3.412 3.22-2.463 3.22-2.463zm.613 2.602c.896-1.456-.197-2.378-1.594-1.595-1.397.784-1.738 2.66-1.738 2.66 2.772-3.022 3.332-1.065 3.332-1.065zm-3.582-2.714c1.007-1.621 2.154-1.594 2.154-1.594-1.37-1.008-2.154 1.594-2.154 1.594zm16.793.842s-1.008-.896-.896-2.548c.112-1.652.42-4.142-2.378-5.875 0 0 1.146 1.764.725 3.497-.42 1.733-1.822 4.698-1.706 5.683.251 2.154 2.49 2.548 2.324 5.486 0 0 1.317-1.595 1.066-3.471-.25-1.876-1.903-2.687-1.173-4.17-.005-.004.833 1.228 2.038 1.398z"/><path d="M33.384 22.571s2.445 6.655-.313 12.696c0 0 .156-.878-.524-2.611-.726-1.858-.484-4.254-.188-4.702 0 0-1.344 1.343-1.268 3.582.076 2.24.672 8.545-3.882 10.896 0 0 1.724-3.153 1.083-6.847 0 0 .587.224.896 1.007 0 0 1.232-3.246-.363-7.219 0 0 .896.17 1.456.645 0 0 .586-2.843-2.63-4.84-.81-.502-.698-.784-.698-.784s-.25.645.278 1.29c.528.644 1.258 1.903 1.146 2.547 0 0-.868-.618-2.127-.447 0 0 2.405 2.042 2.042 6.44 0 0-.613-.672-2.18-.95 0 0 1.764 3.305.197 6.466 0 0-.113-1.12-.619-1.818 0 0-.394 2.325-3.188 3.135 0 0 2.266-2.826-.42-4.254-2.688-1.429-4.954 1.737-5.402 4.505 0 0-3.107.224-3.412-1.035-.309-1.258.587-1.791.587-1.791s.474.309 1.567-.197 3.386-1.876 3.162-3.61c-.224-1.732-2.938-3.443-5.097-2.74-2.158.703-3.385 2.602-4.505 2.575-1.12-.027-2.49-1.738-2.292-2.633.197-.896.922-1.147 1.173-2.66 0 0-.394.036-.654-.13s-.95-.448-1.326-.354c-.371.094-1.29.708-1.325.596-.036-.112.094-.784.094-.784s-1.008 1.066-.86 1.491c.148.43 1.026 1.491 1.94 2.091 0 0 .17 1.308 1.36 2.517.713.726 1.38.856 1.949.735.241.353 1.056 1.428 2.36 1.661 0 0-.224-1.5-.063-2.633a.531.531 0 00.143-.094c.206-.206 2.593-2.41 4.366-.278 0 0-.801.3-1.12 1.308-.317 1.007-.5 3.506-3.134 1.903 0 0-.224 1.438.578 2.293 0 0-.112 1.531 1.62 2.369 1.734.837 2.948.206 4.067.766 0 0-.112-2.293.842-3.695.95-1.397 2.297-1.867 2.947-1.325.654.541 1.066 2.592-1.456 4.72 0 0 2.893.371 4.873-1.138 0 0-.247 2.665-2.244 4.926A16.027 16.027 0 0035.453 30.48a15.856 15.856 0 00-2.069-7.909zM6.201 31.518c-.43 0-1.195-1.137-1.325-1.36-.13-.225.725-.637.99-.709.264-.071.537-.013.577.112.036.113-.542.466-.618.596-.076.13.457.623.542.726.152.188.264.636-.166.636zm3.507 3.583a3.75 3.75 0 00.34-.228c.273-.206.48-.305.614-.35-.027.394-.054 1.088.071 1.662 0 0-.725-.462-1.025-1.084zm5.692.95s.877.035.913-.113c.036-.147-.277-1.173-.277-1.173s1.101.112 1.12.466c.017.354-.619 1.25-1.962 1.827.004 0 .246-.708.206-1.008zM12.605 39c-.25-.085-.475-1.007-.475-1.007.363.295 1.107.309 1.107.309-.35.331-.377.78-.632.699z"/><path d="M21.763 23.193s-1.885-1.06-2.723.036c-.788 1.035-.277 2.813-.738 3.919-.014-.014-.032-.027-.045-.04-1.044-.932-2.333.653-2.575 1.119-.242.466-.56.524-.56.524-2.293.466-1.81-1.38-2.575-1.94-.766-.559-2.05.26-2.05.26 1.289-.241 1.584.654 1.549 1.008-.036.354.224 1.397.577 1.98.354.577 1.792.17 2.965.26 1.173.093 1.845 1.53 1.845 1.53.707-1.714-1.196-2.498-1.196-2.498s.555-1.052 1.214-.69c2.091 1.156 1.567 5.84 1.567 5.84 1.8-3.386 1.008-5.37.067-6.534.126-1.057.659-4.38 2.678-4.774z"/></g><defs><clipPath id="clip0"><path fill="#fff" d="M0 0h208v58H0z"/></clipPath></defs></svg>