<svg width="24" height="25" viewBox="0 0 24 25" fill="none" xmlns="http://www.w3.org/2000/svg"><g clip-path="url(#clip0)"><path d="M11.1 10.593l.005-7.288c0-.8-.642-1.427-1.462-1.427-.807 0-1.463.669-1.463 1.491v.006c0 .995-.809 1.804-1.804 1.804h-.183c-.325 0-.645.135-.877.37a1.136 1.136 0 00.059 1.671.937.937 0 01-.48 1.629l-.922.14a2.445 2.445 0 00-2.052 2.402c0 1.34 1.09 2.43 2.43 2.43a.937.937 0 110 1.875c-.356 0-.702-.044-1.033-.126a2.434 2.434 0 00-.613 1.616c0 1.093.89 1.982 1.982 1.982h.083a2.722 2.722 0 012.526 1.708 1.981 1.981 0 001.833 1.253c.333 0 .605-.051.833-.156a.937.937 0 11.786 1.701c-.48.222-1.01.33-1.62.33-1.569 0-2.97-.95-3.568-2.421a.855.855 0 00-.79-.54h-.083a3.86 3.86 0 01-3.856-3.857c0-1.073.382-1.898.786-2.472a4.298 4.298 0 01-.523-6.137 4.312 4.312 0 012.144-1.345 2.992 2.992 0 01.745-3 3.127 3.127 0 012.21-.928h.114c.034-1.826 1.517-3.3 3.336-3.3.89 0 1.725.337 2.352.95l.047.048c.016-.016.031-.033.048-.048a3.341 3.341 0 012.352-.95c1.818 0 3.301 1.474 3.336 3.3h.122a3.12 3.12 0 012.194.917 2.996 2.996 0 01.752 3.013 4.33 4.33 0 013.003 2.898.937.937 0 01-1.792.548 2.44 2.44 0 00-1.949-1.689l-.921-.142a.937.937 0 01-.477-1.63c.25-.22.393-.536.395-.867.002-.3-.119-.587-.34-.81a1.23 1.23 0 00-.865-.363h-.192c-.995 0-1.804-.81-1.804-1.804v-.006c0-.822-.656-1.491-1.462-1.491-.82 0-1.463.627-1.463 1.427l-.005 7.29a.937.937 0 01-1.874-.001z" fill="#7E859D"/><path d="M23.274 17.732a.937.937 0 00-1.091.75 4.448 4.448 0 01-4.378 3.638 4.456 4.456 0 01-4.451-4.451 4.456 4.456 0 015.652-4.288.937.937 0 10.504-1.805 6.333 6.333 0 00-8.03 6.093 6.333 6.333 0 006.325 6.326 6.322 6.322 0 006.22-5.172.937.937 0 00-.75-1.091zm-1.536-3.822l-3.93 3.89-1.215-1.216a.937.937 0 00-1.325 1.326l1.38 1.38c.32.319.74.479 1.16.479.417 0 .835-.158 1.153-.473l4.095-4.053a.937.937 0 00-1.318-1.333z" fill="#35B972"/></g><defs><clipPath id="clip0"><path fill="#fff" d="M0 .003h24v24H0z"/></clipPath></defs></svg>