<svg width="44" height="44" viewBox="0 0 44 44" fill="none" xmlns="http://www.w3.org/2000/svg"><path d="M41.833 17.402a.917.917 0 01-.913.912.917.917 0 01-.913-.912c0-.502.412-.913.913-.913.5 0 .913.394.913.913zm-1.218 3.472s-1.45.411-3.293.734L36.16 32.81s-.161 2.399-1.915 2.399h-2.13l-.018.232s-.268 1.647-1.7 1.862c-1.432.214-29.155 0-29.155 0S.078 37.089.024 35.979c-.054-1.11 0-23.678 0-23.678s.376-1.432 2.022-1.647c.645-.09 5.441-.877 11.079-1.807l1.88-3.58a2.113 2.113 0 012.308-1.074 2.1 2.1 0 011.414.967 2.078 2.078 0 00-1.343-.645h-.178c-.752 0-1.486.412-1.862 1.11L1.402 32.078a2.098 2.098 0 00.877 2.827c1.02.537 2.29.144 2.828-.877l10.022-19.042v15.713c0 1.146.931 2.077 2.077 2.077 1.288 0 2.147-1.611 2.219-1.754l5.512-10.631v9.199a2.077 2.077 0 004.152 0V11.87c0-1.145-.93-2.076-2.076-2.076-.877 0-1.61.537-1.915 1.307-.018.018-.018.035-.035.053L19.657 21.59l-1.324 2.792.966-3.473V7.81c7.142-1.2 13.764-2.31 13.764-2.31s1.754-.429 1.861 1.433l-.072.77c.609-.126 3.437-.627 3.634 1.771l-.394 5.727s.483.34 2.595-.465c0 0 2.971-1.181 3.293 1.772-.018 0 .555 3.024-3.365 4.367zM34.835 7.79l-2.488 25.217c.555.072 1.432.018 1.593-.895.232-1.36 2.308-22.461 2.308-22.461s.376-1.002-1.413-1.861zm7.731 9.61c0-.912-.733-1.646-1.646-1.646-.913 0-1.647.734-1.647 1.647 0 .912.734 1.646 1.647 1.646s1.646-.734 1.646-1.646z" fill="#B0BCE2" opacity=".2"/></svg>