<svg width="59" height="58" viewBox="0 0 59 58" fill="none" xmlns="http://www.w3.org/2000/svg"><g opacity=".2" clip-path="url(#clip0)"><path d="M51.268 58H7.232A6.982 6.982 0 01.25 51.018V6.982A6.982 6.982 0 017.232 0H51.27a6.982 6.982 0 016.981 6.982V51.02A6.984 6.984 0 0151.269 58z" fill="#B0BCE2"/><path d="M30.43 50.389c-.136.008-.229.02-.322.02-1.804.001-3.608-.006-5.411.007-.29.001-.352-.092-.351-.364.009-4.137.006-8.275.006-12.413 0-.668-.304-1.144-.89-1.368-.61-.233-1.168-.128-1.648.32-.308.285-.396.656-.394 1.069.004 4.084.004 8.168.003 12.253 0 .155-.013.312-.022.497h-.343c-1.794 0-3.586-.007-5.38.006-.283.001-.353-.08-.353-.358.008-4.148.007-8.297.004-12.444 0-.869-.63-1.47-1.499-1.455-.823.016-1.42.614-1.42 1.436-.001 4.137-.004 8.275.006 12.413.001.316-.07.414-.402.41a330.988 330.988 0 00-5.348-.002c-.272.001-.365-.063-.365-.352.008-4.181-.005-8.36.01-12.541.01-2.913 1.918-5.509 4.817-6.53 2.423-.854 4.757-.613 6.955.734.225.138.37.135.583-.003 3.003-1.922 7.034-1.547 9.615.91 1.411 1.342 2.147 2.995 2.147 4.958v12.413c.003.116.003.231.003.383zm-.001-22.917c-.138.008-.23.018-.323.018-1.804.002-3.608-.005-5.411.009-.29.003-.352-.092-.352-.364.007-4.137.004-8.275.007-12.412 0-.571-.214-1.014-.719-1.288-.526-.286-1.06-.272-1.572.041-.457.28-.644.703-.643 1.234.006 1.91.003 3.82.003 5.728l-.001 6.621c0 .135-.012.27-.019.413h-6.07v-.424c0-4.128 0-8.254-.002-12.381 0-.745-.5-1.308-1.242-1.418-.737-.107-1.447.327-1.632 1.014a1.96 1.96 0 00-.045.503c-.003 4.084-.001 8.169-.003 12.254 0 .534.042.469-.484.47-1.75.002-3.5-.004-5.251.008-.27.001-.37-.055-.37-.347.009-4.169-.007-8.34.012-12.509.014-3.015 2.018-5.677 4.96-6.624 2.42-.779 4.726-.516 6.89.84.18.113.29.081.446-.018 3.25-2.07 7.46-1.542 10.068 1.29 1.134 1.23 1.74 2.704 1.746 4.387.013 4.212.004 8.425.004 12.636.003.092.003.187.003.319zm1.857-9.914c-.03-5.445 4.422-9.935 9.887-9.97C47.64 7.554 52.17 12 52.194 17.423c.024 5.526-4.39 10.036-9.855 10.067a9.97 9.97 0 01-10.053-9.932zm9.928 4.274c2.389.01 4.312-1.88 4.322-4.248.01-2.394-1.877-4.336-4.224-4.349-2.43-.013-4.359 1.87-4.372 4.268a4.273 4.273 0 004.274 4.33zm-9.927 18.596c.023-5.493 4.514-9.953 9.997-9.927 5.489.027 9.944 4.526 9.912 10.013-.03 5.496-4.522 9.91-10.063 9.892-5.405-.017-9.869-4.54-9.846-9.978zm9.968 4.324a4.272 4.272 0 004.282-4.288c.005-2.38-1.903-4.31-4.264-4.31-2.41 0-4.33 1.897-4.333 4.276a4.277 4.277 0 004.315 4.322z" fill="#1C1F2D"/></g><defs><clipPath id="clip0"><path fill="#fff" transform="translate(.25)" d="M0 0h58v58H0z"/></clipPath></defs></svg>