<svg width="118" height="23" viewBox="0 0 118 23" fill="none" xmlns="http://www.w3.org/2000/svg"><g opacity=".2" fill="#B0BCE2"><path d="M115.241 2.4c-1.491-1.112-3.747-1.673-6.705-1.673h-7.746L97.91 17.74H87.762l.652-3.86h6.113l.724-4.335-6.109.01.654-3.843h6.297L96.93.728H84.143L81.41 16.865h-4.693L79.469.727h-6.684l-2.734 16.137h-4.57L68.234.727h-6.68L58.67 17.74H48.45l.645-3.86h6.138l.725-4.31-6.132-.007.65-3.85h6.368l.833-4.985H17.83l-2.268 13.48L11.046.727H4.111l-3.732 22h6.623l2.26-13.852 4.382 13.852H37.38L40.266 5.71h3.712l-2.885 17.017h62.455l1.81-10.742 2.929 10.742h6.627l-3.035-8.777.694-.163c1.53-.357 2.723-1.123 3.553-2.272.83-1.159 1.253-2.647 1.253-4.435 0-2.082-.7-3.613-2.14-4.682l.002.001zM31.617 17.738H21.479l.655-3.86h6.359l.72-4.347h-6.297l.606-3.82h10.124L31.615 17.74h.002zm78.164-7.41c-.666.506-1.632.753-2.954.753h-1.309l1.004-5.904h.964c1.097 0 1.897.192 2.449.582.431.306.943.911.943 2.056-.001 1.385-.598 2.13-1.099 2.512h.002z"/><path d="M115.241 2.4c-1.491-1.112-3.747-1.673-6.705-1.673h-7.746L97.91 17.74H87.762l.652-3.86h6.113l.724-4.335-6.109.01.654-3.843h6.297L96.93.728H84.143L81.41 16.865h-4.693L79.469.727h-6.684l-2.734 16.137h-4.57L68.234.727h-6.68L58.67 17.74H48.45l.645-3.86h6.138l.725-4.31-6.132-.007.65-3.85h6.368l.833-4.985H17.83l-2.268 13.48L11.046.727H4.111l-3.732 22h6.623l2.26-13.852 4.382 13.852H37.38L40.266 5.71h3.712l-2.885 17.017h62.455l1.81-10.742 2.929 10.742h6.627l-3.035-8.777.694-.163c1.53-.357 2.723-1.123 3.553-2.272.83-1.159 1.253-2.647 1.253-4.435 0-2.082-.7-3.613-2.14-4.682l.002.001zM31.617 17.738H21.479l.655-3.86h6.359l.72-4.347h-6.297l.606-3.82h10.124L31.615 17.74h.002zm78.164-7.41c-.666.506-1.632.753-2.954.753h-1.309l1.004-5.904h.964c1.097 0 1.897.192 2.449.582.431.306.943.911.943 2.056-.001 1.385-.598 2.13-1.099 2.512h.002z"/></g></svg>