<svg width="44" height="44" viewBox="0 0 44 44" fill="none" xmlns="http://www.w3.org/2000/svg"><g opacity=".2" clip-path="url(#clip0)" fill="#B0BCE2"><path d="M35.898 10.48l8.097 24.958h-6.468s-2.643-.157-3.005-2.432c-.363-2.275-4.193-13.152-4.193-13.152l4.75-11.45.82 2.076zM25.867 34.944c-.189.195-.42.368-.714.494h-5.596s-.683-.036-1.398-.378c-.693-.326-1.434-.93-1.608-2.054-.362-2.276-4.193-13.152-4.193-13.152l4.608-11.082.962 1.708L22 23.027l3.867 11.917z"/><path d="M17.688 10.906v.001l.86.532-.102-1.009c-.126-1.261-.59-2.007-1.085-2.434a2.243 2.243 0 00-.663-.4 1.796 1.796 0 00-.327-.09l-.01-.001h-.003l-.002-.001h-.001L16.294 8l.06-.496-.03-.004h-.03 0-.001 0-.001 0-.001 0-.002 0-.002 0-.002 0-.002 0-4.908c-1.372 0-2.314.67-2.896 1.32A4.867 4.867 0 007.7 10l-.038.088-.011.027-.003.008-.001.003v.001h-.001l.467.18-.467-.179-.005.013-.005.014-8.112 25.404-.209.653H0v-.5.5h5.706c1.037 0 1.748-.25 2.277-.659.451-.347.74-.793.97-1.148l.082-.126c.065-.1.144-.282.22-.468.085-.208.193-.485.319-.82.252-.67.584-1.582.967-2.653a896.97 896.97 0 002.707-7.729c1.93-5.577 3.833-11.173 3.983-11.637a.44.44 0 01.06-.126.094.094 0 01.028-.027c.006-.004.03-.015.091-.009a.706.706 0 01.263.088.308.308 0 01.015.008z" stroke="#1C1F2D"/><path d="M19.045 35.711h-.058c-.142 0-.536-.02-.962-.247-.478-.241-.998-.735-1.255-1.728.215.378 1.124 1.891 1.954-.463.021-.063.047-.131.069-.205l.252 2.643z"/><path d="M35.45 10.701h-.001l-.003-.006a1.862 1.862 0 00-.067-.12c-.441 1.301-2.227 6.506-4.035 11.696a947.37 947.37 0 01-2.805 7.962 184.543 184.543 0 01-1 2.73c-.13.343-.24.628-.327.84a3.33 3.33 0 01-.223.476m8.46-23.578l-8.878 23.303M35.449 10.7h.001m0 0h0m-8.461 23.58s0 0 0 0l-.418-.275m.418.275v-.001l-.418-.274m.418.275l-.062.094c-.185.285-.405.623-.704.922m.348-1.291l-.062.094c-.19.29-.381.586-.642.846m.356.351l.002-.002-.358-.349m.356.351a2.686 2.686 0 01-.867.6c-.455.21-1.008.316-1.696.316h-4.613 0-.001 0-.001 0-.001 0-.001 0-.001 0-.001 0-.001 0-.001 0-.001 0-.001 0-.001 0-.001 0-.001 0-.001 0-.001 0-.001 0-.001 0-.001 0-.001 0-.001 0-.001 0-.001 0-.001 0-.001 0-.001 0-.001 0-.001 0-.001 0-.001 0-.001 0-.001 0-.001 0-.001 0-.001 0-.001 0-.001 0-.001 0-.001 0-.001 0-.001 0-.001 0-.001 0-.001 0-.001 0-.001 0H19h0-.001 0-.001 0-.001 0-.001 0-.001 0-.001 0-.001 0-.001 0-.001 0-.001 0-.001c-.187 0-.672-.026-1.196-.305l-.37-.197.129-.399.13-.401.001-.003.567-1.784.002-.007h0l.03-.087c.012-.035.021-.06.032-.097l.002-.007.002-.008 3.205-10.04h0l4.062-12.721.004-.013.005-.013.467.178-.467-.179h0v-.001l.002-.003.003-.008.01-.027.04-.088a4.85 4.85 0 01.778-1.181c.581-.65 1.523-1.32 2.897-1.32h4.918V8l.001-.5h.017a.884.884 0 01.105.009c.061.007.142.022.237.05.19.054.435.16.685.363.509.414.966 1.171 1.108 2.505l-.945.274m-9.227 24.594l-.003.003-.353-.354m0 0l9.583-24.243" stroke="#1C1F2D"/></g><defs><clipPath id="clip0"><path fill="#fff" d="M0 0h44v44H0z"/></clipPath></defs></svg>