<svg width="24" height="25" viewBox="0 0 24 25" fill="none" xmlns="http://www.w3.org/2000/svg"><g clip-path="url(#clip0)"><path d="M17.708 9.574H16.25a.75.75 0 010-1.5h1.458c.138 0 .292-.168.292-.41 0-.242-.154-.41-.292-.41h-.417c-.988 0-1.792-.858-1.792-1.912 0-1.054.804-1.91 1.792-1.91h1.458a.75.75 0 010 1.5H17.29c-.137 0-.291.168-.291.41 0 .242.154.411.292.411h.417c.988 0 1.792.857 1.792 1.911s-.805 1.91-1.793 1.91z" fill="#35B972"/><path d="M17.5 4.7a.75.75 0 01-.75-.75v-.697a.75.75 0 011.5 0v.696a.75.75 0 01-.75.75zm0 5.803a.75.75 0 01-.75-.75v-.696a.75.75 0 011.5 0v.696a.75.75 0 01-.75.75z" fill="#35B972"/><path d="M17.5 13.003a6.508 6.508 0 01-6.5-6.5c0-3.584 2.916-6.5 6.5-6.5S24 2.92 24 6.503s-2.916 6.5-6.5 6.5zm0-11.5c-2.757 0-5 2.243-5 5s2.243 5 5 5 5-2.243 5-5-2.243-5-5-5z" fill="#35B972"/><path d="M21.25 24.003H2.75A2.752 2.752 0 010 21.253v-16.5a2.752 2.752 0 012.75-2.75h6.84a.75.75 0 010 1.5H2.75c-.69 0-1.25.561-1.25 1.25v16.5c0 .69.56 1.25 1.25 1.25h18.5c.689 0 1.25-.56 1.25-1.25v-8.17a.75.75 0 011.5 0v8.17a2.752 2.752 0 01-2.75 2.75z" fill="#7E859D"/><path d="M8.76 7.003H.75a.75.75 0 010-1.5h8.01a.75.75 0 010 1.5zm4.99 12.5a.75.75 0 01-.57-1.239l1.082-1.26-1.082-1.263a.75.75 0 011.139-.977l1.5 1.75a.75.75 0 010 .977l-1.5 1.75a.747.747 0 01-.57.262zm-6.5 0a.75.75 0 01-.57-.262l-1.5-1.75a.75.75 0 010-.977l1.5-1.75a.75.75 0 011.139.977l-1.081 1.262 1.082 1.262a.75.75 0 01-.57 1.238zm2.5 1.5a.75.75 0 01-.732-.919l1.5-6.5a.75.75 0 011.462.337l-1.5 6.5a.748.748 0 01-.73.582z" fill="#7E859D"/></g><defs><clipPath id="clip0"><path fill="#fff" d="M0 .003h24v24H0z"/></clipPath></defs></svg>