<svg width="212" height="58" viewBox="0 0 212 58" fill="none" xmlns="http://www.w3.org/2000/svg"><g opacity=".2" clip-path="url(#clip0)"><path d="M58.218 39.727c-4.469 4.691-11.205 4.878-15.96 2.336-2.518-1.346-3.771-3.526-3.998-6.336-.118-1.448-.12-2.901.363-4.302 1.058-3.087 3.513-4.454 6.422-5.193a17.185 17.185 0 014.39-.506c2.377.023 4.754-.005 7.132-.02 1.717-.011 1.684-.016 1.656-1.703-.026-1.633-.764-2.795-2.228-3.404-2.583-1.074-5.223-1.074-7.846-.134-1.022.366-1.84 1.067-2.275 2.08-.255.594-.564.816-1.213.804-1.675-.03-3.352 0-5.027.05-.576.017-.733-.166-.695-.74.164-2.483 1.36-4.384 3.267-5.846 2.661-2.045 5.722-2.857 9.041-2.918 3.631-.07 7.025.622 10.042 2.766 2.36 1.678 3.6 3.95 3.602 6.875.005 6.244-.007 12.485.012 18.728.002.663-.094 1.004-.876.978-1.675-.057-3.352-.04-5.026-.007-.619.011-.825-.206-.792-.817.042-.807.01-1.616.01-2.69zm-4.516-9.034v.008c-1.169 0-2.34-.029-3.508.007-1.176.038-2.315.281-3.34.897-1.312.785-1.93 2.023-1.685 3.33.307 1.625 1.24 2.565 2.849 2.823 3.52.563 6.422-.634 8.797-3.226a5.172 5.172 0 001.363-3.048c.061-.613-.098-.828-.735-.805-1.246.048-2.495.014-3.74.014zm156.294 5.458c-1.813 3.533-4.797 5.458-8.318 6.67-8.624 2.967-17.445-1.785-19.579-10.52-2.335-9.56 4.926-18.639 14.714-18.404 8.629.208 15.192 7.755 14.377 16.5-.075.8-.386 1.025-1.169 1.023-6.743-.029-13.486.01-20.228-.043-1.154-.01-1.178.346-.838 1.257 1.218 3.261 4.748 5.292 8.491 4.838 2.251-.273 4.312-.98 5.984-2.599.26-.25.471-.41.909-.28 1.855.55 3.731 1.033 5.657 1.558zm-5.879-10.139c-1.172-4.255-5.146-6.686-9.248-5.82-2.881.608-4.905 2.227-5.989 5.013-.187.483-.3.814.426.814 4.905-.012 9.814-.007 14.811-.007zM74.782 54.734c1.39-3.514 2.708-6.927 4.1-10.311.367-.895.379-1.638.002-2.547-3.675-8.82-7.301-17.663-10.941-26.498-.117-.284-.222-.57-.389-.998 2.35 0 4.596.016 6.837-.012.684-.01.691.525.848.923 2.42 6.172 4.825 12.35 7.236 18.524.112.289.23.577.35.888.476-.23.465-.715.603-1.087 2.267-6.104 4.535-12.207 6.75-18.33.263-.722.588-.95 1.324-.928 1.712.052 3.434.083 5.143-.007 1.141-.06 1.183.289.809 1.23-4.102 10.33-8.175 20.672-12.255 31.01-.975 2.466-1.954 4.93-2.921 7.4-.16.407-.267.765-.85.755-2.174-.03-4.345-.012-6.645-.012zm68.398-16.278c.747-2.48 1.496-4.96 2.237-7.446 1.559-5.233 3.136-10.46 4.651-15.705.22-.762.565-.961 1.296-.942 1.791.047 3.588.066 5.38-.005.934-.038 1.084.178.796 1.075-2.157 6.719-4.27 13.454-6.394 20.183-.717 2.27-1.464 4.53-2.132 6.811-.178.61-.433.81-1.042.805a579.951 579.951 0 00-9.941.005c-.597.007-.791-.258-.946-.755-2.897-9.306-5.804-18.607-8.77-28.1 2.408 0 4.718.002 7.03-.003.658-.002.566.592.672.933 1.988 6.57 3.947 13.147 5.914 19.724.34 1.136.691 2.27 1.035 3.406l.214.014zm26.189-20.164c2.63-3.368 5.94-4.608 9.98-4.135.48.057.785.088.776.712-.036 2.235-.014 4.469-.014 6.819-1.617-.424-3.188-.646-4.744-.315-3.897.83-5.984 3.477-5.996 7.512-.012 4.397-.03 8.795.019 13.19.009.92-.227 1.214-1.155 1.169-1.632-.078-3.272-.043-4.909-.012-.607.012-.902-.092-.9-.819.024-9.069.021-18.136 0-27.205-.002-.696.246-.854.881-.843 1.715.036 3.431.043 5.144-.002.7-.019.981.159.934.911-.063 1.004-.016 2.012-.016 3.018zm-60.384 5.843c0 6.005-.022 12.009.021 18.013.007.897-.242 1.134-1.106 1.094a51.287 51.287 0 00-4.673 0c-.895.04-1.183-.192-1.176-1.148.047-5.808.024-11.616.024-17.424 0-6.16.026-12.324-.026-18.484-.009-1.006.274-1.257 1.23-1.205 1.515.083 3.04.074 4.556.003.885-.04 1.18.175 1.173 1.136-.047 6.006-.023 12.01-.023 18.015zm7.434 4.681c0-4.473.021-8.946-.019-13.419-.007-.826.213-1.067 1.033-1.037 1.712.064 3.427.043 5.141.008.626-.015.883.115.881.825a5867.98 5867.98 0 00-.002 27.192c.002.67-.195.868-.851.852-1.752-.043-3.506-.06-5.258.007-.815.03-.944-.284-.939-1.008.028-4.473.014-8.947.014-13.42zM.64 34.248c0-2.754-.016-9.495-.016-9.495H1.79s10.535-.12 15.803-.174c3.475-.035 6.131-2.59 6.51-6.299.317-3.1-2.013-6.401-5.17-6.883-2.199-.335-11.784-.284-11.784-.284V4.98s9.429-.22 13.691.367c5.445.75 10.007 6.43 10.137 12.388.14 6.357-4.509 12.198-11.143 13.059-3.438.447-11.957.319-11.957.319v1.515l.019 11.08H.627c0 .002.013-6.667.013-9.46z" fill="#B0BCE2"/><path d="M116.4 9.476h10.12V3.25H116.4v6.225z" fill="url(#paint0_linear)"/><path fill="#B0BCE2" d="M.422 11.079h6.754v6.754H.422z"/></g><defs><linearGradient id="paint0_linear" x1="116.4" y1="3.251" x2="127.507" y2="3.251" gradientUnits="userSpaceOnUse"><stop stop-color="#B0BCE2"/><stop offset=".847" stop-color="#B0BCE2" stop-opacity="0"/></linearGradient><clipPath id="clip0"><path fill="#fff" transform="translate(.25)" d="M0 0h211v58H0z"/></clipPath></defs></svg>