<svg width="227" height="58" viewBox="0 0 227 58" fill="none" xmlns="http://www.w3.org/2000/svg"><g opacity=".2" fill="#B0BCE2"><path d="M49.257 54.148c-2.834-.105-5.721-.224-8.621-.435-1.977-.145-3.941-.303-5.906-.54a62.637 62.637 0 01-9.74-2.017c-4.232-1.226-8.266-2.9-11.996-5.286-4.31-2.768-7.712-6.367-9.913-11.02-1.186-2.491-1.859-5.114-1.82-7.896.067-4.653 1.807-8.607 5.181-11.824 2.676-2.544 5.866-4.033 9.505-4.613.698-.12 1.41-.172 2.122-.25.395-.04.606.223.461.619-.224.606-.514 1.2-.738 1.806-1.49 4.06-1.173 8.04.474 11.969 2.4 5.747 6.591 9.741 12.194 12.338 3.203 1.49 6.564 2.465 10.031 3.137 2.228.435 4.469.699 6.736.923.672.066 1.345.119 2.017.158.58.04.922.356 1.107.883.83 2.478 1.66 4.97 2.333 7.5.29 1.055.646 2.097.818 3.178.145.87-.264 1.357-1.147 1.397-.857.04-1.714-.013-2.57-.04-.172.013-.317.013-.528.013z"/><path d="M53.092 38.342c-3.585.013-7.355-.198-11.1-.818-4.692-.764-9.174-2.148-13.22-4.706-4.113-2.596-6.96-6.169-8.424-10.835-1.924-6.143 1.108-13.037 5.814-15.805 4.864-2.86 9.82-2.98 14.79-.25 3.532 1.937 6.327 4.705 8.66 7.961 2.94 4.126 5.101 8.648 6.828 13.393 1.081 2.992 2.03 6.024 2.729 9.122.026.105.053.21.066.316.158.923-.277 1.477-1.213 1.53-1.582.078-3.164.092-4.93.092zm100.073-15.113l-6.144 9.347c-2.088-3.168-4.09-6.208-6.093-9.245l-.246.073c-.016.303-.048.608-.048.91-.003 4.1-.021 8.198.016 12.296.007.783-.211 1.065-.996 1.016a28.42 28.42 0 00-2.916-.003c-.668.028-.941-.173-.939-.899.021-6.949.018-13.898.005-20.847-.002-.599.168-.861.805-.841a58.9 58.9 0 003.712-.004c.577-.02.902.193 1.201.683 1.679 2.758 3.392 5.494 5.097 8.234.103.166.23.314.434.588.256-.358.469-.622.647-.909 1.61-2.592 3.231-5.175 4.806-7.789.368-.61.789-.846 1.493-.81 1.146.056 2.298.039 3.446.007.6-.018.842.181.841.81a5457.68 5457.68 0 00-.004 21.026c.002.612-.272.76-.809.749a57.312 57.312 0 00-3.182.004c-.669.025-.842-.245-.839-.892.023-4.188.011-8.375.007-12.561 0-.28-.028-.558-.042-.838a8.206 8.206 0 00-.252-.105zm-76.651 3.147c0-3.473.018-6.945-.014-10.416-.005-.69.177-.936.885-.93 2.827.033 5.656-.033 8.481.026 2.776.059 5.331.775 7.058 3.185a7.795 7.795 0 01-5.119 12.307c-1.756.289-3.575.244-5.366.27-.759.011-1.052.229-1.031 1.019.044 1.63-.009 3.264.023 4.895.012.649-.2.906-.864.883a49.933 49.933 0 00-3.267.003c-.61.018-.805-.198-.8-.827.03-3.47.014-6.942.014-10.415zm4.912-3.394h-.004c0 .918.009 1.836-.004 2.754-.007.517.21.772.735.76 1.408-.038 2.827.02 4.225-.122 1.822-.183 3.027-1.66 2.997-3.462-.032-1.841-1.242-3.19-3.125-3.325-1.374-.098-2.761-.035-4.141-.058-.492-.01-.69.22-.685.698.007.919.002 1.837.002 2.755zm130.023 12.967c-.342.258-.544.413-.747.567-2.265 1.699-4.754 1.85-7.287.855-2.175-.852-3.256-2.891-3.012-5.218.264-2.5 1.741-4.153 4.23-4.718a12.103 12.103 0 015.947.117c.883.24 1.051.077.911-.857-.184-1.227-1.15-2.104-2.581-2.298-1.665-.227-3.305-.064-4.873.53-.801.306-1.12.033-1.311-.707-.155-.602-.323-1.208-.569-1.775-.296-.68-.122-.993.569-1.245 2.573-.934 5.196-1.306 7.905-.846 3.448.584 5.465 2.8 5.568 6.326.099 3.413.019 6.83.041 10.246.003.506-.183.691-.666.686-1.061-.012-2.123-.03-3.182.007-.648.023-.938-.205-.869-.871.019-.198-.036-.405-.074-.8zm-3.116-6.067c-.667.214-1.592.355-2.35.792-1.178.677-1.304 2.455-.286 3.278 1.203.974 2.586.845 3.933.364 1.166-.42 1.856-1.28 2.024-2.557.101-.77-.117-1.273-.91-1.426-.716-.142-1.436-.27-2.411-.45zm-100.89 6.092c-.394.29-.668.505-.957.7-2.39 1.623-4.931 1.703-7.466.503-2.079-.984-2.926-3.128-2.516-5.753.305-1.941 2.033-3.542 4.246-4.009a12.525 12.525 0 015.943.16c.795.214.963.043.832-.779-.214-1.35-1.2-2.244-2.668-2.413a10.696 10.696 0 00-4.956.577c-.642.235-.913.048-1.082-.57-.204-.742-.52-1.455-.689-2.204-.055-.246.136-.738.336-.82 2.966-1.223 6.03-1.624 9.158-.793 2.778.738 4.239 2.71 4.483 5.525.158 1.827.081 3.676.096 5.515.012 1.662-.032 3.325.017 4.987.023.76-.173 1.089-.98 1.028a17.784 17.784 0 00-2.56-.002c-.821.058-1.244-.178-1.099-1.08.02-.13-.061-.274-.138-.572zm-3.117-6.07c-.623.185-1.467.337-2.215.688-.824.387-1.102 1.19-1.024 2.09.077.896.601 1.463 1.424 1.73 1.394.453 2.732.282 3.951-.54.716-.483 1.091-1.194 1.208-2.071.12-.908-.23-1.394-1.118-1.526-.664-.102-1.325-.221-2.226-.371zm69.511 5.956c-1.454 1.381-2.988 2.046-4.77 2.075-1.852.03-3.604-.273-4.945-1.7-1.495-1.59-1.656-3.511-1.045-5.488.605-1.954 2.165-2.88 4.046-3.325 1.962-.465 3.915-.39 5.858.13.865.232 1.088.018.92-.86-.241-1.265-1.276-2.16-2.691-2.313a11.187 11.187 0 00-5.046.604c-.593.214-.801 0-.959-.506-.235-.765-.538-1.512-.715-2.29-.056-.249.121-.751.312-.828 3.211-1.275 6.507-1.722 9.837-.578 2.239.77 3.556 2.509 3.747 4.846.217 2.685.157 5.394.205 8.092.018 1.039-.021 2.078.012 3.118.02.586-.207.795-.773.779a39.738 39.738 0 00-2.917.005c-.692.032-1.081-.14-.977-.927.027-.185-.041-.387-.099-.834zm-2.9-5.926c-.61.12-1.358.17-2.036.419-1.582.581-1.976 2.678-.74 3.681 1.559 1.264 4.765.523 5.621-1.3.655-1.395.312-2.167-1.146-2.515-.515-.123-1.042-.178-1.699-.285zm-38.632-9.557c-.568 1.53-1.044 2.827-1.53 4.12-1.883 4.986-3.714 9.993-5.672 14.951-1.729 4.373-5.984 3.956-8.838 2.54-.18-.088-.306-.623-.219-.862.281-.777.633-1.537 1.047-2.252.121-.207.538-.328.819-.328.307 0 .606.214.92.285.724.164 1.395.11 1.955-.48.574-.6.19-1.16-.03-1.723-2.004-5.165-4.016-10.326-6.022-15.488-.071-.182-.106-.377-.211-.762h3.33c1.686 0 1.699-.003 2.236 1.607 1.005 3.005 1.992 6.016 2.994 9.022.088.264.216.513.412.973.195-.44.319-.665.395-.905 1.051-3.272 2.121-6.538 3.121-9.825.221-.724.569-.915 1.263-.888 1.256.048 2.514.015 4.03.015zm66.294.017c-.513 1.41-.936 2.601-1.378 3.785-1.752 4.69-3.507 9.38-5.265 14.067-.135.36-.308.706-.455 1.063-1.442 3.483-4.236 4.286-7.555 3.229-2.434-.776-1.9-.61-1.09-2.552.046-.108.101-.213.153-.32.601-1.27.598-1.257 1.979-.885.335.091.701.136 1.044.105 1.085-.098 1.57-.916 1.175-1.923-1.992-5.104-3.986-10.208-5.976-15.312-.137-.35-.25-.706-.448-1.275.996 0 1.833-.003 2.67 0 2.427.011 2.425.013 3.197 2.35.92 2.785 1.841 5.568 2.769 8.35.079.241.201.467.514.713.333-.996.674-1.987.996-2.988.827-2.565 1.635-5.137 2.477-7.7.089-.268.354-.671.549-.678 1.465-.056 2.93-.029 4.644-.029z"/></g></svg>