<svg width="126" height="58" viewBox="0 0 126 58" fill="none" xmlns="http://www.w3.org/2000/svg"><path d="M88.006 32.052c0-4.771-.002-9.542.002-14.314.002-1.041.461-1.491 1.487-1.491h4.948c.926.002 1.305.3 1.462 1.213.074.429.254.203.409.097 1.16-.786 2.41-1.318 3.824-1.48 2.433-.275 4.576.372 6.43 1.943.347.295.535.351.923.01 4.453-3.91 11.518-1.907 13.246 3.744A5.83 5.83 0 01121 23.5c-.006 7.657-.003 15.313-.006 22.969 0 1.11-.373 1.47-1.503 1.469-1.687-.001-3.375 0-5.062-.003-.829-.003-1.294-.442-1.347-1.27-.013-.187-.005-.376-.005-.565 0-6.657-.005-13.314.007-19.97.001-.867-.252-1.608-1.062-1.963-.915-.4-1.877-.434-2.764.16-.487.325-.721.812-.785 1.378-.033.299-.033.602-.033.904-.002 6.657-.001 13.314-.001 19.97 0 1.042-.38 1.419-1.437 1.42-1.707.001-3.413.002-5.119-.004-.836-.004-1.301-.442-1.343-1.272-.026-.508-.025-1.017-.025-1.527-.002-6.336-.001-12.672-.002-19.009 0-1.504-.71-2.166-2.233-2.214-1.03-.031-1.817.252-2.254 1.245-.113.257-.113.51-.113.773 0 6.695 0 13.39-.002 20.084 0 .207.003.415-.002.622-.022.76-.492 1.235-1.243 1.238-1.801.005-3.602.004-5.404 0-.702 0-1.141-.377-1.239-1.063-.032-.223-.021-.452-.021-.678C88 41.479 88 36.764 88 32.05l.006.002zM41.995 34.42v10.263c0 1.9-1.214 3.274-2.933 3.28-3.153.011-6.307.086-9.457-.016-3.864-.125-6.385-2.93-6.537-7.028a96.125 96.125 0 010-7.221c.145-3.807 2.548-6.61 5.995-7.127 1.44-.217 2.885-.128 4.329-.147.91-.013 1.234-.37 1.236-1.396.003-1.041-.37-1.493-1.238-1.493-2.038-.003-4.076 0-6.114-.001-.894-.002-1.318-.453-1.321-1.422a783.937 783.937 0 01-.001-4.702c.002-.907.425-1.387 1.238-1.388 2.42-.006 4.843-.054 7.262.014 1.77.05 3.499.4 4.98 1.598 1.167.945 1.874 2.221 2.23 3.753.286 1.231.34 2.482.336 3.745-.012 3.095-.005 6.191-.005 9.288zm-7.256 2.917c0-.743.01-1.488-.003-2.231-.01-.63-.353-1.106-.913-1.207a7.505 7.505 0 00-2.543-.004c-.56.092-.918.579-.923 1.2a288.699 288.699 0 00-.001 4.462c.005.738.47 1.27 1.136 1.292.694.025 1.39.027 2.085 0 .696-.028 1.148-.565 1.16-1.337.01-.724.002-1.45.002-2.175zm32.236-8.433c0 3.75.068 7.502-.02 11.25-.08 3.338-1.673 5.858-5.032 7.232-1.03.421-2.131.608-3.257.61-3.187.007-6.375.003-9.563 0-1.037-.001-1.477-.41-1.482-1.395-.008-1.713-.01-3.426 0-5.14.005-.905.459-1.318 1.431-1.32 2.335-.006 4.67-.002 7.004-.008.405-.002.81-.027 1.213-.066.932-.089 1.361-.52 1.324-1.308-.032-.69-.578-1.157-1.447-1.174a89.175 89.175 0 00-3.411-.001c-2.216.043-4.211-.527-5.903-1.887-1.524-1.225-2.37-2.82-2.68-4.665a11.798 11.798 0 01-.152-1.99c.007-3.807.002-7.615.004-11.422 0-1.157.498-1.618 1.735-1.617 1.705.002 3.411-.003 5.116.002 1.029.002 1.437.332 1.584 1.28.031.206.032.418.032.626.003 3.388 0 6.776.003 10.165.001 1.203.44 1.624 1.705 1.638.61.005 1.219.009 1.827-.005 1.028-.024 1.546-.497 1.546-1.446.002-1.56-.036-3.12-.035-4.68.002-2.132.017-4.263.047-6.393.01-.676.554-1.17 1.305-1.176 1.928-.019 3.857-.019 5.786 0 .818.008 1.31.556 1.311 1.413.005 3.826.003 7.652.003 11.479.002-.002.004-.002.006-.002zM0 32.027l.001-14.701c0-.816.43-1.303 1.22-1.303 3.994-.003 7.99-.072 11.98.044 3.97.114 6.724 3.12 6.776 7.214a335.67 335.67 0 01-.003 8.065c-.047 4.203-3.038 7.212-7.128 7.215-1.542.001-3.084.014-4.626-.011-.421-.007-.531.126-.528.551.019 2.44.009 4.882.007 7.323C7.697 47.594 7.3 48 6.167 48H1.485C.275 47.999 0 47.712 0 46.442V32.027zm7.7-4.748c0 .952.022 1.904-.008 2.854-.015.438.131.556.54.539.888-.037 1.779-.029 2.667-.04.832-.01 1.345-.527 1.352-1.388.01-1.295.006-2.59 0-3.884-.005-.845-.532-1.396-1.35-1.405-.91-.01-1.819.02-2.726-.01-.417-.014-.49.162-.482.536.021.932.008 1.865.008 2.797zm62.304-7.287c0-.868-.01-1.736.003-2.605.013-.849.393-1.288 1.175-1.32.776-.03 1.537-.116 2.293-.338 1.381-.407 2.405-1.33 3.25-2.549.518-.75.955-1.573 1.59-2.22.445-.454.925-.852 1.553-.945.718-.105 1.211.35 1.215 1.145.01 1.415.017 2.83-.004 4.246-.007.474.095.682.574.65.687-.046 1.378-.023 2.066-.008.822.017 1.274.525 1.277 1.42.004 1.717.006 3.435.002 5.152-.002.852-.438 1.328-1.213 1.34-.534.01-1.069.005-1.602.006-1.052.001-1.052.001-1.053 1.182l-.001 13.363-.001 7.984c-.001 1.084-.286 1.457-1.268 1.48a92.166 92.166 0 01-4.548-.006c-.948-.025-1.27-.451-1.272-1.5-.005-7.284-.013-14.57-.002-21.856.001-.533-.15-.684-.617-.66-.705.038-1.412.018-2.118.006-.892-.013-1.295-.46-1.3-1.42-.004-.85-.001-1.7-.001-2.548h.002z" opacity=".2" fill="#B0BCE2"/></svg>