<svg width="127" height="58" viewBox="0 0 127 58" fill="none" xmlns="http://www.w3.org/2000/svg"><g opacity=".2" clip-path="url(#clip0)" fill="#B0BCE2"><path d="M21.706 27.192c-1.686-2.673-2.668-5.448-2.947-8.322-2.45-2.002-6.363-2.984-11.727-2.95a15.662 15.662 0 00.96 6.425h-.054a12.61 12.61 0 002.296 3.596c.004.042.02.08.054.105a7.57 7.57 0 001.119 1.016c2.359 1.817 5.156 2.946 8.391 3.378a6.396 6.396 0 011.908-3.248zM11.403 39.825h-.055c-1.528 2.325-2.504 5.644-2.934 9.967 2.35.357 4.517.252 6.504-.323a12.51 12.51 0 004.638-2.573v-.054l.322-.323h.058c2.125-2.263 3.544-5.075 4.254-8.436a6.34 6.34 0 01-2.592-1.515c-3.26 2.14-6.66 3.223-10.195 3.257zM10.334 28.41a11.6 11.6 0 01-1.01-.912c-2.488.68-5.244 2.233-8.262 4.663a14.748 14.748 0 004.747 4.449 11.409 11.409 0 005.118 1.502h.48c3.181-.03 6.225-.99 9.126-2.879a6.411 6.411 0 01-.906-3.068c-3.557-.478-6.654-1.729-9.293-3.756zm19.062-1.915c1.678-2.602 2.63-5.288 2.852-8.058v-.105a9.19 9.19 0 00.054-1.015 11.5 11.5 0 00-1.545-5.632c-.99-1.784-2.463-3.37-4.413-4.768h-.012c-1.954 1.39-3.432 2.98-4.425 4.772a11.5 11.5 0 00-1.545 5.632c0 .34.017.68.054 1.016v.105c.213 2.669 1.106 5.262 2.68 7.78 2-1.04 4.4-.935 6.3.273zm2.267 18.958v-.055c-.33-2.631-1.252-5.217-2.76-7.747a6.307 6.307 0 01-2.905.705h-.125c-.777 3.697-2.347 6.794-4.714 9.296a.047.047 0 00-.054.042v.012a.047.047 0 01-.042.055h-.012c.534 2.753 2.187 5.808 4.955 9.174a15.448 15.448 0 004.371-4.822 11.727 11.727 0 001.44-4.503.552.552 0 01-.104-.323 6.286 6.286 0 00-.05-1.834zm-7.306-18.026c-.079.025-.167.046-.246.084a4.694 4.694 0 00-2.822 5.192c.025.138.05.28.083.415.034.134.08.277.125.415a4.917 4.917 0 001.754 2.326c.067.046.134.092.209.134.15.092.309.18.467.256.113.054.226.109.343.16a4.763 4.763 0 001.74.34c.055 0 .11-.013.163-.018v-.016a5.3 5.3 0 001.833-.416c2.413-1.057 3.52-3.886 2.463-6.312a4.769 4.769 0 00-5.323-2.782 4.385 4.385 0 00-.789.222zm17.943-4.02h-2.533v-.416h7.293c3.812 0 6.755 1.314 6.755 5.015 0 3.63-3.403 5.016-6.5 5.016-.873 0-1.896-.18-2.405-.437v8.113h2.618v.415h-7.761v-.415H42.3V23.407zm2.61 8.67a3.797 3.797 0 001.97.542c1.687 0 4.171-.903 4.171-4.378 0-3.37-1.536-4.834-4.584-4.834h-1.561l.004 8.67zm12.554-1.107h-2.046v-.416h2.046c.818 0 1.64-.05 2.15-.567v10.71h2.045v.416h-6.245v-.415h2.045l.005-9.729zm1.073-6.921a1.31 1.31 0 011.306 1.313 1.31 1.31 0 01-1.306 1.314 1.314 1.314 0 01-1.307-1.31 1.321 1.321 0 011.307-1.317zm13.81 15.671c0 .49.075 1.133.768 1.133.589 0 .948-.491 1.332-1.028l.284.21c-.485.847-1.153 1.389-2.255 1.389-1.202 0-2.075-.693-2.254-1.595h-.05c-.873 1.158-2.02 1.595-3.712 1.595-1.995 0-3.197-1.003-3.197-2.754 0-2.883 3.811-3.6 6.45-3.6h.484V31.9c0-1.209-1.127-1.49-2.1-1.49-.743 0-2.488.286-2.488 1.209 0 .625.843.336.843 1.494 0 .625-.513 1.079-1.177 1.079-.714 0-1.128-.567-1.128-1.44 0-1.314 1.382-2.753 3.941-2.753 1.946 0 4.25 1.003 4.25 2.984l.009 6.736zm-2.584-4.247c-1.867 0-4.196.05-4.196 2.803 0 1.44.23 2.522 1.866 2.522 1.92 0 2.764-1.44 2.764-1.955v-3.37h-.434zm6.562 1.905h.33c.209 1.313.869 3.626 3.557 3.626 1.407 0 2.488-.928 2.488-2.392 0-2.032-1.536-2.057-2.893-2.212-1.657-.18-3.277-.416-3.277-3.089 0-1.855 1.202-3.32 3.198-3.32 1.382 0 2.33.903 2.584.903.155 0 .18-.18.18-.542v-.21h.359l.1 3.06h-.33c-.18-1.46-.948-2.804-2.968-2.804-1.307 0-2.355.718-2.355 2.057s.998 1.8 2.697 1.905l.868.05c2.075.13 2.919 1.251 2.919 3.035 0 2.392-1.587 3.962-3.557 3.962-2.02 0-2.639-1.104-3.148-1.104-.33 0-.255.416-.309.953h-.4l-.043-3.878zm11.268-6.408h-2.225v-.416c2.66.05 3.632-1.079 4.07-3.601h.31v3.6h3.527v.416h-3.528v8.646c0 1.053.435 1.389 1.245 1.389 1.281 0 1.845-1.184 1.995-1.62l.384.075c-.18.626-.922 1.956-2.813 1.956-1.792 0-2.969-.592-2.969-2.295l.004-8.15zm9.531 0h-2.15v-.416h2.15c.831 0 1.641-.05 2.15-.567v3.035h.05c.31-1.159 1.203-3.035 3.303-3.035.948 0 1.691.626 1.691 1.52 0 .667-.414 1.208-1.178 1.208-.843 0-1.127-.436-1.127-1.133a1.24 1.24 0 01.564-1.108.567.567 0 00-.359-.076c-1.048 0-2.944 1.667-2.944 5.016v5.283h2.326v.416h-6.638v-.416h2.15l.013-9.728zm10.842 0h-2.045v-.416h2.045c.831 0 1.641-.05 2.15-.567v10.71h2.046v.416h-6.245v-.415h2.045v-9.729h.004zm1.073-6.921a1.31 1.31 0 011.307 1.313 1.31 1.31 0 01-1.307 1.314 1.313 1.313 0 010-2.627zm11.631 10.185l1.244-1.666c.309-.415.643-.927.643-1.133 0-.336-.359-.461-1.127-.461h-.538v-.416h4.734v.416h-.768c-.998 0-1.432.331-2.125 1.208l-1.866 2.392 3.732 6.124h1.686v.415h-6.262v-.415h1.996l-2.559-4.193-1.867 2.472c-.413.541-.622 1.028-.622 1.314 0 .23.13.415.622.415h1.153v.415h-4.985v-.415h.639c1.281 0 1.741-.487 2.789-1.855l2.074-2.711-3.122-5.17h-1.846v-.416h5.937v.415h-1.536l1.974 3.265z"/></g><defs><clipPath id="clip0"><path fill="#fff" transform="translate(.25)" d="M0 0h126v58H0z"/></clipPath></defs></svg>