<svg width="143" height="58" viewBox="0 0 143 58" fill="none" xmlns="http://www.w3.org/2000/svg"><g opacity=".2" fill="#B0BCE2"><path d="M64.252 39.736V27.65c.002-5.45 4.193-9.728 9.646-9.8 2.77-.036 5.542-.02 8.312.016 3.687.05 7.23 2.564 8.619 6.044a10.03 10.03 0 01.707 3.744c0 2.124.041 4.25-.01 6.372-.1 4.249-2.14 7.264-5.99 9.037-1.103.508-2.307.73-3.53.733-4.111.009-8.221.005-12.332.002-.683 0-1.018-.257-1.042-.779-.026-.574.364-.931 1.032-.931 2.312.001 4.625.007 6.937.009 1.725 0 3.45.006 5.175-.001 4.427-.019 7.943-3.404 8.045-7.817.057-2.487.15-4.985-.046-7.464-.227-2.888-1.765-4.992-4.298-6.375-1.236-.675-2.579-.913-3.973-.913-2.46 0-4.918.015-7.377-.007-4.628-.041-8.205 3.748-8.181 8.11.045 8.166.013 16.333.012 24.5 0 .274.01.553-.035.822-.08.462-.455.747-.901.698-.462-.051-.717-.328-.766-.788-.013-.126-.002-.256-.002-.384-.002-4.245-.002-8.494-.002-12.742zm44.213 2.351c1.024-.005 2.05.071 3.057-.228 1.279-.38 2.204-1.248 3.117-2.144 2.379-2.335 4.751-4.676 7.134-7.007 1.442-1.409 3.583-1.355 5.02.063a1015.54 1015.54 0 007.899 7.72c1.082 1.044 2.399 1.585 3.923 1.575a277.38 277.38 0 012.531-.004c.662 0 1.112.36 1.104.873-.008.52-.406.844-1.067.844-.99-.002-1.982.012-2.971-.029-2.352-.094-4.09-1.341-5.677-2.955-2.264-2.3-4.592-4.535-6.902-6.79-.898-.879-1.886-.851-2.8.042-2.591 2.536-5.18 5.071-7.772 7.606-1.456 1.423-3.214 2.122-5.245 2.145a181.51 181.51 0 01-3.191.002c-.652-.004-1.005-.3-1.009-.825-.005-.534.398-.885 1.032-.89l1.817.002zm.274-24.241c1.549-.095 3.239.066 4.798.97.836.484 1.516 1.14 2.196 1.803 2.375 2.317 4.738 4.648 7.114 6.964.962.938 1.867.923 2.818-.007 2.595-2.535 5.188-5.072 7.789-7.6 1.442-1.401 3.188-2.082 5.192-2.114.844-.013 1.687-.007 2.532-.003.7.004 1.08.329 1.063.894-.015.525-.382.798-1.087.803-.971.008-1.945-.02-2.914.029-1.474.072-2.692.715-3.736 1.744a1386.802 1386.802 0 01-7.735 7.566c-1.444 1.4-3.46 1.445-4.932.066-1.625-1.522-3.189-3.11-4.782-4.666a724.08 724.08 0 00-3.292-3.193c-1.091-1.052-2.407-1.56-3.916-1.572-1.064-.009-2.128.005-3.192.004-.42 0-.805-.084-.98-.536-.22-.57.131-1.116.776-1.145.697-.03 1.395-.007 2.288-.007zm-7.947 14.656c0 3.443.002 6.884-.002 10.327-.001.885-.545 1.31-1.23.98-.364-.174-.459-.494-.46-.86-.002-.605.001-1.208 0-1.813-.002-6.243-.003-12.488-.007-18.731 0-1.635-1.162-2.827-2.82-2.871-1.064-.029-2.13-.006-3.193-.012-.689-.005-1.022-.29-1.02-.858.002-.528.349-.82 1.002-.822 1.155-.002 2.314-.04 3.467.016 2.424.116 4.238 2.005 4.253 4.426.021 3.405.005 6.812.005 10.217a.008.008 0 00.005.001zm-3.415-18.967a.86.86 0 01.261-.694c.5-.504.985-1.024 1.498-1.514.468-.448 1.119-.43 1.571.018.463.461.92.93 1.375 1.4.498.513.505 1.05.003 1.58-.478.5-.97.99-1.466 1.474-.336.328-.954.397-1.308.08-.609-.546-1.173-1.143-1.747-1.727-.161-.167-.176-.397-.187-.617zM26.736 52c.01-.015.018-.031.027-.046l.996-.001.028.046h-1.05zm25.515-24.999c-.04 2.1-.784 3.905-2.268 5.394-1.847 1.855-3.7 3.701-5.548 5.554-.11.111-.206.159-.366.104-.11-.038-.242-.02-.364-.023-.989-.02-1.98.053-2.966-.038-1.251-.114-2.308-.65-3.193-1.535l-5.793-5.791c-.539-.539-1.074-1.08-1.616-1.615a3.663 3.663 0 00-5.153.015c-2.435 2.428-4.874 4.854-7.294 7.299-1.134 1.146-2.476 1.723-4.09 1.688-.91-.019-1.821-.003-2.731-.003-.062 0-.129-.017-.183.003-.382.14-.598-.086-.84-.33-1.824-1.84-3.68-3.649-5.483-5.507-2.784-2.867-2.824-7.504-.066-10.386 1.905-1.991 3.887-3.91 5.836-5.86.054-.054.099-.12.196-.104.74.119 1.485.03 2.227.055.655.022 1.312-.04 1.966.045 1.188.156 2.194.673 3.039 1.518 2.461 2.464 4.927 4.925 7.387 7.39.615.615 1.339.999 2.21 1.097 1.038.116 1.956-.17 2.75-.841.24-.203.455-.435.678-.658 2.297-2.295 4.6-4.586 6.887-6.89 1.102-1.109 2.42-1.656 3.98-1.643.778.007 1.563.055 2.335-.02.442-.042.676.13.948.404 1.804 1.822 3.637 3.616 5.426 5.453 1.407 1.444 2.056 3.218 2.09 5.225z"/><path d="M42.072 13.733c-.638.002-1.259-.006-1.875.084-1.537.222-2.89.846-3.992 1.933-2.536 2.501-5.046 5.029-7.563 7.55-.402.402-.861.585-1.426.448-.3-.072-.53-.254-.744-.468-2.405-2.41-4.819-4.811-7.217-7.228-1.035-1.042-2.23-1.79-3.666-2.135a7.559 7.559 0 00-1.846-.202c-.429.004-.857 0-1.286 0-.026-.098.056-.127.1-.17 3.094-3.096 6.184-6.194 9.284-9.282 1.671-1.664 3.702-2.415 6.049-2.237 1.859.141 3.45.91 4.768 2.227 3.097 3.093 6.19 6.188 9.283 9.283.047.046.112.083.131.197zm-14.311 38.22l-.996.001c-1.843-.125-3.455-.806-4.766-2.102-3.043-3.01-6.06-6.045-9.087-9.07-.16-.16-.326-.314-.55-.53h.403c.944-.004 1.888.037 2.819-.194a7.445 7.445 0 003.534-2.008l7.315-7.314c.74-.74 1.53-.742 2.268-.004l7.296 7.295c1.45 1.45 3.204 2.177 5.25 2.207.277.004.554 0 .84 0-.018.112-.094.149-.146.201-3.068 3.071-6.14 6.138-9.206 9.21-1.377 1.379-3.022 2.172-4.974 2.308z"/></g></svg>