<svg width="277" height="281" viewBox="0 0 277 281" fill="none" xmlns="http://www.w3.org/2000/svg"><path d="M207.279 140.758L45.532 175.4l39.129 23.178h21.931l10.468 20.436 24.922 15.452 65.297-93.708z" fill="#181B28"/><path d="M14.514 92.088c20.265 11.646 49.388 28.59 50.594 30.142L246.544 35.5 15.63 84.981c-3.45.74-4.176 5.348-1.116 7.107z" fill="#2A99FF"/><path fill-rule="evenodd" clip-rule="evenodd" d="M62.467 16a8.674 8.674 0 00-8.674 8.674V69.13a8.674 8.674 0 008.674 8.675h20.3l13.2 7.542c.944.54 2.12-.142 2.12-1.23v-6.312h8.836a8.675 8.675 0 008.675-8.675V24.674A8.675 8.675 0 00106.923 16H62.467z" fill="#fff"/><path d="M99.116 55.046V38.52l-6.446-3.898v2.784l4.137 2.52V53.64l-1.827 1.114v-11.14h-2.31V56.16l-1.878 1.114v-16.79h-2.31V58.68l-1.877 1.14V33.748l4.187 2.547v-2.812l-5.355-3.236-5.329 3.236v2.785l4.188-2.52V59.82l-1.879-1.14V40.483h-2.309V57.3l-1.878-1.14V43.614h-2.31V54.78l-1.877-1.14V39.927l.127-.08 4.06-2.44v-2.811l-6.497 3.925v16.525l13.704 8.248 13.68-8.248z" fill="#8F042A"/><path d="M246.544 35.5C196.616 69.81 96.66 138.18 95.264 139.177l56.893 33.994a3.846 3.846 0 005.192-1.197L246.544 35.5z" fill="#2A99FF"/><path d="M82.193 173.89l13.071-34.713L246.543 35.5l-183.18 85.235 15.046 52.997c.525 1.85 3.106 1.958 3.784.158z" fill="#1468B6"/></svg>