<svg width="131" height="58" viewBox="0 0 131 58" fill="none" xmlns="http://www.w3.org/2000/svg"><g clip-path="url(#clip0)" fill="#B0BCE2" fill-opacity=".2"><path d="M40.611 16.015c13.024 0 26.047.005 39.07-.013.625-.002.861.112.858.83-.027 7.105-.027 14.213 0 21.318.003.696-.198.845-.843.845-26.101-.016-52.2-.018-78.3.005-.736 0-.857-.235-.855-.918.023-7.08.023-14.158-.002-21.237-.003-.696.197-.847.842-.845 13.077.02 26.153.015 39.23.015zm-1.523 13.238v4.573c0 1.343.001 1.3 1.295 1.348.672.026.766-.245.76-.843-.023-2.095 0-4.19.023-6.285.008-.691.195-1.35.591-1.915.744-1.061 2.155-1.548 3.304-1.14 1.186.424 1.172 1.496 1.183 2.503.024 2.095.001 4.19-.002 6.286-.001 1.386.002 1.345 1.32 1.394.657.025.78-.217.768-.831-.036-1.986-.003-3.973-.02-5.96a6.332 6.332 0 01.187-1.532c.315-1.328 1.637-2.096 3.262-1.922 1.159.126 1.62.765 1.633 2.344.016 2.123.005 4.245.005 6.368 0 1.602 0 1.587 1.582 1.527.406-.015.55-.128.547-.56-.016-2.532.036-5.064-.027-7.593-.037-1.443-.31-2.91-1.818-3.522-1.836-.744-3.64-.655-5.148.83-.45.443-.661.564-.988-.07-.226-.441-.65-.726-1.11-.87-1.72-.54-3.329-.44-4.697.943-.155.157-.28.492-.55.357-.24-.123-.142-.447-.12-.672.055-.557-.167-.74-.682-.659a2.346 2.346 0 01-.633.004c-.505-.06-.688.117-.676.676.033 1.737.01 3.48.01 5.221zM4.61 28.637v4.816c0 1.74 0 1.716 1.662 1.716.523 0 .665-.156.656-.692-.032-1.823.01-3.646-.024-5.469-.01-.58.17-.729.715-.722 1.82.018 3.65.082 5.462-.056 3.817-.29 4.892-4.827 3.262-7.32-.973-1.491-2.457-1.975-4.115-1.988-2.164-.018-4.33-.003-6.494-.005-1.148 0-1.122 0-1.135 1.203-.006.536.157.714.677.701a89.762 89.762 0 014.04-.003c1.155.026 2.316-.128 3.47.142 1.21.283 1.893 1.016 1.958 2.208.098 1.77-.398 2.613-1.743 3.052-1.114.365-2.252.198-3.381.216-.864.013-1.98.366-2.524-.15-.558-.531-.15-1.697-.168-2.584-.032-1.613-.01-1.587-1.616-1.603-.565-.007-.718.18-.71.744.026 1.931.008 3.863.008 5.794zm55.759 5.34c.615.398.915.862 1.397 1.114 2.549 1.33 5.785.069 6.815-2.716.709-1.915.786-3.91.2-5.847-.576-1.9-1.888-3.099-3.853-3.413-1.732-.277-3.218.244-4.405 1.622-.2-.224-.18-.425-.156-.599.09-.616-.153-.858-.743-.768-.155.023-.32.03-.474.004-.686-.121-.823.206-.82.86.027 3.974.013 7.946.015 11.92 0 1.383.001 1.354 1.334 1.377.563.01.73-.17.703-.737-.045-.888-.013-1.777-.013-2.818zm-29.59 1.606c2.933-.002 4.604-1.275 5.474-4.182.243-.81.298-1.657.295-2.496-.006-2.204-.696-4.106-2.686-5.178-1.972-1.063-4.022-1.089-5.971.11-2.07 1.27-3.024 4.186-2.53 7.142.447 2.692 2.544 4.81 5.418 4.604zm43.257-6.426c0-.979-.002-1.96 0-2.938.002-1.25.002-1.24 1.203-1.268.233-.005.536.158.682-.213.316-.8-.054-1.382-.891-1.382-.132 0-.266-.017-.395.003-.505.08-.632-.164-.61-.646.033-.706.014-1.413.008-2.12-.002-.203.07-.512-.224-.525-.577-.03-1.203-.123-1.721.065-.433.157-.148.775-.19 1.185-.037.35-.05.712 0 1.059.109.77-.143 1.129-.925.98-.881-.166-.623.497-.691.966-.086.595.189.737.667.64.795-.158.955.197.96.968.015 2.527-.162 5.056.104 7.581.064.602.262 1.136.755 1.46.883.58 1.878.521 2.828.273.664-.174.282-.834.323-1.27.043-.45-.348-.28-.58-.29-1.12-.045-1.303-.24-1.305-1.425-.001-1.036 0-2.07.002-3.103zm-53.695-4c-.115-1.803-.119-1.75-1.208-1.82-.674-.043-.776.202-.772.82.029 3.209.013 6.417.013 9.627 0 1.385.002 1.346 1.325 1.389.618.02.744-.19.733-.783-.038-1.958-.02-3.917-.015-5.875.002-.324.008-.66.088-.97.394-1.545 1.415-2.299 3.093-2.35.245-.009.675.202.686-.279.013-.58.285-1.345-.133-1.703-.403-.344-1.108-.15-1.668.067-.506.197-.913.537-1.287.922-.257.262-.492.544-.855.954zm61.216 2.252c0-3.539.007-7.078-.008-10.616-.002-.512.06-.801.692-.793 3.449.036 6.9-.03 10.348.069 2.354.069 4.507.82 5.849 2.91 1.174 1.826 1.24 3.904.968 5.991-.12.916-.314 1.83-.78 2.643-.912 1.6-2.39 2.4-4.133 2.802-2.218.513-4.472.215-6.709.28-1.241.037-1.243.007-1.243 1.27 0 2.096-.016 4.193.014 6.289.008.562-.147.763-.737.742a42.557 42.557 0 00-3.449.001c-.64.028-.835-.15-.83-.809.035-3.592.018-7.185.018-10.78zm4.984-4.027c0 .925-.001 1.85.002 2.773 0 .267-.058.589.37.574 1.775-.056 3.565.19 5.323-.133 1.66-.303 2.47-1.72 2.29-3.775-.14-1.584-1.238-2.682-2.825-2.735-1.53-.05-3.064-.022-4.596-.042-.404-.005-.588.113-.572.56.033.927.01 1.852.008 2.777zm24.762 11.208c-1.046.825-1.935 1.663-3.097 2.012-2.342.702-4.551.583-6.438-1.234-1.81-1.742-1.876-6.68 1.545-8.176 1.538-.673 3.155-.853 4.775-1.064.735-.095 1.471-.187 2.164-.475.561-.232.937-.623.911-1.29-.025-.689-.327-1.22-.981-1.433-1.105-.364-2.226-.452-3.344-.028-.675.257-1.081.767-1.249 1.468-.105.437-.304.609-.77.59a28.132 28.132 0 00-3.018.002c-.695.045-.725-.274-.629-.818.424-2.458 1.741-4.09 4.126-4.716 2.785-.73 5.506-.55 8.123.719 1.25.606 1.959 1.67 2.086 3.06.246 2.718.054 5.448.107 8.17.017.925.044 1.85.058 2.775.01.594.104 1.139.636 1.497.234.157.285.4.177.647-.116.265-.366.145-.563.145-1.138 0-2.282-.07-3.414.017-.787.06-1.028-.31-1.108-.984-.03-.239-.054-.483-.097-.884zm-.159-6.336c-1.253.699-2.611.735-3.91 1.04-.47.11-.912.28-1.31.553-.676.465-.978 1.142-.9 1.959.076.807.431 1.439 1.229 1.743 1.407.535 3.575-.21 4.362-1.527.682-1.14.535-2.404.529-3.768zm12.223-3.431c.427-1.592.889-3.176 1.265-4.78.179-.763.466-1.116 1.32-1.03.949.095 1.915.032 2.873-.007.648-.026.832.163.645.83-1.032 3.678-2.03 7.364-3.037 11.048-.675 2.473-1.353 4.943-1.999 7.424-.13.5-.325.71-.862.69-1.144-.041-2.29-.022-3.435-.009-.433.005-.63-.034-.462-.583.436-1.43.787-2.887 1.187-4.328.067-.243.08-.46.003-.702a5507.103 5507.103 0 01-3.767-12c-.184-.586-.338-1.182-.514-1.77-.125-.418.005-.582.451-.576 1.278.018 2.557.021 3.835-.001.416-.009.54.206.644.547.506 1.66 1.029 3.315 1.549 4.972.03.095.081.182.123.274l.181.001z"/><path d="M66.532 29.314c.031 1.397-.156 2.683-1 3.706-1.307 1.582-4.212 1.392-4.81-1.634-.303-1.535-.254-3.103.329-4.575.482-1.22 1.342-1.83 2.511-1.81 1.175.019 2.058.58 2.564 1.855.319.801.446 1.632.406 2.458zm-32.005-.08c.056.754-.095 1.479-.29 2.198-.445 1.646-1.43 2.494-2.967 2.563-1.66.073-2.8-.661-3.354-2.262-.597-1.73-.488-3.443.348-5.074.679-1.326 2.073-1.896 3.669-1.568 1.38.284 2.353 1.412 2.527 2.954.044.393.045.792.067 1.189z"/></g><defs><clipPath id="clip0"><path fill="#fff" transform="translate(.25)" d="M0 0h130v58H0z"/></clipPath></defs></svg>