<svg width="133" height="58" viewBox="0 0 133 58" fill="none" xmlns="http://www.w3.org/2000/svg"><g opacity=".2" clip-path="url(#clip0)" fill="#B0BCE2"><path d="M23.53 7.967H10.077L.142 17.883v10.023l9.889 9.868h13.45l9.937-9.916V17.836l-9.889-9.869zm4.688 14.893L16.758 34.3 5.316 22.882h.025l11.46-11.44L28.244 22.86h-.026z"/><path d="M23.53 20.226H10.077L.142 30.142v10.023l9.889 9.868h13.45l9.937-9.916V30.094l-9.889-9.868zm4.688 14.892l-11.463 11.44L5.317 35.142h.025L16.805 23.7l11.441 11.414h-.028v.003zm41.171-10.563h-7.943c-4.295 0-4.374-3.164-4.374-3.164v-9.74h4.422v7.61s.017 2.13 3.956 2.13 3.942-2.13 3.942-2.13v-7.61h4.422v9.74s-.05 3.164-4.425 3.164zm25.005.07V11.652h3.939v9.784h9.335v3.192H94.394v-.003zm19.833-12.973v12.973h-3.914V11.652h3.914zm-45.43 27.033H64.02l2.426-4.4 2.35 4.4zm-7.904 5.595l1.514-2.667h8.049l1.41 2.667h4.95l-7.739-12.973h-5.16l-7.8 12.973h4.776zm17.284 0V31.308h5.812l7.754 10.01V31.304h3.575v12.973h-5.773l-7.698-9.866v9.866h-3.67v.003zm19.892 0V31.307h3.877v5.433l7.471-5.433h5.733l-7.723 5.34 8.692 7.633h-6.02l-6.277-5.668-1.879 1.328v4.34h-3.874zm30.611-24.25c0 .793-.688 1.415-1.527 1.415h-5.604c-.842 0-1.53-.648-1.53-1.443v-4.007c0-.793.688-1.443 1.53-1.443h5.604c.839 0 1.527.622 1.527 1.415h3.462v-1.78a2.756 2.756 0 00-2.749-2.745h-10.085a2.757 2.757 0 00-2.751 2.746v7.62a2.757 2.757 0 002.751 2.747h10.085a2.754 2.754 0 002.749-2.746v-1.78h-3.462zM47.551 15.1H43.65v2.624h6.188s1.092-.155 1.092-1.273c0-1.12-1.092-1.347-1.092-1.347H46.79v-3.452h4.914s3.251.078 3.251 4.766c0 4.687-3.36 4.973-3.36 4.973h-7.943v3.234h-4.217V11.652h8.12V15.1h-.004zm35.666 9.525h-7.093V11.652l7.474-.037v2.707h-3.784v2.62H86.9s1.092-.151 1.092-1.272c0-1.118-1.092-1.348-1.092-1.348h-3.588v-2.67h5.326s3.17-.418 3.17 3.393c0 0-.056 3.032-1.488 3.032 0 0 1.488.305 1.488 3.163 0 0 .151 3.385-3.19 3.385h-5.573v-2.956h3.852s1.093-.152 1.093-1.272c0-1.121-1.093-1.348-1.093-1.348h-7.086v2.623h3.403v2.953h.003zM46.524 44.28h-7.092V31.309l7.474-.037v2.707H43.12v2.62h7.087s1.095-.151 1.095-1.272c0-1.118-1.095-1.348-1.095-1.348h-3.591v-2.67h5.328s3.17-.418 3.17 3.393c0 0-.056 3.032-1.488 3.032 0 0 1.488.305 1.488 3.163 0 0 .155 3.385-3.19 3.385h-5.57v-2.956h3.853s1.095-.152 1.095-1.272c0-1.121-1.095-1.348-1.095-1.348H43.12v2.623h3.4v2.953h.003z"/></g><defs><clipPath id="clip0"><path fill="#fff" transform="translate(.142)" d="M0 0h132v58H0z"/></clipPath></defs></svg>