<svg width="129" height="58" viewBox="0 0 129 58" fill="none" xmlns="http://www.w3.org/2000/svg"><g clip-path="url(#clip0)" fill="#B0BCE2" opacity=".2"><path d="M91.393 17.76v19.573a.535.535 0 01-.328.504.516.516 0 01-.206.038h-3.93a.516.516 0 01-.495-.333.537.537 0 01-.038-.21V17.76a.537.537 0 01.328-.504.513.513 0 01.206-.038h3.93a.513.513 0 01.38.156.53.53 0 01.153.387zm30.67-.542c.153 0 .344.078.533.233.115.116.115.31.077.465l-6.485 19.61a.55.55 0 01-.496.35h-3.509a.493.493 0 01-.496-.35l-3.778-11.432-3.777 11.431a.548.548 0 01-.495.35h-3.51a.491.491 0 01-.495-.35l-6.486-19.61c-.038-.154-.038-.31.076-.464.077-.155.268-.233.42-.233h4.387c.228 0 .42.155.496.387l3.471 11.588 3.815-11.588a.557.557 0 01.196-.25.536.536 0 01.3-.1h3.09c.228 0 .419.118.495.35l3.816 11.588 3.471-11.588a.523.523 0 01.496-.387h4.388zm6.637 0c.267 0 .496.233.534.543v19.572a.554.554 0 01-.153.387.518.518 0 01-.381.155h-3.929a.513.513 0 01-.381-.155.535.535 0 01-.153-.387V17.76a.535.535 0 01.328-.505.51.51 0 01.206-.038h3.929zm-44.593 19.96a.396.396 0 01-.306.658h-4.807a.608.608 0 01-.495-.232l-.8-1.007c-1.68 1.084-3.664 1.744-5.761 1.744-5.874 0-10.643-4.845-10.643-10.814 0-5.968 4.769-10.813 10.642-10.813 5.875 0 10.644 4.845 10.644 10.813 0 2.132-.61 4.148-1.679 5.852l3.205 3.798v.001zm-9.537-4.34l-2.1-2.598c-.228-.271-.037-.697.306-.697h4.425c.228-.62.344-1.318.344-2.016 0-3.216-2.366-6.007-5.609-6.007-3.241 0-5.608 2.791-5.608 6.007 0 3.216 2.367 5.969 5.609 5.969.915.039 1.831-.233 2.632-.659z"/><path d="M91.393 17.76v19.573a.535.535 0 01-.328.504.516.516 0 01-.206.038h-3.93a.516.516 0 01-.495-.333.537.537 0 01-.038-.21V17.76a.537.537 0 01.328-.504.513.513 0 01.206-.038h3.93a.513.513 0 01.38.156.53.53 0 01.153.387zm30.67-.542c.153 0 .344.078.533.233.115.116.115.31.077.465l-6.485 19.61a.55.55 0 01-.496.35h-3.509a.493.493 0 01-.496-.35l-3.778-11.432-3.777 11.431a.548.548 0 01-.495.35h-3.51a.491.491 0 01-.495-.35l-6.486-19.61c-.038-.154-.038-.31.076-.464.077-.155.268-.233.42-.233h4.387c.228 0 .42.155.496.387l3.471 11.588 3.815-11.588a.557.557 0 01.196-.25.536.536 0 01.3-.1h3.09c.228 0 .419.118.495.35l3.816 11.588 3.471-11.588a.523.523 0 01.496-.387h4.388zm6.637 0c.267 0 .496.233.534.543v19.572a.554.554 0 01-.153.387.518.518 0 01-.381.155h-3.929a.513.513 0 01-.381-.155.535.535 0 01-.153-.387V17.76a.535.535 0 01.328-.505.51.51 0 01.206-.038h3.929zm-44.593 19.96a.396.396 0 01-.306.658h-4.807a.608.608 0 01-.495-.232l-.8-1.007c-1.68 1.084-3.664 1.744-5.761 1.744-5.874 0-10.643-4.845-10.643-10.814 0-5.968 4.769-10.813 10.642-10.813 5.875 0 10.644 4.845 10.644 10.813 0 2.132-.61 4.148-1.679 5.852l3.205 3.798v.001zm-9.537-4.34l-2.1-2.598c-.228-.271-.037-.697.306-.697h4.425c.228-.62.344-1.318.344-2.016 0-3.216-2.366-6.007-5.609-6.007-3.241 0-5.608 2.791-5.608 6.007 0 3.216 2.367 5.969 5.609 5.969.915.039 1.831-.233 2.632-.659zM46.039 36.67c-.065-.55-.39-1.814-1.235-2.139h.001c-.422-.162-.78-.033-.941.26-.26.454-.066 1.329.422 2.108.486.778.941 1.167 1.266 1.167.325 0 .617-.39.487-1.395z"/><path d="M46.039 36.67c-.065-.55-.39-1.814-1.235-2.139h.001c-.422-.162-.78-.033-.941.26-.26.454-.066 1.329.422 2.108.486.778.941 1.167 1.266 1.167.325 0 .617-.39.487-1.395zm-4.547 2.206c-.52-.453-1.104-.68-1.624-.68-.454 0-.811.161-1.04.453-.583.713-.323 2.01.586 2.789.39.357.974.551 1.526.551.553 0 1.039-.227 1.332-.583.52-.714.227-1.687-.78-2.53z"/><path d="M41.492 38.876c-.52-.453-1.104-.68-1.624-.68-.454 0-.811.161-1.04.453-.583.713-.323 2.01.586 2.789.39.357.974.551 1.526.551.553 0 1.039-.227 1.332-.583.52-.714.227-1.687-.78-2.53z"/><path d="M6.158 25.257c0 12.322 10.002 22.31 22.344 22.31 3.28 0 6.527-.616 11.302-.65 4.254 0 8.931 1.492 14.062 6.032.52.454 1.201-.13.747-.681-5.034-6.388-9.71-7.587-14.387-8.625-5.716-1.265-8.639-4.443-10.685-7.977-.39-.713-.585-.583-.618.325a19.873 19.873 0 00.293 3.989h-.681c-8.152 0-14.778-6.616-14.778-14.755 0-8.139 6.626-14.754 14.777-14.754 8.152 0 14.778 6.615 14.778 14.754 0 .584-.034 1.167-.098 1.718-1.105-.194-3.215-.226-4.71-.096-.552.064-.487.323-.064.389 4.872.907 8.217 3.923 8.996 9.403.032.13.195.162.26.065a22.42 22.42 0 003.15-11.447c0-12.32-10.004-22.308-22.345-22.308-12.34 0-22.343 9.987-22.343 22.308z"/><path d="M6.158 25.257c0 12.322 10.002 22.31 22.344 22.31 3.28 0 6.527-.616 11.302-.65 4.254 0 8.931 1.492 14.062 6.032.52.454 1.201-.13.747-.681-5.034-6.388-9.71-7.587-14.387-8.625-5.716-1.265-8.639-4.443-10.685-7.977-.39-.713-.585-.583-.618.325a19.873 19.873 0 00.293 3.989h-.681c-8.152 0-14.778-6.616-14.778-14.755 0-8.139 6.626-14.754 14.777-14.754 8.152 0 14.778 6.615 14.778 14.754 0 .584-.034 1.167-.098 1.718-1.105-.194-3.215-.226-4.71-.096-.552.064-.487.323-.064.389 4.872.907 8.217 3.923 8.996 9.403.032.13.195.162.26.065a22.42 22.42 0 003.15-11.447c0-12.32-10.004-22.308-22.345-22.308-12.34 0-22.343 9.987-22.343 22.308z"/></g><defs><clipPath id="clip0"><path fill="#fff" transform="translate(.25)" d="M0 0h128v58H0z"/></clipPath></defs></svg>