<svg width="64" height="64" viewBox="0 0 64 64" fill="none" xmlns="http://www.w3.org/2000/svg"><path d="M59.703 28.866a14.909 14.909 0 00-10.047-4.476 13.686 13.686 0 01-.031-1.015c0-1.839 1.398-7.458 2.28-10.568l.902-3.182H41.86l-.733 1.182C40.835 11.275 34 22.482 34 39.375c0 8.271 6.729 15 15 15s15-6.729 15-15c0-3.955-1.526-7.687-4.297-10.509zM49 49.375c-5.514 0-10-4.486-10-10 0-12.415 4.105-21.604 5.727-24.75h1.516c-.719 2.823-1.618 6.755-1.618 8.75 0 1.583.117 2.855.691 3.916.511.946 1.58 2.072 3.773 2.084l.11.003c5.404.104 9.801 4.59 9.801 9.997 0 5.514-4.486 10-10 10zM25.703 28.866a14.909 14.909 0 00-10.047-4.476 13.686 13.686 0 01-.031-1.015c0-1.839 1.398-7.458 2.28-10.568l.902-3.182H7.86l-.733 1.182C6.835 11.275 0 22.482 0 39.375c0 8.271 6.729 15 15 15s15-6.729 15-15c0-3.955-1.526-7.687-4.297-10.509zM15 49.375c-5.514 0-10-4.486-10-10 0-12.415 4.104-21.604 5.726-24.75h1.517c-.719 2.823-1.618 6.755-1.618 8.75 0 1.583.117 2.855.691 3.916.511.946 1.58 2.072 3.773 2.084l.11.003c5.404.104 9.801 4.59 9.801 9.997 0 5.514-4.486 10-10 10z" fill="#E2DDEA"/></svg>