<svg width="100" height="58" viewBox="0 0 100 58" fill="none" xmlns="http://www.w3.org/2000/svg"><path d="M15.364 18.4c-1.159 0-2.229 1.137-2.418 2.597l-.88 6.375c-.201 1.448.557 2.596 1.705 2.596 1.159 0 2.228-1.148 2.429-2.596l.87-6.375c.211-1.449-.547-2.596-1.706-2.596zM3.273 43.977l3.02-21.196c.669-4.68 5.605-8.759 10.91-8.759 5.371 0 7.912 3.733 7.4 7.31l-.435 3.076c-.357 2.597-2.273 5.082-5.65 6.92l3.466 5.874c.401.646.557 1.638.401 2.685-.357 2.24-2.028 4.068-3.856 4.068-1.003 0-1.794-.546-2.273-1.382l-5.093-8.815-.87 6.174c-.322 2.229-1.994 4.023-3.777 4.023H3.273v.022zm24.708-25.252C28.338 16.14 30.366 14 32.44 14c2.072 0 3.465 2.129 3.109 4.725l-1.46 10.699h4.09l1.516-10.699C40.05 16.14 42.078 14 44.15 14s3.477 2.129 3.11 4.725l-2.865 20.55C44.03 41.86 42.011 44 39.94 44c-2.073 0-3.455-2.14-3.11-4.725l.914-6.653h-4.157l-.913 6.653C32.316 41.86 30.288 44 28.215 44h-3.744l3.51-25.275zm31.627-.295c-1.315 0-2.508 1.338-2.797 2.987l-.48 2.931c-.278 1.65.647 2.987 1.962 2.987s2.54-1.337 2.82-2.987l.467-2.93c.29-1.65-.657-2.987-1.972-2.987zm-1.594 10.89c-1.315 0-2.54 1.348-2.786 2.986l-.59 4.29c-.234 1.639.635 2.976 1.939 2.976 1.315 0 2.596-1.337 2.83-2.975l.602-4.29c.234-1.628-.68-2.987-1.995-2.987zm10.23-6.71c-.323 1.996-1.392 3.935-3.31 5.729 1.316 1.393 1.862 3.232 1.583 5.026l-.267 1.827c-.713 4.737-5.617 8.804-10.866 8.804h-8.313l3.064-21.23c.68-4.68 5.606-8.758 10.9-8.758 5.37 0 7.956 3.733 7.41 7.31l-.2 1.293zm28.484 6.38L83.032 42.684 69.347 28.99l13.685-13.674L96.728 28.99z" opacity=".2" fill="#B0BCE2"/></svg>