<svg width="24" height="24" viewBox="0 0 24 24" fill="none" xmlns="http://www.w3.org/2000/svg"><g clip-path="url(#clip0)"><path d="M12.867 7.105a2.816 2.816 0 000 3.977 2.804 2.804 0 001.989.823c.72 0 1.44-.274 1.988-.822a2.816 2.816 0 000-3.978 2.816 2.816 0 00-3.977 0zm2.651 2.652a.939.939 0 01-1.325-1.326.934.934 0 011.325 0 .939.939 0 010 1.326z" fill="#35B972"/><path d="M23.232.806a2.658 2.658 0 00-2.178-.792c-1.166.117-2.946.393-4.802 1.047-2.114.745-3.894 1.818-5.292 3.188a.42.42 0 00-.01.009l-.19.192L.65 7.722a.938.938 0 00-.375 1.556l4.577 4.571a4.662 4.662 0 00-2.623 1.319c-.753.753-1.334 2.276-1.776 4.655a35.072 35.072 0 00-.434 3.162.938.938 0 001.012 1.012 35.19 35.19 0 003.161-.434c2.38-.442 3.903-1.023 4.656-1.776a4.655 4.655 0 001.32-2.627l4.57 4.566a.937.937 0 001.559-.388l3.115-10.125a.937.937 0 00-.62-1.171l-.048-.012a.937.937 0 00-1.035.202l-5.876 5.942-6.051-6.046 6.08-6.126a.933.933 0 00.162-.164l.252-.254c2.78-2.72 6.81-3.489 8.965-3.705a.786.786 0 01.65.238c.176.18.259.428.228.68-.181 1.467-.613 3.654-1.638 5.743a.938.938 0 001.683.826c1.14-2.323 1.617-4.73 1.816-6.339a2.69 2.69 0 00-.748-2.22zM16.581 16.04l-1.619 5.26-1.802-1.8 3.421-3.46zm-10.078.451a.718.718 0 01.898-.094l.219.218a.718.718 0 01-.094.898c-.17.142-.762.31-1.464.433.129-.698.3-1.286.441-1.455zm0 3.28c.83-.151 1.367-.33 1.728-.505a2.788 2.788 0 01-.709 1.196c-.708.709-3.352 1.276-5.515 1.548.272-2.163.84-4.807 1.548-5.515a2.79 2.79 0 011.195-.71c-.175.359-.356.893-.511 1.716a16.128 16.128 0 00-.204 1.451.937.937 0 001.008 1.015c.029-.002.698-.056 1.46-.195zm-2.048-8.967l-1.77-1.769 5.194-1.68-3.424 3.449z" fill="#7E859D"/><path d="M18.516 6.422a.938.938 0 100-1.875.938.938 0 000 1.875z" fill="#35B972"/></g><defs><clipPath id="clip0"><path fill="#fff" d="M0 0h24v24H0z"/></clipPath></defs></svg>