<svg width="126" height="58" viewBox="0 0 126 58" fill="none" xmlns="http://www.w3.org/2000/svg"><path opacity=".2" d="M70.096 21.303C70.674 16.86 67.143 15 62.726 15H51.133L44.29 38.921h7.37l2.066-7.374 5.868.037c.012-.013 9.09.357 10.502-10.28zm-7.575 2.377c-.963 2.56-3.595 2.265-3.595 2.265h-3.608l1.425-5.085s2.286.013 3.788.013c1.836 0 2.504 1.403 1.99 2.807zm-34.512-2.145h6.715l-2.76 10.207s-.694 2.277 1.527 2.45c1.759.135 3.056-1.872 3.492-3.226.565-1.785 2.748-9.43 2.748-9.43h6.92l-5.264 17.37H35.34l.744-2.486s-3.08 3.607-7.665 3.176c-4.07-.381-4.429-3.213-3.723-6.746.347-1.724 3.313-11.315 3.313-11.315z" fill="#B0BCE2"/><path opacity=".2" d="M86.435 30.355c.886-2.893 2.003-5.626 1.105-7.14-1.374-2.327-3.878-2.524-7.524-2.524-4.032 0-9 .738-10.618 5.872H76.1s.616-1.933 3.133-1.81c2.234.111 2.105 1.576 1.284 2.389-1.438 1.428-5.418.64-9.822 2.105-3.852 1.28-5.2 6.131-4.366 8.077.81 1.883 2.324 2.117 4.353 2.314 3.274.308 5.777-1.44 6.946-2.462 0 1.145.025 1.773.025 1.773h7.062l-.013-.64s-.629-.16-.565-1.01c.064-.64 1.284-3.632 2.298-6.944zm-10.142 5.023c-1.156.283-2.543.431-2.825-.566-.758-2.745 5.944-3.558 5.944-3.558.052 2.512-2.234 3.915-3.12 4.124zM26.346 20.565C26.924 16.12 22.854 15 18.436 15H6.844L0 38.921h7.37l2.298-8.125 4.134.037s1.708-.099 1.733 1.44c.039 1.637-1.27 4.641-1.18 6.648h7.561l-.013-.64s-.629-.16-.564-1.01c.025-.357.436-1.465.962-2.967.321-.664.81-2.24.758-3.52-.051-1.601-1.104-2.34-2.606-2.857 4.712-1.059 5.893-7.362 5.893-7.362zm-7.82 3.053c-.95 2.118-3.902 1.871-3.902 1.871l-3.441-.012 1.258-4.481s3.081.012 4.584.012c1.617 0 2.118 1.244 1.502 2.61zm71.103-2.083h6.843v10.428l5.919-10.428h6.278L96.01 42.613s-1.181 1.773-2.632 2.708c-1.194.764-2.67.739-3.12.764-2.504-.025-5.52-.025-5.52-.025l1.45-5.023h2.35s1.078-.111 1.489-.616c.398-.48.603-.972.603-1.686.013-1.072-1.001-17.2-1.001-17.2zm27.821-4.012l-7.896 26.358 14.79-13.185-6.894-13.174z" fill="#B0BCE2"/><path opacity=".2" d="M112.394 17.523l-7.896 26.358 14.777-13.185-6.881-13.174z" fill="#B0BCE2"/></svg>