<svg width="93" height="32" viewBox="0 0 93 32" fill="none" xmlns="http://www.w3.org/2000/svg"><g opacity=".2" fill="#B0BCE2"><path d="M73.22 3.088l7.653-1.347v29.373h-7.654V3.088zm11.21 0v28.026h7.653V1.741L84.43 3.088zM62.333 31.114h7.653V9.61h-7.653v21.504zM11.725 12.682c-.97-.054-3.234-.216-3.234-2.21 0-2.425 3.234-2.425 4.42-2.425 2.101 0 4.904.647 6.844 1.24 0 0 1.078.377 2.048.808h.108V3.357l-.108-.053c-2.318-.808-5.012-1.617-10.025-1.617C3.155 1.741.083 6.753.083 11.065c0 2.48 1.078 8.354 10.94 9 .863.054 3.073.162 3.073 2.264 0 1.725-1.833 2.749-4.905 2.749-3.341 0-6.629-.863-8.569-1.67v6.844c2.964.754 6.306 1.186 10.186 1.186 8.462 0 12.235-4.743 12.235-9.486 0-5.336-4.204-8.839-11.318-9.27zM58.02 9.286c-7.06.216-10.671 3.396-10.671 9.702V31.06h7.707v-9.809c0-3.772.485-5.39 4.958-5.551V9.448c-.755-.162-1.994-.162-1.994-.162zm-20.804.324c-.161.431-1.401 3.88-4.365 7.491V1.741l-7.87 1.563v27.81h7.924v-8.623c2.263 3.45 3.395 8.623 3.395 8.623h9.486c-.917-3.88-5.013-11.048-5.013-11.048 3.665-4.635 5.282-9.648 5.551-10.456h-9.108zM66.16 7.562a3.75 3.75 0 003.773-3.773A3.75 3.75 0 0066.159.016a3.75 3.75 0 00-3.773 3.773 3.75 3.75 0 003.773 3.773z"/><path d="M73.22 3.088l7.653-1.347v29.373h-7.654V3.088zm11.21 0v28.026h7.653V1.741L84.43 3.088zM62.333 31.114h7.653V9.61h-7.653v21.504zM11.725 12.682c-.97-.054-3.234-.216-3.234-2.21 0-2.425 3.234-2.425 4.42-2.425 2.101 0 4.904.647 6.844 1.24 0 0 1.078.377 2.048.808h.108V3.357l-.108-.053c-2.318-.808-5.012-1.617-10.025-1.617C3.155 1.741.083 6.753.083 11.065c0 2.48 1.078 8.354 10.94 9 .863.054 3.073.162 3.073 2.264 0 1.725-1.833 2.749-4.905 2.749-3.341 0-6.629-.863-8.569-1.67v6.844c2.964.754 6.306 1.186 10.186 1.186 8.462 0 12.235-4.743 12.235-9.486 0-5.336-4.204-8.839-11.318-9.27zM58.02 9.286c-7.06.216-10.671 3.396-10.671 9.702V31.06h7.707v-9.809c0-3.772.485-5.39 4.958-5.551V9.448c-.755-.162-1.994-.162-1.994-.162zm-20.804.324c-.161.431-1.401 3.88-4.365 7.491V1.741l-7.87 1.563v27.81h7.924v-8.623c2.263 3.45 3.395 8.623 3.395 8.623h9.486c-.917-3.88-5.013-11.048-5.013-11.048 3.665-4.635 5.282-9.648 5.551-10.456h-9.108zM66.16 7.562a3.75 3.75 0 003.773-3.773A3.75 3.75 0 0066.159.016a3.75 3.75 0 00-3.773 3.773 3.75 3.75 0 003.773 3.773z"/></g></svg>