<svg width="20" height="21" viewBox="0 0 20 21" fill="none" xmlns="http://www.w3.org/2000/svg"><path d="M19.999 4.003c-.014.439-.08.835-.136 1.232-.105.723-.217 1.445-.327 2.167-.11.709-.224 1.416-.328 2.124-.1.695-.213 1.388-.324 2.082-.126.796-.255 1.592-.382 2.387L18.15 16.2c-.099.619-.204 1.236-.294 1.857a2.635 2.635 0 01-.194.735c-.092.2-.213.378-.387.515-.266.21-.572.253-.897.207-.416-.058-.799-.215-1.173-.398-.405-.197-.769-.457-1.143-.705-.72-.478-1.442-.95-2.159-1.43-.838-.562-1.671-1.131-2.466-1.755a17.676 17.676 0 01-.307-.249 1.22 1.22 0 01-.27-.324.827.827 0 01-.002-.874 1.65 1.65 0 01.337-.398c.59-.55 1.183-1.098 1.772-1.65.83-.775 1.654-1.559 2.468-2.354.364-.357.728-.712 1.09-1.07a2.5 2.5 0 00.5-.682.824.824 0 00.091-.282c.014-.147-.054-.223-.2-.226a.797.797 0 00-.303.06 5.377 5.377 0 00-1.106.596c-.731.492-1.456.994-2.186 1.49a411.424 411.424 0 01-5.27 3.524c-.209.137-.451.188-.693.224a3.605 3.605 0 01-1.47-.108c-.753-.2-1.488-.453-2.229-.693-.404-.13-.806-.267-1.207-.403-.23-.078-.362-.248-.43-.47a.464.464 0 01.055-.369 1.06 1.06 0 01.306-.33c.19-.141.396-.255.615-.345 1.032-.427 2.066-.853 3.099-1.278 1.752-.723 3.506-1.442 5.258-2.165 1.247-.514 2.497-1.02 3.738-1.546 1.468-.622 2.941-1.229 4.414-1.838.256-.106.513-.216.772-.316.334-.126.68-.2 1.04-.138.398.069.63.327.671.73.006.098.006.197.009.26z" fill="#046BE9"/></svg>