<svg width="14" height="26" viewBox="0 0 14 26" fill="none" xmlns="http://www.w3.org/2000/svg"><path d="M.536 5.869a1.918 1.918 0 000 2.659 1.793 1.793 0 002.585 0L8.293 3.21a1.918 1.918 0 000-2.66 1.793 1.793 0 00-2.586 0L.536 5.87z" fill="#fff"/><path d="M10.879 8.528a1.793 1.793 0 002.585 0 1.918 1.918 0 000-2.66L8.293.552a1.793 1.793 0 00-2.586 0 1.918 1.918 0 000 2.659l5.172 5.318z" fill="#fff"/><path d="M5.172 24.12C5.172 25.158 5.99 26 7 26c1.01 0 1.828-.842 1.828-1.88V5.318c0-1.038-.818-1.88-1.828-1.88-1.01 0-1.828.842-1.828 1.88V24.12z" fill="#fff"/></svg>