<svg width="16" height="16" viewBox="0 0 16 16" fill="none" xmlns="http://www.w3.org/2000/svg"><g clip-path="url(#clip0)"><path d="M13.87 6.154L4.42.329A2.159 2.159 0 002.21.282a2.159 2.159 0 00-1.12 1.907v11.598c0 1.213.978 2.206 2.18 2.213h.01a2.2 2.2 0 001.133-.34.624.624 0 10-.65-1.066.957.957 0 01-.486.158.97.97 0 01-.939-.965V2.189c0-.344.18-.65.48-.818.3-.168.655-.16.948.02l9.45 5.825a.92.92 0 01.446.8.92.92 0 01-.45.799L6.38 12.998a.624.624 0 10.651 1.065l6.832-4.183a2.17 2.17 0 001.047-1.861 2.17 2.17 0 00-1.04-1.865z" fill="#fff"/></g><defs><clipPath id="clip0"><path fill="#fff" d="M0 0h16v16H0z"/></clipPath></defs></svg>