<svg width="24" height="25" viewBox="0 0 24 25" fill="none" xmlns="http://www.w3.org/2000/svg"><path fill-rule="evenodd" clip-rule="evenodd" d="M12.253 20.12h1.375s.415-.048.627-.292c.195-.224.189-.644.189-.644s-.027-1.969.83-2.258c.843-.286 1.927 1.902 3.076 2.743.868.637 1.528.497 1.528.497l3.072-.045s1.607-.106.845-1.454c-.063-.11-.444-.997-2.284-2.82-1.926-1.907-1.668-1.598.652-4.897 1.413-2.01 1.978-3.236 1.802-3.762-.169-.5-1.208-.368-1.208-.368l-3.458.023s-.257-.037-.447.084c-.186.119-.305.396-.305.396S18 8.878 17.27 10.2c-1.54 2.79-2.156 2.938-2.408 2.764-.585-.403-.44-1.622-.44-2.487 0-2.704.385-3.832-.748-4.123-.376-.097-.652-.161-1.614-.172-1.234-.013-2.278.004-2.87.314-.393.205-.696.663-.512.69.229.032.747.148 1.021.547.355.515.342 1.67.342 1.67s.204 3.183-.475 3.578c-.467.272-1.106-.282-2.479-2.813-.704-1.297-1.235-2.73-1.235-2.73s-.102-.268-.285-.411c-.221-.174-.531-.23-.531-.23l-3.286.024s-.494.014-.675.243c-.161.204-.013.625-.013.625s2.573 6.422 5.486 9.66c2.672 2.966 5.705 2.772 5.705 2.772z" fill="#fff"/></svg>