<svg width="126" height="31" viewBox="0 0 126 31" fill="none" xmlns="http://www.w3.org/2000/svg"><g opacity=".2"><path d="M15.307.727c2.341 0 4.568.544 6.566 1.518.313.144.629.316.941.488l-1.37 1.232-2.054-2.149-3.54 3.152-2.084-2.264-6.508 5.874 4.167 4.614-1.627 1.432 4.111 4.614-1.627 1.431 5.881 6.562 3.48-3.21 3.028 3.44c-.6.459-1.257.918-1.97 1.319a14.874 14.874 0 01-7.365 1.947C7.086 30.727.38 23.994.38 15.714.349 7.489 7.059.727 15.307.727zm-2.74 14.07l3.568-3.21 3.198 3.582-3.57 3.209-3.196-3.582zm2.541 6.189l3.54-3.238 3.225 3.581-3.568 3.21-3.197-3.553zm-5.08-12.293l3.567-3.21 3.197 3.582-3.568 3.21-3.196-3.582zm6.535-1.72l2.655-2.407 2.399 2.665-2.655 2.436-2.399-2.694zm4.74 11.032l2.653-2.407 2.399 2.693L23.7 20.7l-2.398-2.695zm2.34 5.417l2.655-2.408 2.396 2.665-2.654 2.435-2.397-2.692zm1.085-12.38l1.77-1.605 1.597 1.778-1.77 1.604-1.597-1.777zm-2.284-5.3l1.77-1.634 1.599 1.805-1.771 1.605-1.598-1.777zm4.538 10.602l1.77-1.605 1.627 1.777-1.798 1.604-1.599-1.776zM19.02 12.36l2.655-2.407 2.397 2.664-2.654 2.408-2.399-2.665z" fill="#B0BCE2"/><path d="M15.307.727c2.341 0 4.568.544 6.566 1.518.313.144.629.316.941.488l-1.37 1.232-2.054-2.149-3.54 3.152-2.084-2.264-6.508 5.874 4.167 4.614-1.627 1.432 4.111 4.614-1.627 1.431 5.881 6.562 3.48-3.21 3.028 3.44c-.6.459-1.257.918-1.97 1.319a14.874 14.874 0 01-7.365 1.947C7.086 30.727.38 23.994.38 15.714.349 7.489 7.059.727 15.307.727zm-2.74 14.07l3.568-3.21 3.198 3.582-3.57 3.209-3.196-3.582zm2.541 6.189l3.54-3.238 3.225 3.581-3.568 3.21-3.197-3.553zm-5.08-12.293l3.567-3.21 3.197 3.582-3.568 3.21-3.196-3.582zm6.535-1.72l2.655-2.407 2.399 2.665-2.655 2.436-2.399-2.694zm4.74 11.032l2.653-2.407 2.399 2.693L23.7 20.7l-2.398-2.695zm2.34 5.417l2.655-2.408 2.396 2.665-2.654 2.435-2.397-2.692zm1.085-12.38l1.77-1.605 1.597 1.778-1.77 1.604-1.597-1.777zm-2.284-5.3l1.77-1.634 1.599 1.805-1.771 1.605-1.598-1.777zm4.538 10.602l1.77-1.605 1.627 1.777-1.798 1.604-1.599-1.776zM19.02 12.36l2.655-2.407 2.397 2.664-2.654 2.408-2.399-2.665z" fill="#B0BCE2"/><mask id="a" maskUnits="userSpaceOnUse" x="32" y="6" width="17" height="15"><path d="M32.934 6.989v13.835h15.825V6.989H32.934z" fill="#036CB5"/></mask><g mask="url(#a)" fill="#B0BCE2"><path d="M40.872 11.085h-.137l-2.564 9.739h-2.095L32.93 6.989h2.174l2.175 10.323h.136l2.524-10.323h1.728l2.7 10.323h.136l1.98-10.323h2.273l-3.147 13.835H43.51l-2.64-9.739z"/><path d="M40.872 11.085h-.137l-2.564 9.739h-2.095L32.93 6.989h2.174l2.175 10.323h.136l2.524-10.323h1.728l2.7 10.323h.136l1.98-10.323h2.273l-3.147 13.835H43.51l-2.64-9.739z"/></g><path d="M51.512 14.93h4.445c-.096-2.049-1.087-2.868-2.135-2.868-1.184 0-2.098.917-2.31 2.868zm5.999 3.67v1.482c-.874.508-2.038.898-3.437.898-3.262 0-4.601-2.03-4.601-5.112 0-2.967 1.495-5.114 4.407-5.114 2.427 0 3.923 1.582 3.923 4.762v.722h-6.33c0 2.34.95 3.375 2.951 3.375 1.049 0 2.02-.371 3.087-1.014z" fill="#B0BCE2"/><path d="M51.512 14.93h4.445c-.096-2.049-1.087-2.868-2.135-2.868-1.184 0-2.098.917-2.31 2.868zm5.999 3.67v1.482c-.874.508-2.038.898-3.437.898-3.262 0-4.601-2.03-4.601-5.112 0-2.967 1.495-5.114 4.407-5.114 2.427 0 3.923 1.582 3.923 4.762v.722h-6.33c0 2.34.95 3.375 2.951 3.375 1.049 0 2.02-.371 3.087-1.014zm4.817.816c.622.273 1.302.314 1.788.314 1.436 0 2.523-.9 2.523-4.06 0-2.478-.893-3.278-2.194-3.278-.777 0-1.34.215-2.117.644v6.38zm.02-7.824c.582-.31 1.572-.722 2.62-.722 2.409 0 3.71 1.678 3.71 4.8 0 3.65-1.748 5.426-4.562 5.426-1.03 0-2.622-.332-3.788-.958V6.518l2.02-.487v5.561z" fill="#B0BCE2"/><path d="M62.328 19.416c.622.273 1.302.314 1.788.314 1.436 0 2.523-.9 2.523-4.06 0-2.478-.893-3.278-2.194-3.278-.777 0-1.34.215-2.117.644v6.38zm.02-7.824c.582-.31 1.572-.722 2.62-.722 2.409 0 3.71 1.678 3.71 4.8 0 3.65-1.748 5.426-4.562 5.426-1.03 0-2.622-.332-3.788-.958V6.518l2.02-.487v5.561zm15.062 6.293h.097l4.155-10.908h2.409v13.836h-2.097v-10.03h-.175l-3.962 10.03h-1.242l-3.962-9.796h-.174v9.796H70.71V6.977h2.35l4.35 10.908z" fill="#B0BCE2"/><path d="M77.41 17.885h.097l4.155-10.908h2.409v13.836h-2.097v-10.03h-.175l-3.962 10.03h-1.242l-3.962-9.796h-.174v9.796H70.71V6.977h2.35l4.35 10.908zm15.233-2.014c0-2.634-1.068-3.746-2.388-3.746-1.281 0-2.389 1.112-2.389 3.746 0 2.674 1.011 3.746 2.389 3.746s2.388-1.072 2.388-3.746zm-6.815 0c0-3.416 1.865-5.113 4.427-5.113 2.564 0 4.428 1.697 4.428 5.113 0 3.336-1.767 5.113-4.428 5.113-2.66 0-4.427-1.777-4.427-5.113z" fill="#B0BCE2"/><path d="M92.643 15.871c0-2.634-1.068-3.746-2.388-3.746-1.281 0-2.389 1.112-2.389 3.746 0 2.674 1.011 3.746 2.389 3.746s2.388-1.072 2.388-3.746zm-6.815 0c0-3.416 1.865-5.113 4.427-5.113 2.564 0 4.428 1.697 4.428 5.113 0 3.336-1.767 5.113-4.428 5.113-2.66 0-4.427-1.777-4.427-5.113zm10.391-3.668c.873-.528 2.719-1.445 4.951-1.445 2.33 0 3.202.917 3.202 2.927v7.065h-2.018v-6.616c0-1.541-.755-1.814-1.747-1.814-.776 0-1.767.352-2.369.703v7.727h-2.02v-8.547z" fill="#B0BCE2"/><path d="M96.219 12.203c.873-.528 2.719-1.445 4.951-1.445 2.33 0 3.202.917 3.202 2.927v7.065h-2.018v-6.616c0-1.541-.755-1.814-1.747-1.814-.776 0-1.767.352-2.369.703v7.727h-2.02v-8.547zm12.425 2.727h4.446c-.096-2.049-1.087-2.868-2.136-2.868-1.184 0-2.096.917-2.31 2.868zm5.999 3.67v1.482c-.873.508-2.038.898-3.437.898-3.26 0-4.601-2.03-4.601-5.112 0-2.967 1.495-5.114 4.408-5.114 2.428 0 3.923 1.582 3.923 4.762v.722h-6.33c0 2.34.951 3.375 2.951 3.375 1.048 0 2.02-.371 3.086-1.014z" fill="#B0BCE2"/><path d="M108.644 14.93h4.446c-.096-2.049-1.087-2.868-2.136-2.868-1.184 0-2.096.917-2.31 2.868zm5.999 3.67v1.482c-.873.508-2.038.898-3.437.898-3.26 0-4.601-2.03-4.601-5.112 0-2.967 1.495-5.114 4.408-5.114 2.428 0 3.923 1.582 3.923 4.762v.722h-6.33c0 2.34.951 3.375 2.951 3.375 1.048 0 2.02-.371 3.086-1.014zm8.362-7.842h2.078l-3.515 9.756c-.972 2.693-2.155 4.098-4.387 4.098v-1.6c1.321 0 2.135-1.053 2.602-2.498l-3.728-9.756h2.136l2.485 7.181h.117l2.212-7.18z" fill="#B0BCE2"/><path d="M123.005 10.758h2.078l-3.515 9.756c-.972 2.693-2.155 4.098-4.387 4.098v-1.6c1.321 0 2.135-1.053 2.602-2.498l-3.728-9.756h2.136l2.485 7.181h.117l2.212-7.18z" fill="#B0BCE2"/></g></svg>