<svg width="148" height="48" viewBox="0 0 148 48" fill="none" xmlns="http://www.w3.org/2000/svg"><g opacity=".2" clip-path="url(#clip0)" fill="#B0BCE2"><path d="M.634 10.877c3.862-.004 7.723.004 11.585-.026.658-.006.87.176.86.84-.037 2.474-.015 4.948-.015 7.485.312-.292.314-.63.385-.944 1.562-6.904 7.737-11.787 14.897-11.783 7.128.006 13.348 4.93 14.9 11.8 1.892 8.375-3.818 16.745-12.406 18.186-.19.032-.418-.033-.526.205h-4.267c-.247-.357-.67-.268-1.006-.353-6.013-1.5-9.83-5.222-11.518-11.112-.135-.467-.233-.946-.347-1.418a141.585 141.585 0 00-.095 8.053c.01.747-.13 1.08-.982 1.024-1.213-.077-2.437-.054-3.655-.006-.643.027-.936-.168-1.132-.805a801.931 801.931 0 00-3.25-10.349C2.932 18.14 1.777 14.61.635 11.078v-.2zM34 21.583c.006-3.1-2.547-5.666-5.64-5.674-3.089-.009-5.74 2.579-5.744 5.605-.004 3.052 2.604 5.652 5.68 5.666 3.138.012 5.698-2.5 5.704-5.597z"/><path d="M.634 10.877c3.862-.004 7.723.004 11.585-.026.658-.006.87.176.86.84-.037 2.474-.015 4.948-.015 7.485.312-.292.314-.63.385-.944 1.562-6.904 7.737-11.787 14.897-11.783 7.128.006 13.348 4.93 14.9 11.8 1.892 8.375-3.818 16.745-12.406 18.186-.19.032-.418-.033-.526.205h-4.267c-.247-.357-.67-.268-1.006-.353-6.013-1.5-9.83-5.222-11.518-11.112-.135-.467-.233-.946-.347-1.418a141.585 141.585 0 00-.095 8.053c.01.747-.13 1.08-.982 1.024-1.213-.077-2.437-.054-3.655-.006-.643.027-.936-.168-1.132-.805a801.931 801.931 0 00-3.25-10.349C2.932 18.14 1.777 14.61.635 11.078v-.2zM34 21.583c.006-3.1-2.547-5.666-5.64-5.674-3.089-.009-5.74 2.579-5.744 5.605-.004 3.052 2.604 5.652 5.68 5.666 3.138.012 5.698-2.5 5.704-5.597zm24.983-5.458c2.071-1.796 4.25-2.025 6.603-1.01.595.255 1.163.598 1.521 1.136.457.686.758.5 1.208-.014 2.712-3.095 8.008-1.926 9.21 1.715.233.708.313 1.439.315 2.177.008 2.582-.025 5.165.022 7.747.014.735-.23.923-.92.87a13.689 13.689 0 00-2.234.003c-.751.065-.89-.248-.88-.918.037-2.38.021-4.763.013-7.144-.006-1.798-1.02-2.95-2.584-2.963-1.668-.01-2.728 1.076-2.753 2.919-.032 2.447-.032 4.897.006 7.345.01.653-.16.897-.837.83-1.032-.104-2.416.43-3.007-.22-.513-.564-.163-1.907-.169-2.906-.012-1.644.01-3.288-.006-4.93-.018-1.877-1.024-2.914-2.822-2.946-1.495-.027-2.594 1.083-2.641 2.83a141.09 141.09 0 00-.014 7.244c.02.865-.239 1.118-1.07 1.017-.928-.114-2.18.396-2.715-.21-.46-.52-.147-1.726-.149-2.627-.006-3.355.047-6.71-.033-10.06-.024-1.02.296-1.28 1.232-1.151.5.067 1.018.048 1.521.004.876-.083 1.523.018 1.183 1.262z"/><path d="M58.983 16.125c2.071-1.796 4.25-2.025 6.603-1.01.595.255 1.163.598 1.521 1.136.457.686.758.5 1.208-.014 2.712-3.095 8.008-1.926 9.21 1.715.233.708.313 1.439.315 2.177.008 2.582-.025 5.165.022 7.747.014.735-.23.923-.92.87a13.689 13.689 0 00-2.234.003c-.751.065-.89-.248-.88-.918.037-2.38.021-4.763.013-7.144-.006-1.798-1.02-2.95-2.584-2.963-1.668-.01-2.728 1.076-2.753 2.919-.032 2.447-.032 4.897.006 7.345.01.653-.16.897-.837.83-1.032-.104-2.416.43-3.007-.22-.513-.564-.163-1.907-.169-2.906-.012-1.644.01-3.288-.006-4.93-.018-1.877-1.024-2.914-2.822-2.946-1.495-.027-2.594 1.083-2.641 2.83a141.09 141.09 0 00-.014 7.244c.02.865-.239 1.118-1.07 1.017-.928-.114-2.18.396-2.715-.21-.46-.52-.147-1.726-.149-2.627-.006-3.355.047-6.71-.033-10.06-.024-1.02.296-1.28 1.232-1.151.5.067 1.018.048 1.521.004.876-.083 1.523.018 1.183 1.262zm64.744 7.337c-1.593 0-3.185.022-4.777-.01-.654-.015-.65.214-.42.695.784 1.638 3.042 2.48 5.197 1.918a6.046 6.046 0 002.319-1.19c.189-.157.33-.443.672-.181.665.513 1.358.996 2.04 1.49.289.208.167.35-.045.535-4.51 3.888-10.47 2.793-12.866-.495-1.869-2.566-1.835-6.41.148-8.914 1.986-2.506 5.714-3.543 8.603-2.39 3.18 1.268 5.07 4.377 4.708 7.67-.074.665-.308.91-1.006.886-1.523-.049-3.05-.014-4.573-.014zm-1.809-3.138h2.839c.317 0 .694.028.405-.465-.696-1.181-1.731-1.867-3.119-1.926-1.417-.059-2.564.49-3.35 1.685-.279.424-.303.736.387.714.945-.032 1.892-.008 2.838-.008z"/><path d="M123.727 23.462c-1.593 0-3.185.022-4.777-.01-.654-.015-.65.214-.42.695.784 1.638 3.042 2.48 5.197 1.918a6.046 6.046 0 002.319-1.19c.189-.157.33-.443.672-.181.665.513 1.358.996 2.04 1.49.289.208.167.35-.045.535-4.51 3.888-10.47 2.793-12.866-.495-1.869-2.566-1.835-6.41.148-8.914 1.986-2.506 5.714-3.543 8.603-2.39 3.18 1.268 5.07 4.377 4.708 7.67-.074.665-.308.91-1.006.886-1.523-.049-3.05-.014-4.573-.014zm-1.809-3.138h2.839c.317 0 .694.028.405-.465-.696-1.181-1.731-1.867-3.119-1.926-1.417-.059-2.564.49-3.35 1.685-.279.424-.303.736.387.714.945-.032 1.892-.008 2.838-.008zm11.587 13.841c.69-1.534 1.287-2.943 1.959-4.319.346-.708.383-1.317.067-2.072-1.682-4.016-3.28-8.065-4.952-12.084-.326-.783-.254-1.053.656-.97 1.101.102 2.457-.412 3.247.191.746.566.917 1.88 1.328 2.87.757 1.82 1.509 3.645 2.264 5.465.012.029.049.045.11.096 1.065-2.604 2.138-5.188 3.168-7.787.243-.611.534-.896 1.248-.843 1.035.077 2.079.02 3.27.02-.861 2.079-1.681 4.045-2.492 6.014-1.718 4.173-3.449 8.341-5.135 12.528-.283.702-.641.966-1.409.91-1.048-.076-2.101-.019-3.329-.019z"/><path d="M133.505 34.165c.69-1.534 1.287-2.943 1.959-4.319.346-.708.383-1.317.067-2.072-1.682-4.016-3.28-8.065-4.952-12.084-.326-.783-.254-1.053.656-.97 1.101.102 2.457-.412 3.247.191.746.566.917 1.88 1.328 2.87.757 1.82 1.509 3.645 2.264 5.465.012.029.049.045.11.096 1.065-2.604 2.138-5.188 3.168-7.787.243-.611.534-.896 1.248-.843 1.035.077 2.079.02 3.27.02-.861 2.079-1.681 4.045-2.492 6.014-1.718 4.173-3.449 8.341-5.135 12.528-.283.702-.641.966-1.409.91-1.048-.076-2.101-.019-3.329-.019zM101.69 16.186c1.438-1.157 2.765-1.719 4.319-1.727 3.351-.018 5.459 1.859 5.571 5.177.095 2.813.01 5.632.04 8.449.007.558-.205.678-.71.66-.845-.033-1.696-.051-2.539.004-.672.044-.774-.25-.77-.824.022-2.515.037-5.03-.008-7.544-.027-1.445-.819-2.312-2.199-2.602-1.344-.282-2.704.299-3.28 1.427-.33.645-.342 1.36-.344 2.062-.009 2.212-.025 4.426.01 6.638.01.654-.171.893-.853.843-.809-.061-1.625-.041-2.438-.005-.509.023-.71-.1-.706-.655.022-4.258.024-8.516-.002-12.774-.004-.572.214-.663.706-.637.642.035 1.291.055 1.929-.002.93-.087 1.649-.01 1.274 1.51z"/><path d="M101.69 16.186c1.438-1.157 2.765-1.719 4.319-1.727 3.351-.018 5.459 1.859 5.571 5.177.095 2.813.01 5.632.04 8.449.007.558-.205.678-.71.66-.845-.033-1.696-.051-2.539.004-.672.044-.774-.25-.77-.824.022-2.515.037-5.03-.008-7.544-.027-1.445-.819-2.312-2.199-2.602-1.344-.282-2.704.299-3.28 1.427-.33.645-.342 1.36-.344 2.062-.009 2.212-.025 4.426.01 6.638.01.654-.171.893-.853.843-.809-.061-1.625-.041-2.438-.005-.509.023-.71-.1-.706-.655.022-4.258.024-8.516-.002-12.774-.004-.572.214-.663.706-.637.642.035 1.291.055 1.929-.002.93-.087 1.649-.01 1.274 1.51zm-21.436 5.471c.06-4.33 3.128-7.29 7.493-7.223 4.353.067 7.444 3.172 7.381 7.38-.073 4.96-3.952 7.27-7.538 7.265-4.296-.006-7.393-3.194-7.336-7.422zm3.663-.026c0 2.48 1.42 4.107 3.594 4.122 2.398.016 3.962-1.62 3.95-4.128-.01-2.082-1.696-3.702-3.854-3.704-2.104-.004-3.69 1.591-3.69 3.71z"/><path d="M80.254 21.657c.06-4.33 3.128-7.29 7.493-7.223 4.353.067 7.444 3.172 7.381 7.38-.073 4.96-3.952 7.27-7.538 7.265-4.296-.006-7.393-3.194-7.336-7.422zm3.663-.026c0 2.48 1.42 4.107 3.594 4.122 2.398.016 3.962-1.62 3.95-4.128-.01-2.082-1.696-3.702-3.854-3.704-2.104-.004-3.69 1.591-3.69 3.71z"/></g><defs><clipPath id="clip0"><path fill="#fff" transform="translate(.379 .227)" d="M0 0h147v47H0z"/></clipPath></defs></svg>