<svg width="148" height="58" viewBox="0 0 148 58" fill="none" xmlns="http://www.w3.org/2000/svg"><g opacity=".2" clip-path="url(#clip0)" fill="#B0BCE2"><path d="M.755 21.15c3.862-.003 7.723.005 11.586-.026.657-.006.869.177.859.84-.037 2.474-.014 4.948-.014 7.485.311-.292.313-.629.384-.944 1.562-6.904 7.738-11.787 14.897-11.783 7.128.006 13.349 4.93 14.9 11.8 1.892 8.375-3.818 16.745-12.406 18.186-.19.032-.417-.032-.525.205h-4.268c-.247-.357-.67-.268-1.006-.353-6.013-1.5-9.83-5.222-11.518-11.112-.135-.466-.232-.945-.347-1.418a141.585 141.585 0 00-.095 8.053c.01.747-.13 1.08-.982 1.025-1.213-.077-2.437-.055-3.655-.006-.643.026-.936-.169-1.132-.806a801.44 801.44 0 00-3.25-10.348c-1.13-3.536-2.285-7.065-3.427-10.596v-.201zM34.12 31.857c.006-3.099-2.547-5.666-5.64-5.674-3.089-.008-5.74 2.58-5.744 5.605-.004 3.053 2.604 5.652 5.68 5.666 3.138.013 5.698-2.5 5.704-5.597z"/><path d="M.755 21.15c3.862-.003 7.723.005 11.586-.026.657-.006.869.177.859.84-.037 2.474-.014 4.948-.014 7.485.311-.292.313-.629.384-.944 1.562-6.904 7.738-11.787 14.897-11.783 7.128.006 13.349 4.93 14.9 11.8 1.892 8.375-3.818 16.745-12.406 18.186-.19.032-.417-.032-.525.205h-4.268c-.247-.357-.67-.268-1.006-.353-6.013-1.5-9.83-5.222-11.518-11.112-.135-.466-.232-.945-.347-1.418a141.585 141.585 0 00-.095 8.053c.01.747-.13 1.08-.982 1.025-1.213-.077-2.437-.055-3.655-.006-.643.026-.936-.169-1.132-.806a801.44 801.44 0 00-3.25-10.348c-1.13-3.536-2.285-7.065-3.427-10.596v-.201zM34.12 31.857c.006-3.099-2.547-5.666-5.64-5.674-3.089-.008-5.74 2.58-5.744 5.605-.004 3.053 2.604 5.652 5.68 5.666 3.138.013 5.698-2.5 5.704-5.597zm24.984-5.459c2.071-1.796 4.25-2.025 6.603-1.01.595.255 1.163.598 1.522 1.136.456.686.757.5 1.207-.014 2.712-3.095 8.008-1.926 9.21 1.715.233.708.313 1.439.315 2.177.008 2.582-.025 5.166.022 7.747.015.735-.23.923-.92.87a13.666 13.666 0 00-2.234.003c-.751.065-.89-.248-.88-.918.037-2.38.021-4.763.013-7.143-.006-1.799-1.02-2.951-2.584-2.964-1.668-.01-2.728 1.076-2.753 2.919a252.21 252.21 0 00.006 7.345c.01.653-.16.897-.837.83-1.032-.104-2.416.43-3.007-.22-.513-.564-.163-1.907-.169-2.906-.012-1.644.01-3.288-.006-4.93-.018-1.877-1.024-2.914-2.822-2.946-1.495-.027-2.594 1.084-2.64 2.83a139.961 139.961 0 00-.015 7.244c.02.865-.238 1.119-1.07 1.017-.928-.114-2.18.396-2.715-.21-.46-.52-.147-1.726-.149-2.627-.006-3.355.047-6.71-.032-10.06-.025-1.02.295-1.28 1.231-1.151.5.067 1.018.048 1.521.004.876-.083 1.523.018 1.183 1.262z"/><path d="M59.104 26.398c2.071-1.796 4.25-2.025 6.603-1.01.595.255 1.163.598 1.522 1.136.456.686.757.5 1.207-.014 2.712-3.095 8.008-1.926 9.21 1.715.233.708.313 1.439.315 2.177.008 2.582-.025 5.166.022 7.747.015.735-.23.923-.92.87a13.666 13.666 0 00-2.234.003c-.751.065-.89-.248-.88-.918.037-2.38.021-4.763.013-7.143-.006-1.799-1.02-2.951-2.584-2.964-1.668-.01-2.728 1.076-2.753 2.919a252.21 252.21 0 00.006 7.345c.01.653-.16.897-.837.83-1.032-.104-2.416.43-3.007-.22-.513-.564-.163-1.907-.169-2.906-.012-1.644.01-3.288-.006-4.93-.018-1.877-1.024-2.914-2.822-2.946-1.495-.027-2.594 1.084-2.64 2.83a139.961 139.961 0 00-.015 7.244c.02.865-.238 1.119-1.07 1.017-.928-.114-2.18.396-2.715-.21-.46-.52-.147-1.726-.149-2.627-.006-3.355.047-6.71-.032-10.06-.025-1.02.295-1.28 1.231-1.151.5.067 1.018.048 1.521.004.876-.083 1.523.018 1.183 1.262zm64.744 7.337c-1.593 0-3.185.022-4.777-.01-.654-.015-.65.215-.42.696.784 1.638 3.042 2.48 5.197 1.918a6.04 6.04 0 002.319-1.192c.189-.156.33-.442.672-.18.665.513 1.358.996 2.04 1.49.289.208.167.35-.045.535-4.51 3.889-10.47 2.793-12.866-.495-1.869-2.565-1.835-6.41.148-8.914 1.986-2.506 5.714-3.543 8.603-2.39 3.181 1.268 5.07 4.377 4.708 7.671-.074.664-.308.91-1.006.885-1.523-.049-3.05-.014-4.573-.014zm-1.808-3.138h2.838c.318 0 .694.029.405-.465-.696-1.18-1.731-1.867-3.119-1.926-1.417-.058-2.564.49-3.35 1.685-.279.424-.303.737.387.714.945-.032 1.892-.008 2.839-.008z"/><path d="M123.848 33.735c-1.593 0-3.185.022-4.777-.01-.654-.015-.65.215-.42.696.784 1.638 3.042 2.48 5.197 1.918a6.04 6.04 0 002.319-1.192c.189-.156.33-.442.672-.18.665.513 1.358.996 2.04 1.49.289.208.167.35-.045.535-4.51 3.889-10.47 2.793-12.866-.495-1.869-2.565-1.835-6.41.148-8.914 1.986-2.506 5.714-3.543 8.603-2.39 3.181 1.268 5.07 4.377 4.708 7.671-.074.664-.308.91-1.006.885-1.523-.049-3.05-.014-4.573-.014zm-1.808-3.138h2.838c.318 0 .694.029.405-.465-.696-1.18-1.731-1.867-3.119-1.926-1.417-.058-2.564.49-3.35 1.685-.279.424-.303.737.387.714.945-.032 1.892-.008 2.839-.008zm11.586 13.841c.69-1.534 1.287-2.943 1.959-4.319.346-.708.383-1.317.067-2.072-1.682-4.016-3.28-8.065-4.952-12.083-.326-.784-.254-1.054.656-.97 1.101.101 2.457-.412 3.247.19.746.567.917 1.88 1.328 2.87.757 1.82 1.509 3.645 2.264 5.466.012.028.049.044.11.095 1.065-2.604 2.138-5.188 3.168-7.787.243-.611.534-.895 1.249-.843 1.034.078 2.078.02 3.27.02-.862 2.079-1.682 4.046-2.493 6.014-1.718 4.173-3.449 8.341-5.135 12.528-.283.703-.641.966-1.409.91-1.048-.076-2.101-.019-3.329-.019z"/><path d="M133.626 44.438c.69-1.534 1.287-2.943 1.959-4.319.346-.708.383-1.317.067-2.072-1.682-4.016-3.28-8.065-4.952-12.083-.326-.784-.254-1.054.656-.97 1.101.101 2.457-.412 3.247.19.746.567.917 1.88 1.328 2.87.757 1.82 1.509 3.645 2.264 5.466.012.028.049.044.11.095 1.065-2.604 2.138-5.188 3.168-7.787.243-.611.534-.895 1.249-.843 1.034.078 2.078.02 3.27.02-.862 2.079-1.682 4.046-2.493 6.014-1.718 4.173-3.449 8.341-5.135 12.528-.283.703-.641.966-1.409.91-1.048-.076-2.101-.019-3.329-.019zM101.811 26.46c1.438-1.158 2.765-1.72 4.319-1.728 3.351-.018 5.459 1.86 5.571 5.177.095 2.813.01 5.632.04 8.45.006.557-.205.677-.71.659-.845-.033-1.696-.051-2.539.004-.672.044-.774-.25-.77-.824.022-2.515.037-5.03-.008-7.544-.027-1.445-.819-2.311-2.199-2.602-1.344-.282-2.704.299-3.28 1.427-.33.646-.343 1.36-.345 2.062-.008 2.212-.024 4.426.011 6.638.01.654-.171.893-.854.843-.808-.061-1.624-.04-2.437-.004-.509.022-.71-.102-.706-.656.022-4.258.024-8.516-.002-12.774-.004-.572.213-.663.706-.637.642.035 1.291.055 1.928-.002.931-.087 1.65-.01 1.275 1.51z"/><path d="M101.811 26.46c1.438-1.158 2.765-1.72 4.319-1.728 3.351-.018 5.459 1.86 5.571 5.177.095 2.813.01 5.632.04 8.45.006.557-.205.677-.71.659-.845-.033-1.696-.051-2.539.004-.672.044-.774-.25-.77-.824.022-2.515.037-5.03-.008-7.544-.027-1.445-.819-2.311-2.199-2.602-1.344-.282-2.704.299-3.28 1.427-.33.646-.343 1.36-.345 2.062-.008 2.212-.024 4.426.011 6.638.01.654-.171.893-.854.843-.808-.061-1.624-.04-2.437-.004-.509.022-.71-.102-.706-.656.022-4.258.024-8.516-.002-12.774-.004-.572.213-.663.706-.637.642.035 1.291.055 1.928-.002.931-.087 1.65-.01 1.275 1.51zm-21.436 5.47c.06-4.33 3.128-7.29 7.493-7.223 4.354.067 7.444 3.173 7.381 7.38-.073 4.96-3.952 7.27-7.537 7.265-4.297-.006-7.394-3.194-7.337-7.421zm3.663-.026c0 2.48 1.42 4.108 3.594 4.122 2.399.016 3.962-1.62 3.95-4.128-.01-2.082-1.696-3.702-3.854-3.704-2.104-.004-3.69 1.591-3.69 3.71z"/><path d="M80.375 31.93c.06-4.33 3.128-7.29 7.493-7.223 4.354.067 7.444 3.173 7.381 7.38-.073 4.96-3.952 7.27-7.537 7.265-4.297-.006-7.394-3.194-7.337-7.421zm3.663-.026c0 2.48 1.42 4.108 3.594 4.122 2.399.016 3.962-1.62 3.95-4.128-.01-2.082-1.696-3.702-3.854-3.704-2.104-.004-3.69 1.591-3.69 3.71z"/></g><defs><clipPath id="clip0"><path fill="#fff" transform="translate(.25)" d="M0 0h147v58H0z"/></clipPath></defs></svg>