<svg width="17" height="16" viewBox="0 0 17 16" fill="none" xmlns="http://www.w3.org/2000/svg">
<path d="M0.328613 7.99996C0.328613 11.4397 2.49961 14.372 5.54596 15.5023L6.24164 7.99993L5.54596 0.497559C2.49961 1.62793 0.328613 4.56025 0.328613 7.99996Z" fill="#6DA544"/>
<path d="M16.3286 8C16.3286 3.58175 12.7468 0 8.32855 0C7.34999 0 6.41259 0.176031 5.5459 0.497594V15.5024C6.41259 15.824 7.34999 16 8.32855 16C12.7468 16 16.3286 12.4183 16.3286 8Z" fill="#D80027"/>
<circle cx="5.54602" cy="8" r="2.78259" fill="#FFDA44"/>
<path d="M3.98071 6.60864V8.34776C3.98071 9.2122 4.68146 9.91298 5.54593 9.91298C6.4104 9.91298 7.11115 9.21223 7.11115 8.34776V6.60864H3.98071Z" fill="#D80027"/>
<path d="M5.54592 8.8696C5.25823 8.8696 5.02417 8.63554 5.02417 8.34785V7.65222H6.06764V8.34788C6.06764 8.63554 5.83358 8.8696 5.54592 8.8696Z" fill="#F0F0F0"/>
</svg>
