<svg width="17" height="16" viewBox="0 0 17 16" fill="none" xmlns="http://www.w3.org/2000/svg">
<circle cx="8.32861" cy="8" r="8" fill="#D80027"/>
<path d="M4.70674 4.86865L5.39736 6.99365H7.63174L5.82549 8.30928L6.51611 10.4343L4.70674 9.12178L2.89736 10.4343L3.59111 8.30928L1.78174 6.99365H4.01611L4.70674 4.86865Z" fill="#FFDA44"/>
<path d="M9.81284 12.3906L9.28472 11.7406L8.50347 12.0437L8.95659 11.3406L8.42847 10.6875L9.23784 10.9031L9.69409 10.2L9.73784 11.0374L10.5503 11.2531L9.76597 11.5531L9.81284 12.3906Z" fill="#FFDA44"/>
<path d="M10.8628 10.4843L11.1128 9.68432L10.4285 9.19995L11.266 9.18745L11.5128 8.38745L11.7847 9.1812L12.6222 9.17182L11.9503 9.67182L12.2191 10.4656L11.5347 9.9812L10.8628 10.4843Z" fill="#FFDA44"/>
<path d="M12.2788 5.87173L11.91 6.62485L12.51 7.20923L11.6819 7.09048L11.3131 7.84048L11.1694 7.01548L10.3381 6.89673L11.0819 6.5061L10.9381 5.67798L11.5381 6.26235L12.2788 5.87173Z" fill="#FFDA44"/>
<path d="M9.83487 3.59058L9.77237 4.42495L10.5505 4.74058L9.73487 4.94058L9.6755 5.77808L9.23487 5.06558L8.41925 5.26558L8.95987 4.62495L8.51613 3.91558L9.29425 4.2312L9.83487 3.59058Z" fill="#FFDA44"/>
</svg>
