<svg width="17" height="16" viewBox="0 0 17 16" fill="none" xmlns="http://www.w3.org/2000/svg">
<path d="M0.826202 10.7825C1.95655 13.8289 4.88889 15.9999 8.32861 15.9999C11.7683 15.9999 14.7007 13.8289 15.831 10.7825L8.32861 10.0869L0.826202 10.7825Z" fill="#FFDA44"/>
<path d="M8.32861 0C4.88889 0 1.95655 2.171 0.826202 5.21741L8.32861 5.91303L15.831 5.21737C14.7007 2.171 11.7683 0 8.32861 0Z" fill="black"/>
<path d="M0.826207 5.21741C0.504645 6.08406 0.328613 7.02144 0.328613 8C0.328613 8.97856 0.504645 9.91594 0.826207 10.7826H15.8311C16.1526 9.91594 16.3286 8.97856 16.3286 8C16.3286 7.02144 16.1526 6.08406 15.831 5.21741H0.826207Z" fill="#D80027"/>
</svg>
