<svg width="17" height="16" viewBox="0 0 17 16" fill="none" xmlns="http://www.w3.org/2000/svg">
<circle cx="8.32861" cy="8" r="8" fill="#F0F0F0"/>
<path d="M8.3285 0C5.15681 0 2.41631 1.84578 1.12231 4.52175H15.5347C14.2407 1.84578 11.5002 0 8.3285 0Z" fill="#FF9811"/>
<path d="M8.3285 16C11.5002 16 14.2407 14.1542 15.5347 11.4783H1.12231C2.41631 14.1542 5.15681 16 8.3285 16Z" fill="#6DA544"/>
<circle cx="8.32874" cy="7.99988" r="2.78259" fill="#0052B4"/>
<circle cx="8.32872" cy="8.00011" r="1.73912" fill="#F0F0F0"/>
<path d="M8.32851 5.854L8.86504 7.07081L10.187 6.92703L9.40154 8.00006L10.187 9.07309L8.86504 8.92931L8.32851 10.1461L7.79197 8.92931L6.46997 9.07306L7.25547 8.00006L6.46997 6.92703L7.79197 7.07081L8.32851 5.854Z" fill="#0052B4"/>
</svg>
