<svg width="17" height="16" viewBox="0 0 17 16" fill="none" xmlns="http://www.w3.org/2000/svg"><circle cx="8.329" cy="8" r="8" fill="#F0F0F0"/><path d="M10.927 5.913H9.88c.009.115.014.231.014.348 0 .774-.194 1.524-.53 2.058a1.894 1.894 0 01-.514.554v-2.96H7.807v2.96a1.894 1.894 0 01-.513-.554c-.337-.534-.53-1.284-.53-2.058 0-.117.004-.233.013-.348H5.73c-.006.115-.01.23-.01.348 0 2.145 1.146 3.826 2.609 3.826 1.462 0 2.608-1.68 2.608-3.826 0-.117-.003-.233-.01-.348z" fill="#D80027"/><path d="M3.633 3.826h1.043v.696H5.72v-.696h1.043v.696h1.044v-.696H8.85v.696h1.044v-.696h1.043v.696h1.044v-.696h1.043v.696h2.51A8 8 0 008.329 0a8 8 0 00-7.206 4.522h2.51v-.696z" fill="#6DA544"/><path d="M13.024 11.478v.696h-1.043v-.696h-1.044v.696H9.894v-.696H8.85v.696H7.807v-.696H6.763v.696H5.72v-.696H4.676v.696H3.633v-.696h-2.51A8 8 0 008.327 16a8 8 0 007.207-4.522h-2.51z" fill="#D80027"/></svg>