<svg width="17" height="16" viewBox="0 0 17 16" fill="none" xmlns="http://www.w3.org/2000/svg">
<circle cx="8.32861" cy="8" r="8" fill="#F0F0F0"/>
<path d="M7.98071 8.00006H16.3285C16.3285 7.27796 16.2323 6.57852 16.0529 5.91309H7.98071V8.00006Z" fill="#D80027"/>
<path d="M7.98071 3.8261H15.1543C14.6646 3.02698 14.0385 2.32064 13.3084 1.73914H7.98071V3.8261Z" fill="#D80027"/>
<path d="M8.32878 16C10.2116 16 11.9421 15.3492 13.3087 14.2609H3.34888C4.71547 15.3492 6.446 16 8.32878 16Z" fill="#D80027"/>
<path d="M1.50284 12.1739H15.1545C15.5476 11.5324 15.8525 10.8311 16.0531 10.0869H0.604248C0.804779 10.8311 1.10969 11.5324 1.50284 12.1739Z" fill="#D80027"/>
<path d="M8.32861 8C8.32861 3.58175 8.32861 3.06087 8.32861 0C3.91036 0 0.328613 3.58175 0.328613 8H8.32861Z" fill="#0052B4"/>
<path d="M5.64854 6.84781C4.55597 6.84781 3.67029 5.9621 3.67029 4.86956C3.67029 3.77703 4.55601 2.89131 5.64854 2.89131C5.98919 2.89131 6.30972 2.97747 6.58957 3.1291C6.15057 2.69981 5.55019 2.43481 4.88766 2.43481C3.54301 2.43481 2.45288 3.52491 2.45288 4.8696C2.45288 6.21428 3.54301 7.30438 4.88766 7.30438C5.55019 7.30438 6.15057 7.03938 6.58957 6.6101C6.30972 6.76166 5.98922 6.84781 5.64854 6.84781Z" fill="#FFDA44"/>
<path d="M6.20599 3.47827L6.55721 4.21271L7.35037 4.02946L6.99518 4.76193L7.63306 5.26777L6.83887 5.44681L6.84109 6.2609L6.20599 5.75159L5.57087 6.2609L5.57306 5.44681L4.77887 5.26777L5.41674 4.76193L5.06153 4.02946L5.85474 4.21271L6.20599 3.47827Z" fill="#FFDA44"/>
</svg>
