<svg width="17" height="16" viewBox="0 0 17 16" fill="none" xmlns="http://www.w3.org/2000/svg">
<g clip-path="url(#clip0)">
<path d="M16.3286 0H0.328613V8H16.3286V0Z" fill="#0038A8"/>
<path d="M16.3286 8H0.328613V16H16.3286V8Z" fill="#CE1126"/>
<path d="M-1.65219 16L-1.67139 0L12.1686 7.9832L-1.65219 16Z" fill="white"/>
<path d="M2.15422 14.5257L1.59422 14.2225L1.12462 14.6529L1.24062 14.0265L0.686218 13.7129L1.31822 13.6289L1.44542 13.0049L1.71982 13.5801L2.35262 13.5081L1.89102 13.9473L2.15422 14.5257Z" fill="#FCD116"/>
<path d="M2.37822 2.49032L1.74382 2.42952L1.47982 3.00952L1.34142 2.38792L0.708618 2.31592L1.25742 1.99192L1.13022 1.36792L1.60782 1.78952L2.16222 1.47592L1.90862 2.06072L2.37822 2.49032Z" fill="#FCD116"/>
<path d="M7.49661 8.58401L8.04061 8.02401L7.82461 7.824L7.63181 7.64H7.63261L7.46461 7.48H7.45661L6.24061 7.7216C6.19821 7.5112 6.11501 7.316 5.99901 7.1448L7.04861 6.44L7.05661 6.184H7.04861L7.04781 5.6688L6.25581 5.676H6.24861L5.55901 6.708C5.38861 6.5944 5.19581 6.5128 4.98861 6.4712L5.23101 5.252L5.07581 5.0824H5.06861L5.06781 5.0872L4.67981 4.6936L4.29101 5.0856L4.28941 5.0728L4.21261 5.1648L4.12941 5.2488V5.2648L4.13181 5.2616L4.37101 6.4704C4.16141 6.5104 3.96621 6.5912 3.79421 6.7048L3.09661 5.664H2.31261V5.952V6.208V6.44L3.35261 7.136C3.23421 7.3088 3.14861 7.5048 3.10461 7.7168L1.88861 7.48L1.32861 8.02401L1.51261 8.22401L1.71341 8.416H1.71261L1.88061 8.576L1.87261 8.58401L3.10141 8.3392C3.14221 8.5536 3.22461 8.7528 3.34141 8.92801L2.31261 9.616V10.4L2.59261 10.408L2.85181 10.404L2.84861 10.408L3.08061 10.4L3.08861 10.408L3.78221 9.36961C3.95501 9.48561 4.15261 9.56881 4.36461 9.60961L4.12061 10.832L4.28861 11L4.68061 11.392L4.88061 11.184L5.24061 10.832L4.99661 9.6072C5.20701 9.564 5.40301 9.47921 5.57421 9.36161L6.27261 10.408H6.51261H7.04861L7.05661 10.128V9.616L7.04861 9.6104V9.60801L6.01181 8.91441C6.12461 8.7424 6.20461 8.54801 6.24381 8.33841L7.49661 8.58401Z" fill="#FCD116"/>
</g>
<defs>
<clipPath id="clip0">
<rect x="0.328613" width="16" height="16" rx="8" fill="white"/>
</clipPath>
</defs>
</svg>
