<svg width="17" height="16" viewBox="0 0 17 16" fill="none" xmlns="http://www.w3.org/2000/svg"><path d="M.329 8a8.003 8.003 0 005.217 7.502L6.242 8 5.546.498A8.003 8.003 0 00.329 8z" fill="#6DA544"/><path d="M16.329 8A8 8 0 005.546.498v15.004A8 8 0 0016.329 8z" fill="#D80027"/><circle cx="5.546" cy="8" r="2.783" fill="#FFDA44"/><path d="M3.98 6.609v1.739a1.565 1.565 0 103.131 0v-1.74h-3.13z" fill="#D80027"/><path d="M5.546 8.87a.522.522 0 01-.522-.522v-.696h1.044v.696a.522.522 0 01-.522.522z" fill="#F0F0F0"/></svg>