<svg width="17" height="16" viewBox="0 0 17 16" fill="none" xmlns="http://www.w3.org/2000/svg">
<circle cx="8.32861" cy="8" r="8" fill="#D80027"/>
<path d="M8.00125 6.53687L8.65765 7.4414L9.72068 7.09671L9.06324 8.00046L9.71956 8.90496L8.6569 8.55896L7.9995 9.46271L8.00018 8.34518L6.9375 7.99918L8.00056 7.65449L8.00125 6.53687Z" fill="#F0F0F0"/>
<path d="M6.20977 10.2608C4.96115 10.2608 3.9489 9.24854 3.9489 7.99991C3.9489 6.75129 4.96115 5.73904 6.20977 5.73904C6.59909 5.73904 6.9654 5.8375 7.28521 6.01079C6.78349 5.5201 6.09734 5.21729 5.34021 5.21729C3.8034 5.21729 2.55762 6.4631 2.55762 7.99988C2.55762 9.53666 3.80343 10.7825 5.34021 10.7825C6.0974 10.7825 6.78352 10.4796 7.28521 9.98897C6.9654 10.1623 6.59909 10.2608 6.20977 10.2608Z" fill="#F0F0F0"/>
</svg>
